G04 Layer: TopSolderMaskLayer*
G04 EasyEDA v6.3.22, 2020-03-14T22:20:27--7:00*
G04 457ca038791a4c03a2b045dd88f7922b,93ea2736136a419895ea0886014cbf9b,10*
G04 Gerber Generator version 0.2*
G04 Scale: 100 percent, Rotated: No, Reflected: No *
G04 Dimensions in inches *
G04 leading zeros omitted , absolute positions ,2 integer and 4 decimal *
%FSLAX24Y24*%
%MOIN*%
G90*
G70D02*

%ADD71C,0.086740*%
%ADD72C,0.031622*%
%ADD73C,0.088000*%
%ADD74C,0.068000*%
%ADD79R,0.047400X0.018000*%
%ADD81C,0.073000*%
%ADD82R,0.073000X0.073000*%
%ADD83R,0.082000X0.141200*%
%ADD84C,0.067055*%
%ADD97R,0.051307X0.126110*%
%ADD99C,0.086700*%
%ADD103C,0.102488*%
%ADD104R,0.058000X0.033000*%
%ADD105C,0.078866*%
%ADD106C,0.165480*%
%ADD107C,0.104700*%
%ADD108C,0.066700*%
%ADD110C,0.059181*%

%LPD*%
G54D71*
G01X13100Y24946D02*
G01X13100Y24553D01*
G01X11099Y24946D02*
G01X11099Y24553D01*
G01X9099Y24946D02*
G01X9099Y24553D01*
G01X7099Y24946D02*
G01X7099Y24553D01*
G54D72*
G01X1493Y29800D02*
G01X1966Y29800D01*
G01X1493Y29300D02*
G01X1966Y29300D01*
G01X1493Y28800D02*
G01X1966Y28800D01*
G01X1493Y28300D02*
G01X1966Y28300D01*
G01X3833Y29800D02*
G01X4306Y29800D01*
G01X3833Y29300D02*
G01X4306Y29300D01*
G01X3833Y28800D02*
G01X4306Y28800D01*
G01X3833Y28300D02*
G01X4306Y28300D01*
G54D73*
G01X53800Y41300D02*
G01X53600Y41300D01*
G01X53800Y40300D02*
G01X53600Y40300D01*
G01X53800Y42300D02*
G01X53600Y42300D01*
G01X71900Y41350D02*
G01X72100Y41350D01*
G01X71900Y42350D02*
G01X72100Y42350D01*
G01X71900Y40350D02*
G01X72100Y40350D01*
G54D72*
G01X29800Y26697D02*
G01X29800Y27059D01*
G01X29300Y26697D02*
G01X29300Y27059D01*
G01X28800Y26697D02*
G01X28800Y27059D01*
G01X28300Y26697D02*
G01X28300Y27059D01*
G01X29800Y24540D02*
G01X29800Y24902D01*
G01X29300Y24540D02*
G01X29300Y24902D01*
G01X28800Y24540D02*
G01X28800Y24902D01*
G01X28300Y24540D02*
G01X28300Y24902D01*
G01X17800Y25647D02*
G01X17800Y26009D01*
G01X17300Y25647D02*
G01X17300Y26009D01*
G01X16800Y25647D02*
G01X16800Y26009D01*
G01X16300Y25647D02*
G01X16300Y26009D01*
G01X17800Y23490D02*
G01X17800Y23852D01*
G01X17300Y23490D02*
G01X17300Y23852D01*
G01X16800Y23490D02*
G01X16800Y23852D01*
G01X16300Y23490D02*
G01X16300Y23852D01*
G54D74*
G01X34507Y1400D03*
G01X35492Y1400D03*
G01X36476Y1400D03*
G01X37460Y1400D03*
G01X38444Y1400D03*
G01X33523Y1400D03*
G01X32539Y1400D03*
G01X31555Y1400D03*
G36*
G01X14328Y8055D02*
G01X14328Y10694D01*
G01X16771Y10694D01*
G01X16771Y8055D01*
G01X14328Y8055D01*
G37*
G36*
G01X16100Y11592D02*
G01X16100Y12853D01*
G01X16810Y12853D01*
G01X16810Y11592D01*
G01X16100Y11592D01*
G37*
G36*
G01X14289Y11590D02*
G01X14289Y12851D01*
G01X15000Y12851D01*
G01X15000Y11590D01*
G01X14289Y11590D01*
G37*
G36*
G01X33531Y4392D02*
G01X33531Y4590D01*
G01X33768Y4590D01*
G01X33768Y4392D01*
G01X33531Y4392D01*
G37*
G36*
G01X33531Y4609D02*
G01X33531Y4807D01*
G01X33768Y4807D01*
G01X33768Y4609D01*
G01X33531Y4609D01*
G37*
G36*
G01X35431Y4392D02*
G01X35431Y4590D01*
G01X35668Y4590D01*
G01X35668Y4392D01*
G01X35431Y4392D01*
G37*
G36*
G01X35431Y4609D02*
G01X35431Y4807D01*
G01X35668Y4807D01*
G01X35668Y4609D01*
G01X35431Y4609D01*
G37*
G36*
G01X18631Y8792D02*
G01X18631Y9067D01*
G01X18868Y9067D01*
G01X18868Y8792D01*
G01X18631Y8792D01*
G37*
G36*
G01X18631Y8432D02*
G01X18631Y8707D01*
G01X18868Y8707D01*
G01X18868Y8432D01*
G01X18631Y8432D01*
G37*
G36*
G01X33682Y21250D02*
G01X33682Y21430D01*
G01X34156Y21430D01*
G01X34156Y21250D01*
G01X33682Y21250D01*
G37*
G36*
G01X33682Y21059D02*
G01X33682Y21240D01*
G01X34156Y21240D01*
G01X34156Y21059D01*
G01X33682Y21059D01*
G37*
G36*
G01X33682Y20859D02*
G01X33682Y21040D01*
G01X34156Y21040D01*
G01X34156Y20859D01*
G01X33682Y20859D01*
G37*
G36*
G01X33682Y20659D02*
G01X33682Y20840D01*
G01X34156Y20840D01*
G01X34156Y20659D01*
G01X33682Y20659D01*
G37*
G36*
G01X33682Y20469D02*
G01X33682Y20650D01*
G01X34156Y20650D01*
G01X34156Y20469D01*
G01X33682Y20469D01*
G37*
G54D79*
G01X35580Y20559D03*
G01X35580Y20750D03*
G01X35580Y20950D03*
G01X35580Y21150D03*
G01X35580Y21340D03*
G36*
G01X3947Y10844D02*
G01X3947Y12055D01*
G01X4653Y12055D01*
G01X4653Y10844D01*
G01X3947Y10844D01*
G37*
G36*
G01X11947Y10844D02*
G01X11947Y12055D01*
G01X12653Y12055D01*
G01X12653Y10844D01*
G01X11947Y10844D01*
G37*
G36*
G01X5947Y10844D02*
G01X5947Y12055D01*
G01X6653Y12055D01*
G01X6653Y10844D01*
G01X5947Y10844D01*
G37*
G36*
G01X9947Y10844D02*
G01X9947Y12055D01*
G01X10653Y12055D01*
G01X10653Y10844D01*
G01X9947Y10844D01*
G37*
G36*
G01X44697Y35394D02*
G01X44697Y36605D01*
G01X45404Y36605D01*
G01X45404Y35394D01*
G01X44697Y35394D01*
G37*
G36*
G01X52697Y35394D02*
G01X52697Y36605D01*
G01X53404Y36605D01*
G01X53404Y35394D01*
G01X52697Y35394D01*
G37*
G36*
G01X46697Y35394D02*
G01X46697Y36605D01*
G01X47404Y36605D01*
G01X47404Y35394D01*
G01X46697Y35394D01*
G37*
G36*
G01X50697Y35394D02*
G01X50697Y36605D01*
G01X51404Y36605D01*
G01X51404Y35394D01*
G01X50697Y35394D01*
G37*
G54D81*
G01X11950Y7600D03*
G54D82*
G01X11950Y8600D03*
G54D81*
G01X18800Y11600D03*
G54D82*
G01X18800Y12600D03*
G54D81*
G01X7500Y33950D03*
G36*
G01X7135Y32584D02*
G01X7135Y33315D01*
G01X7864Y33315D01*
G01X7864Y32584D01*
G01X7135Y32584D01*
G37*
G01X10850Y33950D03*
G36*
G01X10485Y32584D02*
G01X10485Y33315D01*
G01X11214Y33315D01*
G01X11214Y32584D01*
G01X10485Y32584D01*
G37*
G54D83*
G01X43000Y2500D03*
G01X44000Y2500D03*
G01X45000Y2500D03*
G54D84*
G01X29916Y15531D03*
G36*
G01X30565Y15196D02*
G01X30565Y15867D01*
G01X31235Y15867D01*
G01X31235Y15196D01*
G01X30565Y15196D01*
G37*
G01X28932Y15531D03*
G01X27948Y15531D03*
G54D83*
G01X25300Y3800D03*
G01X26300Y3800D03*
G01X27300Y3800D03*
G01X28300Y3800D03*
G01X34000Y15550D03*
G01X35000Y15550D03*
G01X36000Y15550D03*
G01X37000Y15550D03*
G01X38000Y15550D03*
G54D74*
G01X63350Y46500D03*
G01X62350Y46500D03*
G36*
G01X13018Y22430D02*
G01X13018Y22988D01*
G01X13321Y22988D01*
G01X13321Y22430D01*
G01X13018Y22430D01*
G37*
G36*
G01X12648Y22430D02*
G01X12648Y22988D01*
G01X12951Y22988D01*
G01X12951Y22430D01*
G01X12648Y22430D01*
G37*
G36*
G01X12278Y22430D02*
G01X12278Y22988D01*
G01X12581Y22988D01*
G01X12581Y22430D01*
G01X12278Y22430D01*
G37*
G36*
G01X12278Y21411D02*
G01X12278Y21967D01*
G01X12581Y21967D01*
G01X12581Y21411D01*
G01X12278Y21411D01*
G37*
G36*
G01X13018Y21411D02*
G01X13018Y21967D01*
G01X13321Y21967D01*
G01X13321Y21411D01*
G01X13018Y21411D01*
G37*
G36*
G01X12648Y21411D02*
G01X12648Y21967D01*
G01X12951Y21967D01*
G01X12951Y21411D01*
G01X12648Y21411D01*
G37*
G36*
G01X30811Y26769D02*
G01X30811Y27071D01*
G01X31368Y27071D01*
G01X31368Y26769D01*
G01X30811Y26769D01*
G37*
G36*
G01X30811Y26398D02*
G01X30811Y26701D01*
G01X31368Y26701D01*
G01X31368Y26398D01*
G01X30811Y26398D01*
G37*
G36*
G01X30811Y26028D02*
G01X30811Y26330D01*
G01X31368Y26330D01*
G01X31368Y26028D01*
G01X30811Y26028D01*
G37*
G36*
G01X31831Y26028D02*
G01X31831Y26330D01*
G01X32388Y26330D01*
G01X32388Y26028D01*
G01X31831Y26028D01*
G37*
G36*
G01X31831Y26769D02*
G01X31831Y27071D01*
G01X32388Y27071D01*
G01X32388Y26769D01*
G01X31831Y26769D01*
G37*
G36*
G01X31831Y26398D02*
G01X31831Y26701D01*
G01X32388Y26701D01*
G01X32388Y26398D01*
G01X31831Y26398D01*
G37*
G36*
G01X24127Y7592D02*
G01X24127Y8107D01*
G01X24602Y8107D01*
G01X24602Y7592D01*
G01X24127Y7592D01*
G37*
G36*
G01X23497Y7592D02*
G01X23497Y8107D01*
G01X23972Y8107D01*
G01X23972Y7592D01*
G01X23497Y7592D01*
G37*
G36*
G01X52427Y42042D02*
G01X52427Y42557D01*
G01X52902Y42557D01*
G01X52902Y42042D01*
G01X52427Y42042D01*
G37*
G36*
G01X51797Y42042D02*
G01X51797Y42557D01*
G01X52272Y42557D01*
G01X52272Y42042D01*
G01X51797Y42042D01*
G37*
G36*
G01X24127Y10042D02*
G01X24127Y10557D01*
G01X24602Y10557D01*
G01X24602Y10042D01*
G01X24127Y10042D01*
G37*
G36*
G01X23497Y10042D02*
G01X23497Y10557D01*
G01X23972Y10557D01*
G01X23972Y10042D01*
G01X23497Y10042D01*
G37*
G36*
G01X24127Y11092D02*
G01X24127Y11607D01*
G01X24602Y11607D01*
G01X24602Y11092D01*
G01X24127Y11092D01*
G37*
G36*
G01X23497Y11092D02*
G01X23497Y11607D01*
G01X23972Y11607D01*
G01X23972Y11092D01*
G01X23497Y11092D01*
G37*
G36*
G01X40477Y30742D02*
G01X40477Y31257D01*
G01X40952Y31257D01*
G01X40952Y30742D01*
G01X40477Y30742D01*
G37*
G36*
G01X39847Y30742D02*
G01X39847Y31257D01*
G01X40322Y31257D01*
G01X40322Y30742D01*
G01X39847Y30742D01*
G37*
G36*
G01X32677Y21842D02*
G01X32677Y22357D01*
G01X33152Y22357D01*
G01X33152Y21842D01*
G01X32677Y21842D01*
G37*
G36*
G01X32047Y21842D02*
G01X32047Y22357D01*
G01X32522Y22357D01*
G01X32522Y21842D01*
G01X32047Y21842D01*
G37*
G36*
G01X31293Y18648D02*
G01X31293Y19121D01*
G01X31806Y19121D01*
G01X31806Y18648D01*
G01X31293Y18648D01*
G37*
G36*
G01X31293Y19278D02*
G01X31293Y19752D01*
G01X31806Y19752D01*
G01X31806Y19278D01*
G01X31293Y19278D01*
G37*
G36*
G01X18393Y26998D02*
G01X18393Y27471D01*
G01X18906Y27471D01*
G01X18906Y26998D01*
G01X18393Y26998D01*
G37*
G36*
G01X18393Y27628D02*
G01X18393Y28102D01*
G01X18906Y28102D01*
G01X18906Y27628D01*
G01X18393Y27628D01*
G37*
G36*
G01X12493Y27628D02*
G01X12493Y28102D01*
G01X13006Y28102D01*
G01X13006Y27628D01*
G01X12493Y27628D01*
G37*
G36*
G01X12493Y26998D02*
G01X12493Y27471D01*
G01X13006Y27471D01*
G01X13006Y26998D01*
G01X12493Y26998D01*
G37*
G36*
G01X13397Y27642D02*
G01X13397Y28157D01*
G01X13872Y28157D01*
G01X13872Y27642D01*
G01X13397Y27642D01*
G37*
G36*
G01X14027Y27642D02*
G01X14027Y28157D01*
G01X14502Y28157D01*
G01X14502Y27642D01*
G01X14027Y27642D01*
G37*
G36*
G01X17277Y26942D02*
G01X17277Y27457D01*
G01X17752Y27457D01*
G01X17752Y26942D01*
G01X17277Y26942D01*
G37*
G36*
G01X16647Y26942D02*
G01X16647Y27457D01*
G01X17122Y27457D01*
G01X17122Y26942D01*
G01X16647Y26942D01*
G37*
G36*
G01X41677Y7742D02*
G01X41677Y8257D01*
G01X42152Y8257D01*
G01X42152Y7742D01*
G01X41677Y7742D01*
G37*
G36*
G01X41047Y7742D02*
G01X41047Y8257D01*
G01X41522Y8257D01*
G01X41522Y7742D01*
G01X41047Y7742D01*
G37*
G36*
G01X24447Y27342D02*
G01X24447Y27857D01*
G01X24922Y27857D01*
G01X24922Y27342D01*
G01X24447Y27342D01*
G37*
G36*
G01X25077Y27342D02*
G01X25077Y27857D01*
G01X25552Y27857D01*
G01X25552Y27342D01*
G01X25077Y27342D01*
G37*
G36*
G01X37193Y20848D02*
G01X37193Y21321D01*
G01X37706Y21321D01*
G01X37706Y20848D01*
G01X37193Y20848D01*
G37*
G36*
G01X37193Y21478D02*
G01X37193Y21952D01*
G01X37706Y21952D01*
G01X37706Y21478D01*
G01X37193Y21478D01*
G37*
G36*
G01X21477Y25542D02*
G01X21477Y26057D01*
G01X21952Y26057D01*
G01X21952Y25542D01*
G01X21477Y25542D01*
G37*
G36*
G01X20847Y25542D02*
G01X20847Y26057D01*
G01X21322Y26057D01*
G01X21322Y25542D01*
G01X20847Y25542D01*
G37*
G36*
G01X61027Y46242D02*
G01X61027Y46757D01*
G01X61502Y46757D01*
G01X61502Y46242D01*
G01X61027Y46242D01*
G37*
G36*
G01X60397Y46242D02*
G01X60397Y46757D01*
G01X60872Y46757D01*
G01X60872Y46242D01*
G01X60397Y46242D01*
G37*
G36*
G01X72764Y40153D02*
G01X72764Y40546D01*
G01X73042Y40546D01*
G01X73042Y40153D01*
G01X72764Y40153D01*
G37*
G36*
G01X73158Y40153D02*
G01X73158Y40546D01*
G01X73435Y40546D01*
G01X73435Y40153D01*
G01X73158Y40153D01*
G37*
G36*
G01X33177Y17142D02*
G01X33177Y17657D01*
G01X33652Y17657D01*
G01X33652Y17142D01*
G01X33177Y17142D01*
G37*
G36*
G01X32547Y17142D02*
G01X32547Y17657D01*
G01X33022Y17657D01*
G01X33022Y17142D01*
G01X32547Y17142D01*
G37*
G36*
G01X28127Y22492D02*
G01X28127Y23007D01*
G01X28602Y23007D01*
G01X28602Y22492D01*
G01X28127Y22492D01*
G37*
G36*
G01X27497Y22492D02*
G01X27497Y23007D01*
G01X27972Y23007D01*
G01X27972Y22492D01*
G01X27497Y22492D01*
G37*
G36*
G01X30227Y22492D02*
G01X30227Y23007D01*
G01X30702Y23007D01*
G01X30702Y22492D01*
G01X30227Y22492D01*
G37*
G36*
G01X29597Y22492D02*
G01X29597Y23007D01*
G01X30072Y23007D01*
G01X30072Y22492D01*
G01X29597Y22492D01*
G37*
G36*
G01X32293Y20928D02*
G01X32293Y21402D01*
G01X32806Y21402D01*
G01X32806Y20928D01*
G01X32293Y20928D01*
G37*
G36*
G01X32293Y20298D02*
G01X32293Y20771D01*
G01X32806Y20771D01*
G01X32806Y20298D01*
G01X32293Y20298D01*
G37*
G36*
G01X73477Y40842D02*
G01X73477Y41357D01*
G01X73952Y41357D01*
G01X73952Y40842D01*
G01X73477Y40842D01*
G37*
G36*
G01X72847Y40842D02*
G01X72847Y41357D01*
G01X73322Y41357D01*
G01X73322Y40842D01*
G01X72847Y40842D01*
G37*
G36*
G01X51797Y41292D02*
G01X51797Y41807D01*
G01X52272Y41807D01*
G01X52272Y41292D01*
G01X51797Y41292D01*
G37*
G36*
G01X52427Y41292D02*
G01X52427Y41807D01*
G01X52902Y41807D01*
G01X52902Y41292D01*
G01X52427Y41292D01*
G37*
G36*
G01X33947Y22192D02*
G01X33947Y22707D01*
G01X34422Y22707D01*
G01X34422Y22192D01*
G01X33947Y22192D01*
G37*
G36*
G01X34577Y22192D02*
G01X34577Y22707D01*
G01X35052Y22707D01*
G01X35052Y22192D01*
G01X34577Y22192D01*
G37*
G36*
G01X4893Y27678D02*
G01X4893Y28152D01*
G01X5406Y28152D01*
G01X5406Y27678D01*
G01X4893Y27678D01*
G37*
G36*
G01X4893Y27048D02*
G01X4893Y27521D01*
G01X5406Y27521D01*
G01X5406Y27048D01*
G01X4893Y27048D01*
G37*
G36*
G01X22643Y27348D02*
G01X22643Y27821D01*
G01X23156Y27821D01*
G01X23156Y27348D01*
G01X22643Y27348D01*
G37*
G36*
G01X22643Y27978D02*
G01X22643Y28452D01*
G01X23156Y28452D01*
G01X23156Y27978D01*
G01X22643Y27978D01*
G37*
G36*
G01X16043Y21878D02*
G01X16043Y22352D01*
G01X16556Y22352D01*
G01X16556Y21878D01*
G01X16043Y21878D01*
G37*
G36*
G01X16043Y21248D02*
G01X16043Y21721D01*
G01X16556Y21721D01*
G01X16556Y21248D01*
G01X16043Y21248D01*
G37*
G36*
G01X35793Y27298D02*
G01X35793Y27771D01*
G01X36306Y27771D01*
G01X36306Y27298D01*
G01X35793Y27298D01*
G37*
G36*
G01X35793Y27928D02*
G01X35793Y28402D01*
G01X36306Y28402D01*
G01X36306Y27928D01*
G01X35793Y27928D01*
G37*
G36*
G01X20797Y27292D02*
G01X20797Y27807D01*
G01X21272Y27807D01*
G01X21272Y27292D01*
G01X20797Y27292D01*
G37*
G36*
G01X21427Y27292D02*
G01X21427Y27807D01*
G01X21902Y27807D01*
G01X21902Y27292D01*
G01X21427Y27292D01*
G37*
G36*
G01X3943Y26348D02*
G01X3943Y26821D01*
G01X4456Y26821D01*
G01X4456Y26348D01*
G01X3943Y26348D01*
G37*
G36*
G01X3943Y26978D02*
G01X3943Y27452D01*
G01X4456Y27452D01*
G01X4456Y26978D01*
G01X3943Y26978D01*
G37*
G36*
G01X29177Y28092D02*
G01X29177Y28607D01*
G01X29652Y28607D01*
G01X29652Y28092D01*
G01X29177Y28092D01*
G37*
G36*
G01X28547Y28092D02*
G01X28547Y28607D01*
G01X29022Y28607D01*
G01X29022Y28092D01*
G01X28547Y28092D01*
G37*
G36*
G01X30727Y28142D02*
G01X30727Y28657D01*
G01X31202Y28657D01*
G01X31202Y28142D01*
G01X30727Y28142D01*
G37*
G36*
G01X30097Y28142D02*
G01X30097Y28657D01*
G01X30572Y28657D01*
G01X30572Y28142D01*
G01X30097Y28142D01*
G37*
G36*
G01X18847Y25544D02*
G01X18847Y26059D01*
G01X19322Y26059D01*
G01X19322Y25544D01*
G01X18847Y25544D01*
G37*
G36*
G01X19477Y25544D02*
G01X19477Y26059D01*
G01X19952Y26059D01*
G01X19952Y25544D01*
G01X19477Y25544D01*
G37*
G36*
G01X27243Y28128D02*
G01X27243Y28602D01*
G01X27756Y28602D01*
G01X27756Y28128D01*
G01X27243Y28128D01*
G37*
G36*
G01X27243Y27498D02*
G01X27243Y27971D01*
G01X27756Y27971D01*
G01X27756Y27498D01*
G01X27243Y27498D01*
G37*
G36*
G01X38343Y19798D02*
G01X38343Y20271D01*
G01X38856Y20271D01*
G01X38856Y19798D01*
G01X38343Y19798D01*
G37*
G36*
G01X38343Y20428D02*
G01X38343Y20902D01*
G01X38856Y20902D01*
G01X38856Y20428D01*
G01X38343Y20428D01*
G37*
G36*
G01X22943Y12878D02*
G01X22943Y13351D01*
G01X23456Y13351D01*
G01X23456Y12878D01*
G01X22943Y12878D01*
G37*
G36*
G01X22943Y12248D02*
G01X22943Y12721D01*
G01X23456Y12721D01*
G01X23456Y12248D01*
G01X22943Y12248D01*
G37*
G36*
G01X22347Y14142D02*
G01X22347Y14657D01*
G01X22822Y14657D01*
G01X22822Y14142D01*
G01X22347Y14142D01*
G37*
G36*
G01X22977Y14142D02*
G01X22977Y14657D01*
G01X23452Y14657D01*
G01X23452Y14142D01*
G01X22977Y14142D01*
G37*
G36*
G01X10043Y18648D02*
G01X10043Y19121D01*
G01X10556Y19121D01*
G01X10556Y18648D01*
G01X10043Y18648D01*
G37*
G36*
G01X10043Y19278D02*
G01X10043Y19752D01*
G01X10556Y19752D01*
G01X10556Y19278D01*
G01X10043Y19278D01*
G37*
G36*
G01X41797Y4492D02*
G01X41797Y5007D01*
G01X42272Y5007D01*
G01X42272Y4492D01*
G01X41797Y4492D01*
G37*
G36*
G01X42427Y4492D02*
G01X42427Y5007D01*
G01X42902Y5007D01*
G01X42902Y4492D01*
G01X42427Y4492D01*
G37*
G36*
G01X48577Y17492D02*
G01X48577Y18007D01*
G01X49052Y18007D01*
G01X49052Y17492D01*
G01X48577Y17492D01*
G37*
G36*
G01X47947Y17492D02*
G01X47947Y18007D01*
G01X48422Y18007D01*
G01X48422Y17492D01*
G01X47947Y17492D01*
G37*
G36*
G01X41727Y23742D02*
G01X41727Y24257D01*
G01X42202Y24257D01*
G01X42202Y23742D01*
G01X41727Y23742D01*
G37*
G36*
G01X41097Y23742D02*
G01X41097Y24257D01*
G01X41572Y24257D01*
G01X41572Y23742D01*
G01X41097Y23742D01*
G37*
G36*
G01X32514Y18184D02*
G01X32514Y18777D01*
G01X33185Y18777D01*
G01X33185Y18184D01*
G01X32514Y18184D01*
G37*
G36*
G01X32514Y19523D02*
G01X32514Y20115D01*
G01X33185Y20115D01*
G01X33185Y19523D01*
G01X32514Y19523D01*
G37*
G36*
G01X37164Y18134D02*
G01X37164Y18727D01*
G01X37835Y18727D01*
G01X37835Y18134D01*
G01X37164Y18134D01*
G37*
G36*
G01X37164Y19473D02*
G01X37164Y20065D01*
G01X37835Y20065D01*
G01X37835Y19473D01*
G01X37164Y19473D01*
G37*
G36*
G01X33564Y18184D02*
G01X33564Y18777D01*
G01X34235Y18777D01*
G01X34235Y18184D01*
G01X33564Y18184D01*
G37*
G36*
G01X33564Y19523D02*
G01X33564Y20115D01*
G01X34235Y20115D01*
G01X34235Y19523D01*
G01X33564Y19523D01*
G37*
G36*
G01X36114Y19034D02*
G01X36114Y19627D01*
G01X36785Y19627D01*
G01X36785Y19034D01*
G01X36114Y19034D01*
G37*
G36*
G01X36114Y20373D02*
G01X36114Y20965D01*
G01X36785Y20965D01*
G01X36785Y20373D01*
G01X36114Y20373D01*
G37*
G36*
G01X24314Y12434D02*
G01X24314Y13026D01*
G01X24985Y13026D01*
G01X24985Y12434D01*
G01X24314Y12434D01*
G37*
G36*
G01X24314Y13773D02*
G01X24314Y14365D01*
G01X24985Y14365D01*
G01X24985Y13773D01*
G01X24314Y13773D01*
G37*
G36*
G01X42456Y30421D02*
G01X42456Y30778D01*
G01X43027Y30778D01*
G01X43027Y30421D01*
G01X42456Y30421D01*
G37*
G36*
G01X41472Y30048D02*
G01X41472Y30403D01*
G01X42043Y30403D01*
G01X42043Y30048D01*
G01X41472Y30048D01*
G37*
G36*
G01X41472Y30796D02*
G01X41472Y31152D01*
G01X42043Y31152D01*
G01X42043Y30796D01*
G01X41472Y30796D01*
G37*
G36*
G01X43672Y8605D02*
G01X43672Y9178D01*
G01X44027Y9178D01*
G01X44027Y8605D01*
G01X43672Y8605D01*
G37*
G36*
G01X44046Y7621D02*
G01X44046Y8194D01*
G01X44402Y8194D01*
G01X44402Y7621D01*
G01X44046Y7621D01*
G37*
G36*
G01X43297Y7621D02*
G01X43297Y8194D01*
G01X43654Y8194D01*
G01X43654Y7621D01*
G01X43297Y7621D01*
G37*
G36*
G01X22722Y25771D02*
G01X22722Y26128D01*
G01X23293Y26128D01*
G01X23293Y25771D01*
G01X22722Y25771D01*
G37*
G36*
G01X23706Y26146D02*
G01X23706Y26502D01*
G01X24277Y26502D01*
G01X24277Y26146D01*
G01X23706Y26146D01*
G37*
G36*
G01X23706Y25398D02*
G01X23706Y25753D01*
G01X24277Y25753D01*
G01X24277Y25398D01*
G01X23706Y25398D01*
G37*
G36*
G01X14122Y21521D02*
G01X14122Y21878D01*
G01X14693Y21878D01*
G01X14693Y21521D01*
G01X14122Y21521D01*
G37*
G36*
G01X15106Y21896D02*
G01X15106Y22252D01*
G01X15677Y22252D01*
G01X15677Y21896D01*
G01X15106Y21896D01*
G37*
G36*
G01X15106Y21148D02*
G01X15106Y21503D01*
G01X15677Y21503D01*
G01X15677Y21148D01*
G01X15106Y21148D01*
G37*
G36*
G01X9022Y20621D02*
G01X9022Y20978D01*
G01X9593Y20978D01*
G01X9593Y20621D01*
G01X9022Y20621D01*
G37*
G36*
G01X10006Y20996D02*
G01X10006Y21352D01*
G01X10577Y21352D01*
G01X10577Y20996D01*
G01X10006Y20996D01*
G37*
G36*
G01X10006Y20248D02*
G01X10006Y20603D01*
G01X10577Y20603D01*
G01X10577Y20248D01*
G01X10006Y20248D01*
G37*
G36*
G01X44506Y4221D02*
G01X44506Y4578D01*
G01X45077Y4578D01*
G01X45077Y4221D01*
G01X44506Y4221D01*
G37*
G36*
G01X43522Y3848D02*
G01X43522Y4203D01*
G01X44093Y4203D01*
G01X44093Y3848D01*
G01X43522Y3848D01*
G37*
G36*
G01X43522Y4596D02*
G01X43522Y4951D01*
G01X44093Y4951D01*
G01X44093Y4596D01*
G01X43522Y4596D01*
G37*
G36*
G01X42706Y22621D02*
G01X42706Y22978D01*
G01X43277Y22978D01*
G01X43277Y22621D01*
G01X42706Y22621D01*
G37*
G36*
G01X41722Y22248D02*
G01X41722Y22603D01*
G01X42293Y22603D01*
G01X42293Y22248D01*
G01X41722Y22248D01*
G37*
G36*
G01X41722Y22996D02*
G01X41722Y23352D01*
G01X42293Y23352D01*
G01X42293Y22996D01*
G01X41722Y22996D01*
G37*
G36*
G01X39568Y34546D02*
G01X39568Y36753D01*
G01X40831Y36753D01*
G01X40831Y34546D01*
G01X39568Y34546D01*
G37*
G36*
G01X41568Y34546D02*
G01X41568Y36753D01*
G01X42831Y36753D01*
G01X42831Y34546D01*
G01X41568Y34546D01*
G37*
G36*
G01X5997Y5419D02*
G01X5997Y6680D01*
G01X8202Y6680D01*
G01X8202Y5419D01*
G01X5997Y5419D01*
G37*
G36*
G01X5997Y7419D02*
G01X5997Y8680D01*
G01X8202Y8680D01*
G01X8202Y7419D01*
G01X5997Y7419D01*
G37*
G36*
G01X21460Y31926D02*
G01X21460Y35255D01*
G01X25739Y35255D01*
G01X25739Y31926D01*
G01X21460Y31926D01*
G37*
G36*
G01X24013Y29278D02*
G01X24013Y30540D01*
G01X24526Y30540D01*
G01X24526Y29278D01*
G01X24013Y29278D01*
G37*
G54D97*
G01X24938Y29909D03*
G36*
G01X22005Y29278D02*
G01X22005Y30540D01*
G01X22518Y30540D01*
G01X22518Y29278D01*
G01X22005Y29278D01*
G37*
G36*
G01X22673Y29278D02*
G01X22673Y30540D01*
G01X23186Y30540D01*
G01X23186Y29278D01*
G01X22673Y29278D01*
G37*
G36*
G01X23343Y29278D02*
G01X23343Y30540D01*
G01X23856Y30540D01*
G01X23856Y29278D01*
G01X23343Y29278D01*
G37*
G36*
G01X14281Y13609D02*
G01X14281Y13807D01*
G01X14518Y13807D01*
G01X14518Y13609D01*
G01X14281Y13609D01*
G37*
G36*
G01X14281Y13392D02*
G01X14281Y13590D01*
G01X14518Y13590D01*
G01X14518Y13392D01*
G01X14281Y13392D01*
G37*
G36*
G01X17881Y8542D02*
G01X17881Y8740D01*
G01X18118Y8740D01*
G01X18118Y8542D01*
G01X17881Y8542D01*
G37*
G36*
G01X17881Y8759D02*
G01X17881Y8957D01*
G01X18118Y8957D01*
G01X18118Y8759D01*
G01X17881Y8759D01*
G37*
G36*
G01X34743Y21630D02*
G01X34743Y21869D01*
G01X34940Y21869D01*
G01X34940Y21630D01*
G01X34743Y21630D01*
G37*
G36*
G01X34959Y21630D02*
G01X34959Y21869D01*
G01X35156Y21869D01*
G01X35156Y21630D01*
G01X34959Y21630D01*
G37*
G36*
G01X31443Y27330D02*
G01X31443Y27569D01*
G01X31640Y27569D01*
G01X31640Y27330D01*
G01X31443Y27330D01*
G37*
G36*
G01X31659Y27330D02*
G01X31659Y27569D01*
G01X31856Y27569D01*
G01X31856Y27330D01*
G01X31659Y27330D01*
G37*
G36*
G01X42531Y10459D02*
G01X42531Y10657D01*
G01X42768Y10657D01*
G01X42768Y10459D01*
G01X42531Y10459D01*
G37*
G36*
G01X42531Y10242D02*
G01X42531Y10440D01*
G01X42768Y10440D01*
G01X42768Y10242D01*
G01X42531Y10242D01*
G37*
G36*
G01X30593Y16780D02*
G01X30593Y17019D01*
G01X30790Y17019D01*
G01X30790Y16780D01*
G01X30593Y16780D01*
G37*
G36*
G01X30809Y16780D02*
G01X30809Y17019D01*
G01X31006Y17019D01*
G01X31006Y16780D01*
G01X30809Y16780D01*
G37*
G36*
G01X2309Y26630D02*
G01X2309Y26869D01*
G01X2506Y26869D01*
G01X2506Y26630D01*
G01X2309Y26630D01*
G37*
G36*
G01X2093Y26630D02*
G01X2093Y26869D01*
G01X2290Y26869D01*
G01X2290Y26630D01*
G01X2093Y26630D01*
G37*
G36*
G01X2643Y30430D02*
G01X2643Y30669D01*
G01X2840Y30669D01*
G01X2840Y30430D01*
G01X2643Y30430D01*
G37*
G36*
G01X2859Y30430D02*
G01X2859Y30669D01*
G01X3056Y30669D01*
G01X3056Y30430D01*
G01X2859Y30430D01*
G37*
G36*
G01X1581Y27292D02*
G01X1581Y27490D01*
G01X1818Y27490D01*
G01X1818Y27292D01*
G01X1581Y27292D01*
G37*
G36*
G01X1581Y27509D02*
G01X1581Y27707D01*
G01X1818Y27707D01*
G01X1818Y27509D01*
G01X1581Y27509D01*
G37*
G36*
G01X4781Y28542D02*
G01X4781Y28740D01*
G01X5018Y28740D01*
G01X5018Y28542D01*
G01X4781Y28542D01*
G37*
G36*
G01X4781Y28759D02*
G01X4781Y28957D01*
G01X5018Y28957D01*
G01X5018Y28759D01*
G01X4781Y28759D01*
G37*
G36*
G01X5231Y28542D02*
G01X5231Y28740D01*
G01X5468Y28740D01*
G01X5468Y28542D01*
G01X5231Y28542D01*
G37*
G36*
G01X5231Y28759D02*
G01X5231Y28957D01*
G01X5468Y28957D01*
G01X5468Y28759D01*
G01X5231Y28759D01*
G37*
G36*
G01X11331Y27659D02*
G01X11331Y27857D01*
G01X11568Y27857D01*
G01X11568Y27659D01*
G01X11331Y27659D01*
G37*
G36*
G01X11331Y27442D02*
G01X11331Y27640D01*
G01X11568Y27640D01*
G01X11568Y27442D01*
G01X11331Y27442D01*
G37*
G36*
G01X23731Y28259D02*
G01X23731Y28457D01*
G01X23968Y28457D01*
G01X23968Y28259D01*
G01X23731Y28259D01*
G37*
G36*
G01X23731Y28042D02*
G01X23731Y28240D01*
G01X23968Y28240D01*
G01X23968Y28042D01*
G01X23731Y28042D01*
G37*
G36*
G01X17559Y22880D02*
G01X17559Y23119D01*
G01X17756Y23119D01*
G01X17756Y22880D01*
G01X17559Y22880D01*
G37*
G36*
G01X17343Y22880D02*
G01X17343Y23119D01*
G01X17540Y23119D01*
G01X17540Y22880D01*
G01X17343Y22880D01*
G37*
G54D99*
G01X18700Y29800D03*
G01X12700Y29800D03*
G01X45850Y39100D03*
G01X51850Y39100D03*
G36*
G01X25722Y7930D02*
G01X25722Y8869D01*
G01X26278Y8869D01*
G01X26278Y7930D01*
G01X25722Y7930D01*
G37*
G36*
G01X26722Y7930D02*
G01X26722Y8869D01*
G01X27278Y8869D01*
G01X27278Y7930D01*
G01X26722Y7930D01*
G37*
G36*
G01X27722Y7930D02*
G01X27722Y8869D01*
G01X28278Y8869D01*
G01X28278Y7930D01*
G01X27722Y7930D01*
G37*
G36*
G01X28722Y7930D02*
G01X28722Y8869D01*
G01X29278Y8869D01*
G01X29278Y7930D01*
G01X28722Y7930D01*
G37*
G36*
G01X29722Y7930D02*
G01X29722Y8869D01*
G01X30278Y8869D01*
G01X30278Y7930D01*
G01X29722Y7930D01*
G37*
G36*
G01X30722Y7930D02*
G01X30722Y8869D01*
G01X31278Y8869D01*
G01X31278Y7930D01*
G01X30722Y7930D01*
G37*
G36*
G01X31722Y7930D02*
G01X31722Y8869D01*
G01X32278Y8869D01*
G01X32278Y7930D01*
G01X31722Y7930D01*
G37*
G36*
G01X32722Y7930D02*
G01X32722Y8869D01*
G01X33279Y8869D01*
G01X33279Y7930D01*
G01X32722Y7930D01*
G37*
G36*
G01X33722Y7930D02*
G01X33722Y8869D01*
G01X34279Y8869D01*
G01X34279Y7930D01*
G01X33722Y7930D01*
G37*
G36*
G01X34722Y7930D02*
G01X34722Y8869D01*
G01X35279Y8869D01*
G01X35279Y7930D01*
G01X34722Y7930D01*
G37*
G36*
G01X35722Y7930D02*
G01X35722Y8869D01*
G01X36279Y8869D01*
G01X36279Y7930D01*
G01X35722Y7930D01*
G37*
G36*
G01X36722Y7930D02*
G01X36722Y8869D01*
G01X37279Y8869D01*
G01X37279Y7930D01*
G01X36722Y7930D01*
G37*
G36*
G01X37722Y7930D02*
G01X37722Y8869D01*
G01X38279Y8869D01*
G01X38279Y7930D01*
G01X37722Y7930D01*
G37*
G36*
G01X38722Y7930D02*
G01X38722Y8869D01*
G01X39279Y8869D01*
G01X39279Y7930D01*
G01X38722Y7930D01*
G37*
G36*
G01X38722Y10930D02*
G01X38722Y11869D01*
G01X39279Y11869D01*
G01X39279Y10930D01*
G01X38722Y10930D01*
G37*
G36*
G01X37722Y10930D02*
G01X37722Y11869D01*
G01X38279Y11869D01*
G01X38279Y10930D01*
G01X37722Y10930D01*
G37*
G36*
G01X36722Y10930D02*
G01X36722Y11869D01*
G01X37279Y11869D01*
G01X37279Y10930D01*
G01X36722Y10930D01*
G37*
G36*
G01X35722Y10930D02*
G01X35722Y11869D01*
G01X36279Y11869D01*
G01X36279Y10930D01*
G01X35722Y10930D01*
G37*
G36*
G01X34722Y10930D02*
G01X34722Y11869D01*
G01X35279Y11869D01*
G01X35279Y10930D01*
G01X34722Y10930D01*
G37*
G36*
G01X33722Y10930D02*
G01X33722Y11869D01*
G01X34279Y11869D01*
G01X34279Y10930D01*
G01X33722Y10930D01*
G37*
G36*
G01X32722Y10930D02*
G01X32722Y11869D01*
G01X33279Y11869D01*
G01X33279Y10930D01*
G01X32722Y10930D01*
G37*
G36*
G01X31722Y10930D02*
G01X31722Y11869D01*
G01X32278Y11869D01*
G01X32278Y10930D01*
G01X31722Y10930D01*
G37*
G36*
G01X30722Y10930D02*
G01X30722Y11869D01*
G01X31278Y11869D01*
G01X31278Y10930D01*
G01X30722Y10930D01*
G37*
G36*
G01X29722Y10930D02*
G01X29722Y11869D01*
G01X30278Y11869D01*
G01X30278Y10930D01*
G01X29722Y10930D01*
G37*
G36*
G01X28722Y10930D02*
G01X28722Y11869D01*
G01X29278Y11869D01*
G01X29278Y10930D01*
G01X28722Y10930D01*
G37*
G36*
G01X27722Y10930D02*
G01X27722Y11869D01*
G01X28278Y11869D01*
G01X28278Y10930D01*
G01X27722Y10930D01*
G37*
G36*
G01X26722Y10930D02*
G01X26722Y11869D01*
G01X27278Y11869D01*
G01X27278Y10930D01*
G01X26722Y10930D01*
G37*
G36*
G01X25722Y10930D02*
G01X25722Y11869D01*
G01X26278Y11869D01*
G01X26278Y10930D01*
G01X25722Y10930D01*
G37*
G36*
G01X2356Y28330D02*
G01X2356Y29769D01*
G01X3443Y29769D01*
G01X3443Y28330D01*
G01X2356Y28330D01*
G37*
G36*
G01X6006Y27778D02*
G01X6006Y28646D01*
G01X6793Y28646D01*
G01X6793Y27778D01*
G01X6006Y27778D01*
G37*
G36*
G01X6006Y29353D02*
G01X6006Y30221D01*
G01X6793Y30221D01*
G01X6793Y29353D01*
G01X6006Y29353D01*
G37*
G36*
G01X33305Y6015D02*
G01X33305Y6684D01*
G01X33975Y6684D01*
G01X33975Y6015D01*
G01X33305Y6015D01*
G37*
G54D84*
G01X35560Y6350D03*
G54D103*
G01X10022Y5150D03*
G01X15377Y5150D03*
G54D104*
G01X41600Y2080D03*
G01X41600Y2400D03*
G01X41600Y2719D03*
G01X46200Y3630D03*
G01X46200Y3950D03*
G01X46200Y4269D03*
G54D105*
G01X47450Y12146D03*
G01X47450Y9153D03*
G54D106*
G01X58750Y41325D03*
G01X58750Y25575D03*
G01X66950Y25575D03*
G01X66950Y41325D03*
G54D107*
G01X51975Y27188D03*
G01X51975Y31911D03*
G01X46425Y29550D03*
G54D108*
G01X47175Y27188D03*
G01X47175Y31911D03*
G54D107*
G01X51975Y19788D03*
G01X51975Y24511D03*
G01X46425Y22150D03*
G54D108*
G01X47175Y19788D03*
G01X47175Y24511D03*
G36*
G01X7446Y28284D02*
G01X7446Y31315D01*
G01X8392Y31315D01*
G01X8392Y28284D01*
G01X7446Y28284D01*
G37*
G36*
G01X9807Y28284D02*
G01X9807Y31315D01*
G01X10753Y31315D01*
G01X10753Y28284D01*
G01X9807Y28284D01*
G37*
G54D110*
G01X2506Y22750D03*
G01X3293Y22750D03*
G01X2506Y25050D03*
G01X3293Y25050D03*
G36*
G01X18847Y23942D02*
G01X18847Y24457D01*
G01X19322Y24457D01*
G01X19322Y23942D01*
G01X18847Y23942D01*
G37*
G36*
G01X19477Y23942D02*
G01X19477Y24457D01*
G01X19952Y24457D01*
G01X19952Y23942D01*
G01X19477Y23942D01*
G37*
G36*
G01X14956Y27503D02*
G01X14956Y28371D01*
G01X15743Y28371D01*
G01X15743Y27503D01*
G01X14956Y27503D01*
G37*
G36*
G01X14956Y25928D02*
G01X14956Y26796D01*
G01X15743Y26796D01*
G01X15743Y25928D01*
G01X14956Y25928D01*
G37*
G36*
G01X43606Y30153D02*
G01X43606Y31021D01*
G01X44393Y31021D01*
G01X44393Y30153D01*
G01X43606Y30153D01*
G37*
G36*
G01X43606Y28578D02*
G01X43606Y29446D01*
G01X44393Y29446D01*
G01X44393Y28578D01*
G01X43606Y28578D01*
G37*
G36*
G01X43856Y22253D02*
G01X43856Y23121D01*
G01X44643Y23121D01*
G01X44643Y22253D01*
G01X43856Y22253D01*
G37*
G36*
G01X43856Y20678D02*
G01X43856Y21546D01*
G01X44643Y21546D01*
G01X44643Y20678D01*
G01X43856Y20678D01*
G37*
G36*
G01X44659Y5430D02*
G01X44659Y5669D01*
G01X44856Y5669D01*
G01X44856Y5430D01*
G01X44659Y5430D01*
G37*
G36*
G01X44443Y5430D02*
G01X44443Y5669D01*
G01X44640Y5669D01*
G01X44640Y5430D01*
G01X44443Y5430D01*
G37*
G36*
G01X43506Y9378D02*
G01X43506Y10246D01*
G01X44293Y10246D01*
G01X44293Y9378D01*
G01X43506Y9378D01*
G37*
G36*
G01X43506Y10953D02*
G01X43506Y11821D01*
G01X44293Y11821D01*
G01X44293Y10953D01*
G01X43506Y10953D01*
G37*
G36*
G01X11731Y21592D02*
G01X11731Y21790D01*
G01X11968Y21790D01*
G01X11968Y21592D01*
G01X11731Y21592D01*
G37*
G36*
G01X11731Y21809D02*
G01X11731Y22007D01*
G01X11968Y22007D01*
G01X11968Y21809D01*
G01X11731Y21809D01*
G37*
G36*
G01X9628Y22405D02*
G01X9628Y23194D01*
G01X10496Y23194D01*
G01X10496Y22405D01*
G01X9628Y22405D01*
G37*
G36*
G01X11203Y22405D02*
G01X11203Y23194D01*
G01X12071Y23194D01*
G01X12071Y22405D01*
G01X11203Y22405D01*
G37*
G36*
G01X46754Y17355D02*
G01X46754Y18144D01*
G01X47621Y18144D01*
G01X47621Y17355D01*
G01X46754Y17355D01*
G37*
G36*
G01X45179Y17355D02*
G01X45179Y18144D01*
G01X46046Y18144D01*
G01X46046Y17355D01*
G01X45179Y17355D01*
G37*
G36*
G01X15903Y31405D02*
G01X15903Y32194D01*
G01X16771Y32194D01*
G01X16771Y31405D01*
G01X15903Y31405D01*
G37*
G36*
G01X14328Y31405D02*
G01X14328Y32194D01*
G01X15196Y32194D01*
G01X15196Y31405D01*
G01X14328Y31405D01*
G37*
G36*
G01X33756Y26628D02*
G01X33756Y27496D01*
G01X34543Y27496D01*
G01X34543Y26628D01*
G01X33756Y26628D01*
G37*
G36*
G01X33756Y28203D02*
G01X33756Y29071D01*
G01X34543Y29071D01*
G01X34543Y28203D01*
G01X33756Y28203D01*
G37*
G36*
G01X20206Y8328D02*
G01X20206Y9196D01*
G01X20993Y9196D01*
G01X20993Y8328D01*
G01X20206Y8328D01*
G37*
G36*
G01X20206Y9903D02*
G01X20206Y10771D01*
G01X20993Y10771D01*
G01X20993Y9903D01*
G01X20206Y9903D01*
G37*
M00*
M02*
