;Layer: Drill PTH
;EasyEDA v6.3.22, 2020-03-14T22:20:27--7:00
;457ca038791a4c03a2b045dd88f7922b,93ea2736136a419895ea0886014cbf9b,10
;Gerber Generator version 0.2
M48
INCH,LZ,00.0000
;Holesize 1 = 0.012 INCH
T01C0.012
;Holesize 2 = 0.028 INCH
T02C0.028
;Holesize 3 = 0.032 INCH
T03C0.032
;Holesize 4 = 0.032 INCH
T04C0.032
;Holesize 5 = 0.035 INCH
T05C0.035
;Holesize 6 = 0.039 INCH
T06C0.039
;Holesize 7 = 0.043 INCH
T07C0.043
;Holesize 8 = 0.044 INCH
T08C0.044
;Holesize 9 = 0.045 INCH
T09C0.045
;Holesize 10 = 0.047 INCH
T10C0.047
;Holesize 11 = 0.047 INCH
T11C0.047
;Holesize 12 = 0.051 INCH
T12C0.051
;Holesize 13 = 0.063 INCH
T13C0.063
;Holesize 14 = 0.095 INCH
T14C0.095
%
G05
G90
T01
X+016650Y+017850
X+040700Y+011100
X+018400Y+024500
X+017400Y+026600
X+024269Y+028900
X+024950Y+028900
X+026078Y+029903
X+026439Y+029901
X+025718Y+029905
X+025357Y+029906
X+026800Y+029900
X+022004Y+031900
X+022359Y+031900
X+022713Y+031900
X+023068Y+031900
X+023422Y+031900
X+023777Y+031900
X+024131Y+031900
X+024486Y+031900
X+024840Y+031900
X+025195Y+031900
X+025550Y+031900
X+021650Y+031900
X+022004Y+032250
X+022359Y+032250
X+022713Y+032250
X+023068Y+032250
X+023422Y+032250
X+023777Y+032250
X+024131Y+032250
X+024486Y+032250
X+024840Y+032250
X+025195Y+032250
X+025550Y+032250
X+021650Y+032250
X+022004Y+032600
X+022359Y+032600
X+022713Y+032600
X+023068Y+032600
X+023422Y+032600
X+023777Y+032600
X+024131Y+032600
X+024486Y+032600
X+024840Y+032600
X+025195Y+032600
X+025550Y+032600
X+021650Y+032600
X+022004Y+032950
X+022359Y+032950
X+022713Y+032950
X+023068Y+032950
X+023422Y+032950
X+023777Y+032950
X+024131Y+032950
X+024486Y+032950
X+024840Y+032950
X+025195Y+032950
X+025550Y+032950
X+021650Y+032950
X+022004Y+033300
X+022359Y+033300
X+022713Y+033300
X+023068Y+033300
X+023422Y+033300
X+023777Y+033300
X+024131Y+033300
X+024486Y+033300
X+024840Y+033300
X+025195Y+033300
X+025550Y+033300
X+021650Y+033300
X+022004Y+033650
X+022359Y+033650
X+022713Y+033650
X+023068Y+033650
X+023422Y+033650
X+023777Y+033650
X+024131Y+033650
X+024486Y+033650
X+024840Y+033650
X+025195Y+033650
X+025550Y+033650
X+021650Y+033650
X+022004Y+034000
X+022359Y+034000
X+022713Y+034000
X+023068Y+034000
X+023422Y+034000
X+023777Y+034000
X+024131Y+034000
X+024486Y+034000
X+024840Y+034000
X+025195Y+034000
X+025550Y+034000
X+021650Y+034000
X+022004Y+034350
X+022359Y+034350
X+022713Y+034350
X+023068Y+034350
X+023422Y+034350
X+023777Y+034350
X+024131Y+034350
X+024486Y+034350
X+024840Y+034350
X+025195Y+034350
X+025550Y+034350
X+021650Y+034350
X+022004Y+034700
X+022359Y+034700
X+022713Y+034700
X+023068Y+034700
X+023422Y+034700
X+023777Y+034700
X+024131Y+034700
X+024486Y+034700
X+024840Y+034700
X+025195Y+034700
X+025550Y+034700
X+021650Y+034700
X+022004Y+035050
X+022359Y+035050
X+022713Y+035050
X+023068Y+035050
X+023422Y+035050
X+023777Y+035050
X+024131Y+035050
X+024486Y+035050
X+024840Y+035050
X+025195Y+035050
X+025550Y+035050
X+021650Y+035050
X+003250Y+028500
X+002900Y+028500
X+002900Y+028850
X+003250Y+028850
X+003250Y+029200
X+002900Y+029200
X+002550Y+028500
X+002550Y+028850
X+002550Y+029200
X+002900Y+029550
X+003250Y+029550
X+002550Y+029550
X+036050Y+021500
X+036200Y+021150
X+034050Y+021700
X+030300Y+024650
X+031000Y+022750
X+031700Y+022100
X+030450Y+026550
X+031550Y+028400
X+034900Y+026312
X+036050Y+026750
X+031100Y+027600
X+041650Y+017150
X+034650Y+017150
X+032200Y+018800
X+034700Y+018450
X+038400Y+018400
X+036450Y+018400
X+059800Y+046500
X+056850Y+040250
X+039400Y+018550
X+041150Y+029617
X+028800Y+024000
X+037100Y+022650
X+012800Y+023250
X+013650Y+021700
X+015400Y+022600
X+010900Y+021200
X+011550Y+021400
X+012750Y+018050
X+013300Y+018050
X+015150Y+013650
X+016450Y+013650
X+016016Y+013650
X+015583Y+013650
X+016451Y+013163
X+014400Y+014050
X+018000Y+008150
X+018750Y+008100
X+020600Y+006650
X+020600Y+008090
X+020600Y+007610
X+020600Y+007130
X+032800Y+024650
X+038050Y+028650
X+047250Y+033350
X+051950Y+033350
X+060950Y+037250
X+062050Y+041450
X+029150Y+022200
X+020700Y+024850
X+018450Y+023300
X+018150Y+022950
X+015350Y+025200
X+006400Y+026250
X+006400Y+027568
X+006400Y+027153
X+006400Y+026723
X+011450Y+027150
X+005650Y+028250
X+003000Y+026750
X+002200Y+027350
X+028000Y+012800
X+025450Y+012800
X+024650Y+012150
X+023950Y+012500
X+010300Y+018050
X+019900Y+027500
X+005400Y+026150
X+004200Y+025750
X+005800Y+026450
X+042000Y+005900
X+044500Y+003850
X+046000Y+002800
X+016300Y+025100
X+013650Y+013750
X+024700Y+026350
X+017150Y+019950
X+042000Y+021700
X+033650Y+004250
X+035550Y+004250
X+044223Y+007150
X+030700Y+016500
X+034450Y+021750
X+034650Y+021050
X+023500Y+028000
T02
X+011950Y+007600
X+011950Y+008600
X+018800Y+011600
X+018800Y+012600
X+007500Y+033950
X+007500Y+032950
X+010850Y+033950
X+010850Y+032950
T03
X+034507Y+001400
X+035492Y+001400
X+036476Y+001400
X+037460Y+001400
X+038444Y+001400
X+033523Y+001400
X+032539Y+001400
X+031555Y+001400
X+029916Y+015531
X+030901Y+015531
X+028932Y+015531
X+027948Y+015531
X+063350Y+046500
X+062350Y+046500
X+002506Y+022750
X+003293Y+022750
X+002506Y+025050
X+003293Y+025050
T04
X+026000Y+008400
X+027000Y+008400
X+028000Y+008400
X+029000Y+008400
X+030000Y+008400
X+031000Y+008400
X+032000Y+008400
X+033000Y+008400
X+034000Y+008400
X+035000Y+008400
X+036000Y+008400
X+037000Y+008400
X+038000Y+008400
X+039000Y+008400
X+039000Y+011400
X+038000Y+011400
X+037000Y+011400
X+036000Y+011400
X+035000Y+011400
X+034000Y+011400
X+033000Y+011400
X+032000Y+011400
X+031000Y+011400
X+030000Y+011400
X+029000Y+011400
X+028000Y+011400
X+027000Y+011400
X+026000Y+011400
T05
X+033639Y+006350
X+035560Y+006350
T06
X+018700Y+029800
X+012700Y+029800
X+045850Y+039100
X+051850Y+039100
X+047175Y+027188
X+047175Y+031911
X+047175Y+019788
X+047175Y+024511
T07
X+013100Y+024749
X+011099Y+024750
X+009099Y+024750
X+007099Y+024750
T08
X+043000Y+002500
X+044000Y+002500
X+045000Y+002500
X+025300Y+003800
X+026300Y+003800
X+027300Y+003800
X+028300Y+003800
X+034000Y+015550
X+035000Y+015550
X+036000Y+015550
X+037000Y+015550
X+038000Y+015550
T09
X+053698Y+041300G85X+053701Y+041300
X+053698Y+040300G85X+053701Y+040300
X+053698Y+042300G85X+053701Y+042300
X+072001Y+041350G85X+071998Y+041350
X+072001Y+042350G85X+071998Y+042350
X+072001Y+040350G85X+071998Y+040350
T10
X+004300Y+011450
X+012300Y+011450
X+006300Y+011450
X+010300Y+011450
X+045050Y+036000
X+053050Y+036000
X+047050Y+036000
X+051050Y+036000
T11
X+047450Y+012146
X+047450Y+009153
T12
X+040200Y+035650
X+042200Y+035650
X+007100Y+006050
X+007100Y+008050
X+051975Y+027188
X+051975Y+031911
X+046425Y+029550
X+051975Y+019788
X+051975Y+024511
X+046425Y+022150
T13
X+010022Y+005150
X+015377Y+005150
T14
X+058750Y+041325
X+058750Y+025575
X+066950Y+025575
X+066950Y+041325
M30
