G04 Layer: TopSilkLayer*
G04 EasyEDA v6.3.22, 2020-03-14T22:20:27--7:00*
G04 457ca038791a4c03a2b045dd88f7922b,93ea2736136a419895ea0886014cbf9b,10*
G04 Gerber Generator version 0.2*
G04 Scale: 100 percent, Rotated: No, Reflected: No *
G04 Dimensions in inches *
G04 leading zeros omitted , absolute positions ,2 integer and 4 decimal *
%FSLAX24Y24*%
%MOIN*%
G90*
G70D02*

%ADD10C,0.010000*%
%ADD62C,0.003937*%
%ADD63C,0.005000*%
%ADD64C,0.005906*%
%ADD65C,0.007874*%
%ADD66C,0.005905*%
%ADD67C,0.011811*%
%ADD68C,0.015748*%
%ADD69C,0.006000*%
%ADD70C,0.008000*%

%LPD*%
G54D10*
G01X39389Y474D02*
G01X30610Y474D01*
G01X39389Y2738D02*
G01X30610Y2738D01*
G01X30610Y2738D02*
G01X30610Y474D01*
G01X39389Y2738D02*
G01X39389Y474D01*
G01X16573Y11029D02*
G01X16573Y11540D01*
G01X16376Y11540D01*
G01X16376Y11029D01*
G01X14714Y11027D02*
G01X14714Y11539D01*
G01X14517Y11539D01*
G01X14517Y11027D01*
G01X16956Y7899D02*
G01X16956Y11029D01*
G01X14143Y11029D01*
G01X14143Y7899D01*
G01X16956Y7899D01*
G54D62*
G01X33500Y4639D02*
G01X33500Y4796D01*
G01X33531Y4836D02*
G01X33768Y4836D01*
G01X33799Y4639D02*
G01X33799Y4796D01*
G01X33799Y4403D02*
G01X33799Y4560D01*
G01X33500Y4403D02*
G01X33500Y4560D01*
G01X33531Y4363D02*
G01X33768Y4363D01*
G01X33500Y4804D02*
G01X33500Y4796D01*
G01X33799Y4804D02*
G01X33799Y4796D01*
G01X33500Y4395D02*
G01X33500Y4403D01*
G01X33799Y4395D02*
G01X33799Y4403D01*
G01X35400Y4639D02*
G01X35400Y4796D01*
G01X35431Y4836D02*
G01X35668Y4836D01*
G01X35699Y4639D02*
G01X35699Y4796D01*
G01X35699Y4403D02*
G01X35699Y4560D01*
G01X35400Y4403D02*
G01X35400Y4560D01*
G01X35431Y4363D02*
G01X35668Y4363D01*
G01X35400Y4804D02*
G01X35400Y4796D01*
G01X35699Y4804D02*
G01X35699Y4796D01*
G01X35400Y4395D02*
G01X35400Y4403D01*
G01X35699Y4395D02*
G01X35699Y4403D01*
G54D63*
G01X18900Y8909D02*
G01X18900Y8590D01*
G01X18600Y8590D02*
G01X18600Y8909D01*
G54D62*
G01X18800Y9100D02*
G01X18700Y9100D01*
G54D10*
G01X35300Y21500D02*
G01X35300Y20400D01*
G01X35300Y20400D02*
G01X34200Y20400D01*
G01X34200Y20400D02*
G01X34200Y21500D01*
G01X34200Y21500D02*
G01X35300Y21500D01*
G01X34550Y21259D02*
G01X34319Y21259D01*
G01X3800Y10699D02*
G01X3800Y12199D01*
G01X4550Y12449D02*
G01X4550Y12949D01*
G01X4550Y12949D02*
G01X6050Y12949D01*
G01X6050Y12449D02*
G01X6050Y12949D01*
G01X4550Y10449D02*
G01X4550Y9949D01*
G01X6050Y9949D02*
G01X4550Y9949D01*
G01X6050Y9949D02*
G01X6050Y10449D01*
G01X6800Y12199D02*
G01X3800Y12199D01*
G01X6800Y12199D02*
G01X6800Y12049D01*
G01X6800Y10699D02*
G01X3800Y10699D01*
G01X9800Y10699D02*
G01X9800Y10849D01*
G01X10550Y12449D02*
G01X10550Y12949D01*
G01X10550Y12949D02*
G01X12050Y12949D01*
G01X12050Y12449D02*
G01X12050Y12949D01*
G01X10550Y10449D02*
G01X10550Y9949D01*
G01X12050Y9949D02*
G01X10550Y9949D01*
G01X12050Y9949D02*
G01X12050Y10449D01*
G01X12800Y12199D02*
G01X9800Y12199D01*
G01X12800Y12199D02*
G01X12800Y10699D01*
G01X12800Y10699D02*
G01X9800Y10699D01*
G01X6550Y12549D02*
G01X10050Y12549D01*
G01X6550Y10349D02*
G01X10050Y10349D01*
G01X6800Y12049D02*
G01X9800Y10849D01*
G01X6800Y12049D02*
G01X6800Y10699D01*
G01X9800Y10849D02*
G01X9800Y12199D01*
G01X44550Y35249D02*
G01X44550Y36749D01*
G01X45300Y36999D02*
G01X45300Y37499D01*
G01X45300Y37499D02*
G01X46800Y37499D01*
G01X46800Y36999D02*
G01X46800Y37499D01*
G01X45300Y34999D02*
G01X45300Y34499D01*
G01X46800Y34499D02*
G01X45300Y34499D01*
G01X46800Y34499D02*
G01X46800Y34999D01*
G01X47550Y36749D02*
G01X44550Y36749D01*
G01X47550Y36749D02*
G01X47550Y36599D01*
G01X47550Y35249D02*
G01X44550Y35249D01*
G01X50550Y35249D02*
G01X50550Y35399D01*
G01X51300Y36999D02*
G01X51300Y37499D01*
G01X51300Y37499D02*
G01X52800Y37499D01*
G01X52800Y36999D02*
G01X52800Y37499D01*
G01X51300Y34999D02*
G01X51300Y34499D01*
G01X52800Y34499D02*
G01X51300Y34499D01*
G01X52800Y34499D02*
G01X52800Y34999D01*
G01X53550Y36749D02*
G01X50550Y36749D01*
G01X53550Y36749D02*
G01X53550Y35249D01*
G01X53550Y35249D02*
G01X50550Y35249D01*
G01X47300Y37099D02*
G01X50800Y37099D01*
G01X47300Y34899D02*
G01X50800Y34899D01*
G01X47550Y36599D02*
G01X50550Y35399D01*
G01X47550Y36599D02*
G01X47550Y35249D01*
G01X50550Y35399D02*
G01X50550Y36749D01*
G01X11450Y7850D02*
G01X11450Y7350D01*
G01X18300Y11850D02*
G01X18300Y11350D01*
G01X8000Y33700D02*
G01X8000Y34200D01*
G01X11350Y33700D02*
G01X11350Y34200D01*
G01X14100Y25849D02*
G01X6100Y25849D01*
G01X6110Y23639D02*
G01X13984Y23639D01*
G01X14100Y23647D02*
G01X14100Y25851D01*
G01X6100Y23647D02*
G01X6100Y25851D01*
G01X14090Y25329D02*
G01X13590Y25829D01*
G01X42500Y2750D02*
G01X42500Y2250D01*
G01X45500Y2750D02*
G01X45500Y2250D01*
G01X27672Y16319D02*
G01X27672Y16083D01*
G01X31176Y16319D02*
G01X31176Y16083D01*
G01X28224Y16319D02*
G01X28224Y16083D01*
G01X26984Y15807D02*
G01X27180Y15807D01*
G01X26984Y15964D02*
G01X27180Y15965D01*
G01X26924Y16358D02*
G01X31885Y16358D01*
G01X31885Y14035D01*
G01X26924Y14035D01*
G01X26924Y16358D01*
G01X27200Y16083D02*
G01X31609Y16083D01*
G01X31609Y14311D01*
G01X27200Y14311D01*
G01X27200Y16083D01*
G01X31629Y15807D02*
G01X31826Y15807D01*
G01X31629Y15964D02*
G01X31826Y15965D01*
G01X30625Y16319D02*
G01X30625Y16083D01*
G01X24800Y4050D02*
G01X24800Y3550D01*
G01X28800Y4050D02*
G01X28800Y3550D01*
G01X33500Y15800D02*
G01X33500Y15300D01*
G01X38500Y15800D02*
G01X38500Y15300D01*
G01X62200Y46696D02*
G01X61998Y46696D01*
G01X61988Y46706D01*
G01X62200Y46303D02*
G01X61997Y46303D01*
G01X61988Y46294D01*
G01X63500Y46696D02*
G01X63674Y46696D01*
G01X63705Y46728D01*
G01X63500Y46303D02*
G01X63695Y46303D01*
G01X63710Y46288D01*
G01X62692Y46100D02*
G01X62692Y46903D01*
G01X62692Y46903D01*
G01X63007Y46900D02*
G01X63007Y46097D01*
G01X63007Y46097D01*
G01X12280Y21880D02*
G01X12239Y21880D01*
G01X12239Y22519D01*
G01X12280Y22519D01*
G01X13319Y22519D02*
G01X13360Y22519D01*
G01X13360Y21880D01*
G01X13319Y21880D01*
G01X31919Y26030D02*
G01X31919Y25990D01*
G01X31280Y25990D01*
G01X31280Y26030D01*
G01X31280Y27069D02*
G01X31280Y27109D01*
G01X31919Y27109D01*
G01X31919Y27069D01*
G01X23439Y8164D02*
G01X23439Y7535D01*
G01X24168Y7537D02*
G01X24660Y7537D01*
G01X24168Y8166D02*
G01X24660Y8166D01*
G01X23931Y7535D02*
G01X23439Y7535D01*
G01X23931Y8164D02*
G01X23439Y8164D01*
G01X24660Y8166D02*
G01X24660Y7537D01*
G01X51739Y42614D02*
G01X51739Y41985D01*
G01X52468Y41987D02*
G01X52960Y41987D01*
G01X52468Y42616D02*
G01X52960Y42616D01*
G01X52231Y41985D02*
G01X51739Y41985D01*
G01X52231Y42614D02*
G01X51739Y42614D01*
G01X52960Y42616D02*
G01X52960Y41987D01*
G01X23439Y10614D02*
G01X23439Y9985D01*
G01X24168Y9987D02*
G01X24660Y9987D01*
G01X24168Y10616D02*
G01X24660Y10616D01*
G01X23931Y9985D02*
G01X23439Y9985D01*
G01X23931Y10614D02*
G01X23439Y10614D01*
G01X24660Y10616D02*
G01X24660Y9987D01*
G01X23439Y11664D02*
G01X23439Y11035D01*
G01X24168Y11037D02*
G01X24660Y11037D01*
G01X24168Y11666D02*
G01X24660Y11666D01*
G01X23931Y11035D02*
G01X23439Y11035D01*
G01X23931Y11664D02*
G01X23439Y11664D01*
G01X24660Y11666D02*
G01X24660Y11037D01*
G01X39789Y31314D02*
G01X39789Y30685D01*
G01X40518Y30687D02*
G01X41010Y30687D01*
G01X40518Y31316D02*
G01X41010Y31316D01*
G01X40281Y30685D02*
G01X39789Y30685D01*
G01X40281Y31314D02*
G01X39789Y31314D01*
G01X41010Y31316D02*
G01X41010Y30687D01*
G01X31989Y22414D02*
G01X31989Y21785D01*
G01X32718Y21787D02*
G01X33210Y21787D01*
G01X32718Y22416D02*
G01X33210Y22416D01*
G01X32481Y21785D02*
G01X31989Y21785D01*
G01X32481Y22414D02*
G01X31989Y22414D01*
G01X33210Y22416D02*
G01X33210Y21787D01*
G01X31864Y19810D02*
G01X31235Y19810D01*
G01X31237Y19081D02*
G01X31237Y18589D01*
G01X31866Y19081D02*
G01X31866Y18589D01*
G01X31235Y19318D02*
G01X31235Y19810D01*
G01X31864Y19318D02*
G01X31864Y19810D01*
G01X31866Y18589D02*
G01X31237Y18589D01*
G01X18964Y28160D02*
G01X18335Y28160D01*
G01X18337Y27431D02*
G01X18337Y26939D01*
G01X18966Y27431D02*
G01X18966Y26939D01*
G01X18335Y27668D02*
G01X18335Y28160D01*
G01X18964Y27668D02*
G01X18964Y28160D01*
G01X18966Y26939D02*
G01X18337Y26939D01*
G01X12435Y26939D02*
G01X13064Y26939D01*
G01X13062Y27668D02*
G01X13062Y28160D01*
G01X12433Y27668D02*
G01X12433Y28160D01*
G01X13064Y27431D02*
G01X13064Y26939D01*
G01X12435Y27431D02*
G01X12435Y26939D01*
G01X12433Y28160D02*
G01X13062Y28160D01*
G01X14560Y27585D02*
G01X14560Y28214D01*
G01X13831Y28212D02*
G01X13339Y28212D01*
G01X13831Y27583D02*
G01X13339Y27583D01*
G01X14068Y28214D02*
G01X14560Y28214D01*
G01X14068Y27585D02*
G01X14560Y27585D01*
G01X13339Y27583D02*
G01X13339Y28212D01*
G01X16589Y27514D02*
G01X16589Y26885D01*
G01X17318Y26887D02*
G01X17810Y26887D01*
G01X17318Y27516D02*
G01X17810Y27516D01*
G01X17081Y26885D02*
G01X16589Y26885D01*
G01X17081Y27514D02*
G01X16589Y27514D01*
G01X17810Y27516D02*
G01X17810Y26887D01*
G01X40989Y8314D02*
G01X40989Y7685D01*
G01X41718Y7687D02*
G01X42210Y7687D01*
G01X41718Y8316D02*
G01X42210Y8316D01*
G01X41481Y7685D02*
G01X40989Y7685D01*
G01X41481Y8314D02*
G01X40989Y8314D01*
G01X42210Y8316D02*
G01X42210Y7687D01*
G01X25610Y27285D02*
G01X25610Y27914D01*
G01X24881Y27912D02*
G01X24389Y27912D01*
G01X24881Y27283D02*
G01X24389Y27283D01*
G01X25118Y27914D02*
G01X25610Y27914D01*
G01X25118Y27285D02*
G01X25610Y27285D01*
G01X24389Y27283D02*
G01X24389Y27912D01*
G01X37764Y22010D02*
G01X37135Y22010D01*
G01X37137Y21281D02*
G01X37137Y20789D01*
G01X37766Y21281D02*
G01X37766Y20789D01*
G01X37135Y21518D02*
G01X37135Y22010D01*
G01X37764Y21518D02*
G01X37764Y22010D01*
G01X37766Y20789D02*
G01X37137Y20789D01*
G01X20789Y26114D02*
G01X20789Y25485D01*
G01X21518Y25487D02*
G01X22010Y25487D01*
G01X21518Y26116D02*
G01X22010Y26116D01*
G01X21281Y25485D02*
G01X20789Y25485D01*
G01X21281Y26114D02*
G01X20789Y26114D01*
G01X22010Y26116D02*
G01X22010Y25487D01*
G01X60339Y46814D02*
G01X60339Y46185D01*
G01X61068Y46187D02*
G01X61560Y46187D01*
G01X61068Y46816D02*
G01X61560Y46816D01*
G01X60831Y46185D02*
G01X60339Y46185D01*
G01X60831Y46814D02*
G01X60339Y46814D01*
G01X61560Y46816D02*
G01X61560Y46187D01*
G54D64*
G01X72726Y40113D02*
G01X72726Y40586D01*
G01X73029Y40113D02*
G01X72726Y40113D01*
G01X73474Y40113D02*
G01X73474Y40586D01*
G01X73170Y40113D02*
G01X73474Y40113D01*
G01X73170Y40586D02*
G01X73474Y40586D01*
G01X73029Y40586D02*
G01X72726Y40586D01*
G54D10*
G01X32489Y17714D02*
G01X32489Y17085D01*
G01X33218Y17087D02*
G01X33710Y17087D01*
G01X33218Y17716D02*
G01X33710Y17716D01*
G01X32981Y17085D02*
G01X32489Y17085D01*
G01X32981Y17714D02*
G01X32489Y17714D01*
G01X33710Y17716D02*
G01X33710Y17087D01*
G01X27439Y23064D02*
G01X27439Y22435D01*
G01X28168Y22437D02*
G01X28660Y22437D01*
G01X28168Y23066D02*
G01X28660Y23066D01*
G01X27931Y22435D02*
G01X27439Y22435D01*
G01X27931Y23064D02*
G01X27439Y23064D01*
G01X28660Y23066D02*
G01X28660Y22437D01*
G01X29539Y23064D02*
G01X29539Y22435D01*
G01X30268Y22437D02*
G01X30760Y22437D01*
G01X30268Y23066D02*
G01X30760Y23066D01*
G01X30031Y22435D02*
G01X29539Y22435D01*
G01X30031Y23064D02*
G01X29539Y23064D01*
G01X30760Y23066D02*
G01X30760Y22437D01*
G01X32235Y20239D02*
G01X32864Y20239D01*
G01X32862Y20968D02*
G01X32862Y21460D01*
G01X32233Y20968D02*
G01X32233Y21460D01*
G01X32864Y20731D02*
G01X32864Y20239D01*
G01X32235Y20731D02*
G01X32235Y20239D01*
G01X32233Y21460D02*
G01X32862Y21460D01*
G01X72789Y41414D02*
G01X72789Y40785D01*
G01X73518Y40787D02*
G01X74010Y40787D01*
G01X73518Y41416D02*
G01X74010Y41416D01*
G01X73281Y40785D02*
G01X72789Y40785D01*
G01X73281Y41414D02*
G01X72789Y41414D01*
G01X74010Y41416D02*
G01X74010Y40787D01*
G01X52960Y41235D02*
G01X52960Y41864D01*
G01X52231Y41862D02*
G01X51739Y41862D01*
G01X52231Y41233D02*
G01X51739Y41233D01*
G01X52468Y41864D02*
G01X52960Y41864D01*
G01X52468Y41235D02*
G01X52960Y41235D01*
G01X51739Y41233D02*
G01X51739Y41862D01*
G01X35110Y22135D02*
G01X35110Y22764D01*
G01X34381Y22762D02*
G01X33889Y22762D01*
G01X34381Y22133D02*
G01X33889Y22133D01*
G01X34618Y22764D02*
G01X35110Y22764D01*
G01X34618Y22135D02*
G01X35110Y22135D01*
G01X33889Y22133D02*
G01X33889Y22762D01*
G01X4835Y26989D02*
G01X5464Y26989D01*
G01X5462Y27718D02*
G01X5462Y28210D01*
G01X4833Y27718D02*
G01X4833Y28210D01*
G01X5464Y27481D02*
G01X5464Y26989D01*
G01X4835Y27481D02*
G01X4835Y26989D01*
G01X4833Y28210D02*
G01X5462Y28210D01*
G01X23214Y28510D02*
G01X22585Y28510D01*
G01X22587Y27781D02*
G01X22587Y27289D01*
G01X23216Y27781D02*
G01X23216Y27289D01*
G01X22585Y28018D02*
G01X22585Y28510D01*
G01X23214Y28018D02*
G01X23214Y28510D01*
G01X23216Y27289D02*
G01X22587Y27289D01*
G01X15985Y21189D02*
G01X16614Y21189D01*
G01X16612Y21918D02*
G01X16612Y22410D01*
G01X15983Y21918D02*
G01X15983Y22410D01*
G01X16614Y21681D02*
G01X16614Y21189D01*
G01X15985Y21681D02*
G01X15985Y21189D01*
G01X15983Y22410D02*
G01X16612Y22410D01*
G01X36364Y28460D02*
G01X35735Y28460D01*
G01X35737Y27731D02*
G01X35737Y27239D01*
G01X36366Y27731D02*
G01X36366Y27239D01*
G01X35735Y27968D02*
G01X35735Y28460D01*
G01X36364Y27968D02*
G01X36364Y28460D01*
G01X36366Y27239D02*
G01X35737Y27239D01*
G01X21960Y27235D02*
G01X21960Y27864D01*
G01X21231Y27862D02*
G01X20739Y27862D01*
G01X21231Y27233D02*
G01X20739Y27233D01*
G01X21468Y27864D02*
G01X21960Y27864D01*
G01X21468Y27235D02*
G01X21960Y27235D01*
G01X20739Y27233D02*
G01X20739Y27862D01*
G01X4514Y27510D02*
G01X3885Y27510D01*
G01X3887Y26781D02*
G01X3887Y26289D01*
G01X4516Y26781D02*
G01X4516Y26289D01*
G01X3885Y27018D02*
G01X3885Y27510D01*
G01X4514Y27018D02*
G01X4514Y27510D01*
G01X4516Y26289D02*
G01X3887Y26289D01*
G01X28489Y28664D02*
G01X28489Y28035D01*
G01X29218Y28037D02*
G01X29710Y28037D01*
G01X29218Y28666D02*
G01X29710Y28666D01*
G01X28981Y28035D02*
G01X28489Y28035D01*
G01X28981Y28664D02*
G01X28489Y28664D01*
G01X29710Y28666D02*
G01X29710Y28037D01*
G01X30039Y28714D02*
G01X30039Y28085D01*
G01X30768Y28087D02*
G01X31260Y28087D01*
G01X30768Y28716D02*
G01X31260Y28716D01*
G01X30531Y28085D02*
G01X30039Y28085D01*
G01X30531Y28714D02*
G01X30039Y28714D01*
G01X31260Y28716D02*
G01X31260Y28087D01*
G01X20010Y25487D02*
G01X20010Y26117D01*
G01X19281Y26114D02*
G01X18789Y26114D01*
G01X19281Y25485D02*
G01X18789Y25485D01*
G01X19518Y26117D02*
G01X20010Y26117D01*
G01X19518Y25487D02*
G01X20010Y25487D01*
G01X18789Y25485D02*
G01X18789Y26114D01*
G01X27185Y27439D02*
G01X27814Y27439D01*
G01X27812Y28168D02*
G01X27812Y28660D01*
G01X27183Y28168D02*
G01X27183Y28660D01*
G01X27814Y27931D02*
G01X27814Y27439D01*
G01X27185Y27931D02*
G01X27185Y27439D01*
G01X27183Y28660D02*
G01X27812Y28660D01*
G01X38914Y20960D02*
G01X38285Y20960D01*
G01X38287Y20231D02*
G01X38287Y19739D01*
G01X38916Y20231D02*
G01X38916Y19739D01*
G01X38285Y20468D02*
G01X38285Y20960D01*
G01X38914Y20468D02*
G01X38914Y20960D01*
G01X38916Y19739D02*
G01X38287Y19739D01*
G01X22885Y12189D02*
G01X23514Y12189D01*
G01X23512Y12918D02*
G01X23512Y13410D01*
G01X22883Y12918D02*
G01X22883Y13410D01*
G01X23514Y12681D02*
G01X23514Y12189D01*
G01X22885Y12681D02*
G01X22885Y12189D01*
G01X22883Y13410D02*
G01X23512Y13410D01*
G01X23510Y14085D02*
G01X23510Y14714D01*
G01X22781Y14712D02*
G01X22289Y14712D01*
G01X22781Y14083D02*
G01X22289Y14083D01*
G01X23018Y14714D02*
G01X23510Y14714D01*
G01X23018Y14085D02*
G01X23510Y14085D01*
G01X22289Y14083D02*
G01X22289Y14712D01*
G01X10614Y19810D02*
G01X9985Y19810D01*
G01X9987Y19081D02*
G01X9987Y18589D01*
G01X10616Y19081D02*
G01X10616Y18589D01*
G01X9985Y19318D02*
G01X9985Y19810D01*
G01X10614Y19318D02*
G01X10614Y19810D01*
G01X10616Y18589D02*
G01X9987Y18589D01*
G01X42960Y4435D02*
G01X42960Y5064D01*
G01X42231Y5062D02*
G01X41739Y5062D01*
G01X42231Y4433D02*
G01X41739Y4433D01*
G01X42468Y5064D02*
G01X42960Y5064D01*
G01X42468Y4435D02*
G01X42960Y4435D01*
G01X41739Y4433D02*
G01X41739Y5062D01*
G01X47889Y18064D02*
G01X47889Y17435D01*
G01X48618Y17437D02*
G01X49110Y17437D01*
G01X48618Y18066D02*
G01X49110Y18066D01*
G01X48381Y17435D02*
G01X47889Y17435D01*
G01X48381Y18064D02*
G01X47889Y18064D01*
G01X49110Y18066D02*
G01X49110Y17437D01*
G01X41039Y24314D02*
G01X41039Y23685D01*
G01X41768Y23687D02*
G01X42260Y23687D01*
G01X41768Y24316D02*
G01X42260Y24316D01*
G01X41531Y23685D02*
G01X41039Y23685D01*
G01X41531Y24314D02*
G01X41039Y24314D01*
G01X42260Y24316D02*
G01X42260Y23687D01*
G01X32850Y19219D02*
G01X33010Y18990D01*
G01X33010Y18990D02*
G01X32689Y18990D01*
G01X32689Y18990D02*
G01X32850Y19219D01*
G01X33243Y19740D02*
G01X33243Y18559D01*
G01X32456Y18559D02*
G01X32456Y19740D01*
G01X33050Y19309D02*
G01X32650Y19309D01*
G01X37500Y19169D02*
G01X37660Y18940D01*
G01X37660Y18940D02*
G01X37339Y18940D01*
G01X37339Y18940D02*
G01X37500Y19169D01*
G01X37893Y19690D02*
G01X37893Y18509D01*
G01X37106Y18509D02*
G01X37106Y19690D01*
G01X37700Y19259D02*
G01X37300Y19259D01*
G01X33900Y19219D02*
G01X34060Y18990D01*
G01X34060Y18990D02*
G01X33739Y18990D01*
G01X33739Y18990D02*
G01X33900Y19219D01*
G01X34293Y19740D02*
G01X34293Y18559D01*
G01X33506Y18559D02*
G01X33506Y19740D01*
G01X34100Y19309D02*
G01X33700Y19309D01*
G01X36450Y20069D02*
G01X36610Y19840D01*
G01X36610Y19840D02*
G01X36289Y19840D01*
G01X36289Y19840D02*
G01X36450Y20069D01*
G01X36843Y20590D02*
G01X36843Y19409D01*
G01X36056Y19409D02*
G01X36056Y20590D01*
G01X36650Y20159D02*
G01X36250Y20159D01*
G01X24650Y13469D02*
G01X24810Y13240D01*
G01X24810Y13240D02*
G01X24489Y13240D01*
G01X24489Y13240D02*
G01X24650Y13469D01*
G01X25043Y13990D02*
G01X25043Y12809D01*
G01X24256Y12809D02*
G01X24256Y13990D01*
G01X24850Y13559D02*
G01X24450Y13559D01*
G01X42505Y30285D02*
G01X42505Y30025D01*
G01X42505Y30285D01*
G01X42505Y30025D01*
G01X42185Y30025D01*
G01X42185Y31174D02*
G01X42505Y31174D01*
G01X42505Y30914D01*
G54D65*
G01X41895Y30718D02*
G01X41895Y30481D01*
G54D10*
G01X44164Y8655D02*
G01X44424Y8655D01*
G01X44164Y8655D01*
G01X44424Y8655D01*
G01X44424Y8334D01*
G01X43275Y8334D02*
G01X43275Y8655D01*
G01X43535Y8655D01*
G54D65*
G01X43731Y8045D02*
G01X43968Y8045D01*
G54D10*
G01X23244Y26264D02*
G01X23244Y26524D01*
G01X23244Y26264D01*
G01X23244Y26524D01*
G01X23564Y26524D01*
G01X23564Y25375D02*
G01X23244Y25375D01*
G01X23244Y25635D01*
G54D65*
G01X23854Y25831D02*
G01X23854Y26068D01*
G54D10*
G01X14644Y22014D02*
G01X14644Y22274D01*
G01X14644Y22014D01*
G01X14644Y22274D01*
G01X14964Y22274D01*
G01X14964Y21125D02*
G01X14644Y21125D01*
G01X14644Y21385D01*
G54D65*
G01X15254Y21581D02*
G01X15254Y21818D01*
G54D10*
G01X9544Y21114D02*
G01X9544Y21374D01*
G01X9544Y21114D01*
G01X9544Y21374D01*
G01X9864Y21374D01*
G01X9864Y20225D02*
G01X9544Y20225D01*
G01X9544Y20485D01*
G54D65*
G01X10154Y20681D02*
G01X10154Y20918D01*
G54D10*
G01X44555Y4085D02*
G01X44555Y3825D01*
G01X44555Y4085D01*
G01X44555Y3825D01*
G01X44235Y3825D01*
G01X44235Y4974D02*
G01X44555Y4974D01*
G01X44555Y4714D01*
G54D65*
G01X43945Y4518D02*
G01X43945Y4281D01*
G54D10*
G01X42755Y22485D02*
G01X42755Y22225D01*
G01X42755Y22485D01*
G01X42755Y22225D01*
G01X42435Y22225D01*
G01X42435Y23374D02*
G01X42755Y23374D01*
G01X42755Y23114D01*
G54D65*
G01X42145Y22918D02*
G01X42145Y22681D01*
G54D10*
G01X43130Y38259D02*
G01X42870Y37680D01*
G01X42870Y37680D02*
G01X43390Y37680D01*
G01X43390Y37680D02*
G01X43130Y38259D01*
G01X43700Y34569D02*
G01X38700Y34569D01*
G01X43700Y37119D02*
G01X38700Y37119D01*
G01X43700Y33780D02*
G01X38700Y33780D01*
G01X38700Y33780D02*
G01X38700Y38700D01*
G01X38700Y38700D02*
G01X43700Y38700D01*
G01X43700Y38700D02*
G01X43700Y33780D01*
G01X4489Y8980D02*
G01X5069Y8720D01*
G01X5069Y8720D02*
G01X5069Y9240D01*
G01X5069Y9240D02*
G01X4489Y8980D01*
G01X8180Y9550D02*
G01X8180Y4550D01*
G01X5630Y9550D02*
G01X5630Y4550D01*
G01X8969Y9550D02*
G01X8969Y4550D01*
G01X8969Y4550D02*
G01X4050Y4550D01*
G01X4050Y4550D02*
G01X4050Y9550D01*
G01X4050Y9550D02*
G01X8969Y9550D01*
G01X25765Y34594D02*
G01X25765Y30854D01*
G01X21434Y34594D02*
G01X21434Y30854D01*
G01X21434Y30854D02*
G01X25765Y30854D01*
G54D62*
G01X14549Y13560D02*
G01X14549Y13403D01*
G01X14518Y13363D02*
G01X14281Y13363D01*
G01X14250Y13560D02*
G01X14250Y13403D01*
G01X14250Y13796D02*
G01X14250Y13639D01*
G01X14549Y13796D02*
G01X14549Y13639D01*
G01X14518Y13836D02*
G01X14281Y13836D01*
G01X14549Y13395D02*
G01X14549Y13403D01*
G01X14250Y13395D02*
G01X14250Y13403D01*
G01X14549Y13804D02*
G01X14549Y13796D01*
G01X14250Y13804D02*
G01X14250Y13796D01*
G01X17850Y8789D02*
G01X17850Y8946D01*
G01X17881Y8986D02*
G01X18118Y8986D01*
G01X18149Y8789D02*
G01X18149Y8946D01*
G01X18149Y8553D02*
G01X18149Y8710D01*
G01X17850Y8553D02*
G01X17850Y8710D01*
G01X17881Y8513D02*
G01X18118Y8513D01*
G01X17850Y8954D02*
G01X17850Y8946D01*
G01X18149Y8954D02*
G01X18149Y8946D01*
G01X17850Y8545D02*
G01X17850Y8553D01*
G01X18149Y8545D02*
G01X18149Y8553D01*
G01X34989Y21899D02*
G01X35146Y21899D01*
G01X35186Y21868D02*
G01X35186Y21631D01*
G01X34989Y21600D02*
G01X35146Y21600D01*
G01X34753Y21600D02*
G01X34910Y21600D01*
G01X34753Y21899D02*
G01X34910Y21899D01*
G01X34713Y21868D02*
G01X34713Y21631D01*
G01X35154Y21899D02*
G01X35146Y21899D01*
G01X35154Y21600D02*
G01X35146Y21600D01*
G01X34745Y21899D02*
G01X34753Y21899D01*
G01X34745Y21600D02*
G01X34753Y21600D01*
G01X31689Y27599D02*
G01X31846Y27599D01*
G01X31886Y27568D02*
G01X31886Y27331D01*
G01X31689Y27300D02*
G01X31846Y27300D01*
G01X31453Y27300D02*
G01X31610Y27300D01*
G01X31453Y27599D02*
G01X31610Y27599D01*
G01X31413Y27568D02*
G01X31413Y27331D01*
G01X31854Y27599D02*
G01X31846Y27599D01*
G01X31854Y27300D02*
G01X31846Y27300D01*
G01X31445Y27599D02*
G01X31453Y27599D01*
G01X31445Y27300D02*
G01X31453Y27300D01*
G01X42799Y10410D02*
G01X42799Y10253D01*
G01X42768Y10213D02*
G01X42531Y10213D01*
G01X42500Y10410D02*
G01X42500Y10253D01*
G01X42500Y10646D02*
G01X42500Y10489D01*
G01X42799Y10646D02*
G01X42799Y10489D01*
G01X42768Y10686D02*
G01X42531Y10686D01*
G01X42799Y10245D02*
G01X42799Y10253D01*
G01X42500Y10245D02*
G01X42500Y10253D01*
G01X42799Y10654D02*
G01X42799Y10646D01*
G01X42500Y10654D02*
G01X42500Y10646D01*
G01X30839Y17049D02*
G01X30996Y17049D01*
G01X31036Y17018D02*
G01X31036Y16781D01*
G01X30839Y16750D02*
G01X30996Y16750D01*
G01X30603Y16750D02*
G01X30760Y16750D01*
G01X30603Y17049D02*
G01X30760Y17049D01*
G01X30563Y17018D02*
G01X30563Y16781D01*
G01X31004Y17049D02*
G01X30996Y17049D01*
G01X31004Y16750D02*
G01X30996Y16750D01*
G01X30595Y17049D02*
G01X30603Y17049D01*
G01X30595Y16750D02*
G01X30603Y16750D01*
G01X2260Y26600D02*
G01X2103Y26600D01*
G01X2063Y26631D02*
G01X2063Y26868D01*
G01X2260Y26899D02*
G01X2103Y26899D01*
G01X2496Y26899D02*
G01X2339Y26899D01*
G01X2496Y26600D02*
G01X2339Y26600D01*
G01X2536Y26631D02*
G01X2536Y26868D01*
G01X2095Y26600D02*
G01X2103Y26600D01*
G01X2095Y26899D02*
G01X2103Y26899D01*
G01X2504Y26600D02*
G01X2496Y26600D01*
G01X2504Y26899D02*
G01X2496Y26899D01*
G01X2889Y30699D02*
G01X3046Y30699D01*
G01X3086Y30668D02*
G01X3086Y30431D01*
G01X2889Y30400D02*
G01X3046Y30400D01*
G01X2653Y30400D02*
G01X2810Y30400D01*
G01X2653Y30699D02*
G01X2810Y30699D01*
G01X2613Y30668D02*
G01X2613Y30431D01*
G01X3054Y30699D02*
G01X3046Y30699D01*
G01X3054Y30400D02*
G01X3046Y30400D01*
G01X2645Y30699D02*
G01X2653Y30699D01*
G01X2645Y30400D02*
G01X2653Y30400D01*
G01X1550Y27539D02*
G01X1550Y27696D01*
G01X1581Y27736D02*
G01X1818Y27736D01*
G01X1849Y27539D02*
G01X1849Y27696D01*
G01X1849Y27303D02*
G01X1849Y27460D01*
G01X1550Y27303D02*
G01X1550Y27460D01*
G01X1581Y27263D02*
G01X1818Y27263D01*
G01X1550Y27704D02*
G01X1550Y27696D01*
G01X1849Y27704D02*
G01X1849Y27696D01*
G01X1550Y27295D02*
G01X1550Y27303D01*
G01X1849Y27295D02*
G01X1849Y27303D01*
G01X4750Y28789D02*
G01X4750Y28946D01*
G01X4781Y28986D02*
G01X5018Y28986D01*
G01X5049Y28789D02*
G01X5049Y28946D01*
G01X5049Y28553D02*
G01X5049Y28710D01*
G01X4750Y28553D02*
G01X4750Y28710D01*
G01X4781Y28513D02*
G01X5018Y28513D01*
G01X4750Y28954D02*
G01X4750Y28946D01*
G01X5049Y28954D02*
G01X5049Y28946D01*
G01X4750Y28545D02*
G01X4750Y28553D01*
G01X5049Y28545D02*
G01X5049Y28553D01*
G01X5200Y28789D02*
G01X5200Y28946D01*
G01X5231Y28986D02*
G01X5468Y28986D01*
G01X5499Y28789D02*
G01X5499Y28946D01*
G01X5499Y28553D02*
G01X5499Y28710D01*
G01X5200Y28553D02*
G01X5200Y28710D01*
G01X5231Y28513D02*
G01X5468Y28513D01*
G01X5200Y28954D02*
G01X5200Y28946D01*
G01X5499Y28954D02*
G01X5499Y28946D01*
G01X5200Y28545D02*
G01X5200Y28553D01*
G01X5499Y28545D02*
G01X5499Y28553D01*
G01X11599Y27610D02*
G01X11599Y27453D01*
G01X11568Y27413D02*
G01X11331Y27413D01*
G01X11300Y27610D02*
G01X11300Y27453D01*
G01X11300Y27846D02*
G01X11300Y27689D01*
G01X11599Y27846D02*
G01X11599Y27689D01*
G01X11568Y27886D02*
G01X11331Y27886D01*
G01X11599Y27445D02*
G01X11599Y27453D01*
G01X11300Y27445D02*
G01X11300Y27453D01*
G01X11599Y27854D02*
G01X11599Y27846D01*
G01X11300Y27854D02*
G01X11300Y27846D01*
G01X23999Y28210D02*
G01X23999Y28053D01*
G01X23968Y28013D02*
G01X23731Y28013D01*
G01X23700Y28210D02*
G01X23700Y28053D01*
G01X23700Y28446D02*
G01X23700Y28289D01*
G01X23999Y28446D02*
G01X23999Y28289D01*
G01X23968Y28486D02*
G01X23731Y28486D01*
G01X23999Y28045D02*
G01X23999Y28053D01*
G01X23700Y28045D02*
G01X23700Y28053D01*
G01X23999Y28454D02*
G01X23999Y28446D01*
G01X23700Y28454D02*
G01X23700Y28446D01*
G01X17510Y22850D02*
G01X17353Y22850D01*
G01X17313Y22881D02*
G01X17313Y23118D01*
G01X17510Y23149D02*
G01X17353Y23149D01*
G01X17746Y23149D02*
G01X17589Y23149D01*
G01X17746Y22850D02*
G01X17589Y22850D01*
G01X17786Y22881D02*
G01X17786Y23118D01*
G01X17345Y22850D02*
G01X17353Y22850D01*
G01X17345Y23149D02*
G01X17353Y23149D01*
G01X17754Y22850D02*
G01X17746Y22850D01*
G01X17754Y23149D02*
G01X17746Y23149D01*
G54D10*
G01X17705Y30350D02*
G01X17705Y29250D01*
G01X17610Y29150D02*
G01X17089Y29150D01*
G01X17039Y29200D01*
G01X14360Y29200D01*
G01X14310Y29150D01*
G01X13789Y29150D01*
G01X17600Y30450D02*
G01X17089Y30450D01*
G01X17039Y30400D01*
G01X14360Y30400D01*
G01X14310Y30450D01*
G01X13800Y30450D01*
G01X13694Y30359D02*
G01X13694Y29259D01*
G01X13700Y29800D02*
G01X13144Y29800D01*
G01X17700Y29800D02*
G01X18264Y29800D01*
G01X46844Y38550D02*
G01X46844Y39650D01*
G01X46939Y39750D02*
G01X47460Y39750D01*
G01X47510Y39700D01*
G01X50189Y39700D01*
G01X50239Y39750D01*
G01X50760Y39750D01*
G01X46950Y38450D02*
G01X47460Y38450D01*
G01X47510Y38500D01*
G01X50189Y38500D01*
G01X50239Y38450D01*
G01X50750Y38450D01*
G01X50855Y38540D02*
G01X50855Y39640D01*
G01X50850Y39100D02*
G01X51405Y39100D01*
G01X46850Y39100D02*
G01X46285Y39100D01*
G01X25500Y9400D02*
G01X25500Y8700D01*
G01X39500Y8700D02*
G01X39500Y11100D01*
G01X25500Y11100D02*
G01X25500Y10400D01*
G01X25500Y11100D02*
G01X25600Y11100D01*
G01X25500Y8700D02*
G01X25600Y8700D01*
G01X39500Y8700D02*
G01X39400Y8700D01*
G01X39500Y11100D02*
G01X39400Y11100D01*
G01X2200Y30009D02*
G01X2200Y28109D01*
G01X3619Y28109D01*
G01X3619Y30000D01*
G01X3619Y30009D01*
G01X2200Y30009D02*
G01X2735Y30009D01*
G01X3065Y30009D02*
G01X3619Y30009D01*
G54D63*
G01X6510Y28840D02*
G01X6273Y28840D01*
G01X6273Y28851D02*
G01X6392Y29065D01*
G01X6392Y29065D02*
G01X6242Y29065D01*
G01X6392Y29065D02*
G01X6542Y29065D01*
G54D10*
G01X5954Y28094D02*
G01X5848Y28094D01*
G01X6951Y28094D02*
G01X6845Y28094D01*
G54D63*
G01X6400Y29159D02*
G01X6400Y28730D01*
G54D10*
G01X5848Y29905D02*
G01X5848Y28094D01*
G54D63*
G01X6510Y28840D02*
G01X6392Y29065D01*
G54D10*
G01X6950Y29250D02*
G01X5848Y29250D01*
G01X6950Y29900D02*
G01X6950Y28094D01*
G01X6950Y29900D02*
G01X6845Y29900D01*
G01X5954Y29900D02*
G01X5848Y29900D01*
G01X35781Y5641D02*
G01X33340Y5641D01*
G01X35879Y5365D02*
G01X33320Y5365D01*
G01X33340Y7058D02*
G01X35859Y7058D01*
G01X33320Y7334D02*
G01X35879Y7334D01*
G01X34500Y6600D02*
G01X34500Y6100D01*
G01X34500Y6100D02*
G01X34700Y6100D01*
G01X34700Y6100D02*
G01X34700Y6600D01*
G01X34700Y6600D02*
G01X34500Y6600D01*
G01X34350Y6600D02*
G01X34350Y6350D01*
G01X34350Y6350D02*
G01X34350Y6100D01*
G01X34350Y6350D02*
G01X34200Y6350D01*
G01X34850Y6600D02*
G01X34850Y6350D01*
G01X34850Y6350D02*
G01X34850Y6100D01*
G01X34850Y6350D02*
G01X35000Y6350D01*
G01X14589Y4087D02*
G01X10810Y4087D01*
G01X10810Y4087D02*
G01X10810Y6212D01*
G01X10810Y6212D02*
G01X14589Y6212D01*
G01X14589Y4087D02*
G01X14589Y6212D01*
G01X13842Y4087D02*
G01X13842Y6212D01*
G01X13682Y4087D02*
G01X13682Y6150D01*
G54D66*
G01X54350Y39400D02*
G01X53000Y39400D01*
G01X54350Y43200D02*
G01X53000Y43200D01*
G01X54800Y39200D02*
G01X54800Y43400D01*
G01X54400Y40600D02*
G01X54900Y40600D01*
G01X54400Y42000D02*
G01X54900Y42000D01*
G01X54350Y43400D02*
G01X54350Y39200D01*
G01X54900Y43400D02*
G01X54900Y39200D01*
G01X53000Y39200D01*
G01X53000Y43400D01*
G01X54900Y43400D01*
G01X71350Y43250D02*
G01X72700Y43250D01*
G01X71350Y39450D02*
G01X72700Y39450D01*
G01X70900Y43450D02*
G01X70900Y39250D01*
G01X71300Y42050D02*
G01X70800Y42050D01*
G01X71300Y40650D02*
G01X70800Y40650D01*
G01X71350Y39250D02*
G01X71350Y43450D01*
G01X70800Y39250D02*
G01X70800Y43450D01*
G01X72700Y43450D01*
G01X72700Y39250D01*
G01X70800Y39250D01*
G54D10*
G01X42000Y2900D02*
G01X42000Y1900D01*
G01X41900Y3000D02*
G01X41300Y3000D01*
G01X41900Y1800D02*
G01X41300Y1800D01*
G01X41200Y1900D02*
G01X41200Y2900D01*
G01X46600Y4450D02*
G01X46600Y3450D01*
G01X46500Y4550D02*
G01X45900Y4550D01*
G01X46500Y3350D02*
G01X45900Y3350D01*
G01X45800Y3450D02*
G01X45800Y4450D01*
G01X46350Y12150D02*
G01X46950Y12150D01*
G01X46650Y12450D02*
G01X46650Y11850D01*
G01X55000Y27225D02*
G01X55000Y21625D01*
G01X58800Y21625D01*
G01X62500Y21625D01*
G01X62500Y45275D01*
G01X56200Y45275D01*
G01X55000Y45275D01*
G01X55000Y27225D01*
G01X57750Y33415D02*
G01X54999Y33415D01*
G01X54999Y33415D02*
G01X54999Y33484D01*
G01X57750Y33484D01*
G01X55000Y25525D02*
G01X55000Y25594D01*
G01X57750Y25594D01*
G01X57750Y25525D02*
G01X55000Y25525D01*
G01X55000Y41275D02*
G01X55000Y41344D01*
G01X57750Y41344D01*
G01X57750Y41275D02*
G01X55000Y41275D01*
G01X61243Y45275D02*
G01X61243Y21625D01*
G01X70700Y39675D02*
G01X70700Y45275D01*
G01X66900Y45275D01*
G01X63200Y45275D01*
G01X63200Y21625D01*
G01X69500Y21625D01*
G01X70700Y21625D01*
G01X70700Y39675D01*
G01X67950Y33484D02*
G01X70700Y33484D01*
G01X70700Y33484D02*
G01X70700Y33415D01*
G01X67950Y33415D01*
G01X70700Y41375D02*
G01X70700Y41305D01*
G01X67949Y41305D01*
G01X67949Y41375D02*
G01X70700Y41375D01*
G01X70700Y25625D02*
G01X70700Y25555D01*
G01X67949Y25555D01*
G01X67949Y25625D02*
G01X70700Y25625D01*
G01X64456Y21625D02*
G01X64456Y45275D01*
G01X45145Y32798D02*
G01X54004Y32798D01*
G01X54004Y32798D02*
G01X54004Y26302D01*
G01X54004Y26302D02*
G01X45145Y26302D01*
G01X45145Y26302D02*
G01X45145Y32798D01*
G01X45145Y25398D02*
G01X54004Y25398D01*
G01X54004Y25398D02*
G01X54004Y18902D01*
G01X54004Y18902D02*
G01X45145Y18902D01*
G01X45145Y18902D02*
G01X45145Y25398D01*
G01X7525Y31374D02*
G01X10674Y31374D01*
G01X7525Y28225D02*
G01X10674Y28225D01*
G01X2303Y23340D02*
G01X2703Y23340D01*
G01X2506Y23537D02*
G01X2506Y23137D01*
G01X2303Y25640D02*
G01X2703Y25640D01*
G01X2506Y25837D02*
G01X2506Y25437D01*
G01X20010Y23885D02*
G01X20010Y24514D01*
G01X19281Y24512D02*
G01X18789Y24512D01*
G01X19281Y23883D02*
G01X18789Y23883D01*
G01X19518Y24514D02*
G01X20010Y24514D01*
G01X19518Y23885D02*
G01X20010Y23885D01*
G01X18789Y23883D02*
G01X18789Y24512D01*
G01X28065Y25012D02*
G01X28122Y25012D01*
G01X28477Y25012D02*
G01X28622Y25012D01*
G01X28065Y26587D02*
G01X28122Y26587D01*
G01X28477Y26587D02*
G01X28622Y26587D01*
G01X28977Y26587D02*
G01X29122Y26587D01*
G01X29477Y26587D02*
G01X29622Y26587D01*
G01X28065Y25571D02*
G01X28065Y25012D01*
G01X28977Y25012D02*
G01X29122Y25012D01*
G01X29477Y25012D02*
G01X29622Y25012D01*
G01X29977Y25012D02*
G01X30034Y25012D01*
G01X28065Y26587D02*
G01X28065Y26036D01*
G01X30034Y26587D02*
G01X30034Y25012D01*
G01X29977Y26587D02*
G01X30034Y26587D01*
G01X16065Y23962D02*
G01X16122Y23962D01*
G01X16477Y23962D02*
G01X16622Y23962D01*
G01X16065Y25537D02*
G01X16122Y25537D01*
G01X16477Y25537D02*
G01X16622Y25537D01*
G01X16977Y25537D02*
G01X17122Y25537D01*
G01X17477Y25537D02*
G01X17622Y25537D01*
G01X16065Y24521D02*
G01X16065Y23962D01*
G01X16977Y23962D02*
G01X17122Y23962D01*
G01X17477Y23962D02*
G01X17622Y23962D01*
G01X17977Y23962D02*
G01X18034Y23962D01*
G01X16065Y25537D02*
G01X16065Y24986D01*
G01X18034Y25537D02*
G01X18034Y23962D01*
G01X17977Y25537D02*
G01X18034Y25537D01*
G54D63*
G01X15239Y27309D02*
G01X15476Y27309D01*
G01X15476Y27298D02*
G01X15357Y27084D01*
G01X15357Y27084D02*
G01X15507Y27084D01*
G01X15357Y27084D02*
G01X15207Y27084D01*
G54D10*
G01X15795Y28055D02*
G01X15901Y28055D01*
G01X14798Y28055D02*
G01X14904Y28055D01*
G54D63*
G01X15350Y26990D02*
G01X15350Y27419D01*
G54D10*
G01X15901Y26244D02*
G01X15901Y28055D01*
G54D63*
G01X15239Y27309D02*
G01X15357Y27084D01*
G54D10*
G01X14800Y26900D02*
G01X15901Y26900D01*
G01X14800Y26250D02*
G01X14800Y28055D01*
G01X14800Y26250D02*
G01X14904Y26250D01*
G01X15795Y26250D02*
G01X15901Y26250D01*
G54D63*
G01X43889Y29959D02*
G01X44126Y29959D01*
G01X44126Y29948D02*
G01X44007Y29734D01*
G01X44007Y29734D02*
G01X44157Y29734D01*
G01X44007Y29734D02*
G01X43857Y29734D01*
G54D10*
G01X44445Y30705D02*
G01X44551Y30705D01*
G01X43448Y30705D02*
G01X43554Y30705D01*
G54D63*
G01X44000Y29640D02*
G01X44000Y30069D01*
G54D10*
G01X44551Y28894D02*
G01X44551Y30705D01*
G54D63*
G01X43889Y29959D02*
G01X44007Y29734D01*
G54D10*
G01X43450Y29550D02*
G01X44551Y29550D01*
G01X43450Y28900D02*
G01X43450Y30705D01*
G01X43450Y28900D02*
G01X43554Y28900D01*
G01X44445Y28900D02*
G01X44551Y28900D01*
G54D63*
G01X44139Y22059D02*
G01X44376Y22059D01*
G01X44376Y22048D02*
G01X44257Y21834D01*
G01X44257Y21834D02*
G01X44407Y21834D01*
G01X44257Y21834D02*
G01X44107Y21834D01*
G54D10*
G01X44695Y22805D02*
G01X44801Y22805D01*
G01X43698Y22805D02*
G01X43804Y22805D01*
G54D63*
G01X44250Y21740D02*
G01X44250Y22169D01*
G54D10*
G01X44801Y20994D02*
G01X44801Y22805D01*
G54D63*
G01X44139Y22059D02*
G01X44257Y21834D01*
G54D10*
G01X43700Y21650D02*
G01X44801Y21650D01*
G01X43700Y21000D02*
G01X43700Y22805D01*
G01X43700Y21000D02*
G01X43804Y21000D01*
G01X44695Y21000D02*
G01X44801Y21000D01*
G54D62*
G01X44610Y5400D02*
G01X44453Y5400D01*
G01X44413Y5431D02*
G01X44413Y5668D01*
G01X44610Y5699D02*
G01X44453Y5699D01*
G01X44846Y5699D02*
G01X44689Y5699D01*
G01X44846Y5400D02*
G01X44689Y5400D01*
G01X44886Y5431D02*
G01X44886Y5668D01*
G01X44445Y5400D02*
G01X44453Y5400D01*
G01X44445Y5699D02*
G01X44453Y5699D01*
G01X44854Y5400D02*
G01X44846Y5400D01*
G01X44854Y5699D02*
G01X44846Y5699D01*
G54D63*
G01X44010Y10440D02*
G01X43773Y10440D01*
G01X43773Y10451D02*
G01X43892Y10665D01*
G01X43892Y10665D02*
G01X43742Y10665D01*
G01X43892Y10665D02*
G01X44042Y10665D01*
G54D10*
G01X43454Y9694D02*
G01X43348Y9694D01*
G01X44451Y9694D02*
G01X44345Y9694D01*
G54D63*
G01X43900Y10759D02*
G01X43900Y10330D01*
G54D10*
G01X43348Y11505D02*
G01X43348Y9694D01*
G54D63*
G01X44010Y10440D02*
G01X43892Y10665D01*
G54D10*
G01X44450Y10850D02*
G01X43348Y10850D01*
G01X44450Y11500D02*
G01X44450Y9694D01*
G01X44450Y11500D02*
G01X44345Y11500D01*
G01X43454Y11500D02*
G01X43348Y11500D01*
G54D62*
G01X11700Y21839D02*
G01X11700Y21996D01*
G01X11731Y22036D02*
G01X11968Y22036D01*
G01X11999Y21839D02*
G01X11999Y21996D01*
G01X11999Y21603D02*
G01X11999Y21760D01*
G01X11700Y21603D02*
G01X11700Y21760D01*
G01X11731Y21563D02*
G01X11968Y21563D01*
G01X11700Y22004D02*
G01X11700Y21996D01*
G01X11999Y22004D02*
G01X11999Y21996D01*
G01X11700Y21595D02*
G01X11700Y21603D01*
G01X11999Y21595D02*
G01X11999Y21603D01*
G54D63*
G01X10689Y22690D02*
G01X10689Y22926D01*
G01X10701Y22926D02*
G01X10915Y22807D01*
G01X10915Y22807D02*
G01X10915Y22957D01*
G01X10915Y22807D02*
G01X10915Y22657D01*
G54D10*
G01X9944Y23245D02*
G01X9944Y23351D01*
G01X9944Y22248D02*
G01X9944Y22354D01*
G54D63*
G01X11010Y22800D02*
G01X10580Y22800D01*
G54D10*
G01X11755Y23351D02*
G01X9944Y23351D01*
G54D63*
G01X10689Y22690D02*
G01X10915Y22807D01*
G54D10*
G01X11100Y22250D02*
G01X11100Y23351D01*
G01X11750Y22250D02*
G01X9944Y22250D01*
G01X11750Y22250D02*
G01X11750Y22354D01*
G01X11750Y23245D02*
G01X11750Y23351D01*
G54D63*
G01X46560Y17859D02*
G01X46560Y17623D01*
G01X46548Y17623D02*
G01X46334Y17742D01*
G01X46334Y17742D02*
G01X46334Y17592D01*
G01X46334Y17742D02*
G01X46334Y17892D01*
G54D10*
G01X47305Y17304D02*
G01X47305Y17198D01*
G01X47305Y18301D02*
G01X47305Y18195D01*
G54D63*
G01X46239Y17750D02*
G01X46669Y17750D01*
G54D10*
G01X45494Y17198D02*
G01X47305Y17198D01*
G54D63*
G01X46560Y17859D02*
G01X46334Y17742D01*
G54D10*
G01X46150Y18300D02*
G01X46150Y17198D01*
G01X45500Y18300D02*
G01X47305Y18300D01*
G01X45500Y18300D02*
G01X45500Y18195D01*
G01X45500Y17304D02*
G01X45500Y17198D01*
G54D63*
G01X15710Y31909D02*
G01X15710Y31673D01*
G01X15698Y31673D02*
G01X15484Y31792D01*
G01X15484Y31792D02*
G01X15484Y31642D01*
G01X15484Y31792D02*
G01X15484Y31942D01*
G54D10*
G01X16455Y31354D02*
G01X16455Y31248D01*
G01X16455Y32351D02*
G01X16455Y32245D01*
G54D63*
G01X15389Y31800D02*
G01X15819Y31800D01*
G54D10*
G01X14644Y31248D02*
G01X16455Y31248D01*
G54D63*
G01X15710Y31909D02*
G01X15484Y31792D01*
G54D10*
G01X15300Y32350D02*
G01X15300Y31248D01*
G01X14650Y32350D02*
G01X16455Y32350D01*
G01X14650Y32350D02*
G01X14650Y32245D01*
G01X14650Y31354D02*
G01X14650Y31248D01*
G54D63*
G01X34260Y27690D02*
G01X34023Y27690D01*
G01X34023Y27701D02*
G01X34142Y27915D01*
G01X34142Y27915D02*
G01X33992Y27915D01*
G01X34142Y27915D02*
G01X34292Y27915D01*
G54D10*
G01X33704Y26944D02*
G01X33598Y26944D01*
G01X34701Y26944D02*
G01X34595Y26944D01*
G54D63*
G01X34150Y28009D02*
G01X34150Y27580D01*
G54D10*
G01X33598Y28755D02*
G01X33598Y26944D01*
G54D63*
G01X34260Y27690D02*
G01X34142Y27915D01*
G54D10*
G01X34700Y28100D02*
G01X33598Y28100D01*
G01X34700Y28750D02*
G01X34700Y26944D01*
G01X34700Y28750D02*
G01X34595Y28750D01*
G01X33704Y28750D02*
G01X33598Y28750D01*
G01X69149Y13937D02*
G01X69149Y6087D01*
G01X56550Y13937D02*
G01X56550Y6087D01*
G01X57800Y5975D02*
G01X57800Y5375D01*
G01X55300Y5375D01*
G01X55300Y5975D01*
G01X57800Y5975D01*
G01X56561Y5975D02*
G01X56561Y5375D01*
G01X57800Y5375D02*
G01X57800Y1625D01*
G01X55300Y1625D01*
G01X55300Y5375D01*
G01X62850Y11950D02*
G01X63850Y10950D01*
G01X62850Y11950D02*
G01X62850Y8900D01*
G01X62850Y11950D02*
G01X61850Y10950D01*
G01X70399Y5975D02*
G01X70399Y5375D01*
G01X67899Y5375D01*
G01X67899Y5975D01*
G01X70399Y5975D01*
G01X69160Y5975D02*
G01X69160Y5375D01*
G01X70399Y5375D02*
G01X70399Y1625D01*
G01X67899Y1625D01*
G01X67899Y5375D01*
G01X70724Y13937D02*
G01X70724Y6063D01*
G01X54976Y6063D01*
G01X54976Y13937D01*
G01X70724Y13937D01*
G54D63*
G01X20710Y9390D02*
G01X20473Y9390D01*
G01X20473Y9401D02*
G01X20592Y9615D01*
G01X20592Y9615D02*
G01X20442Y9615D01*
G01X20592Y9615D02*
G01X20742Y9615D01*
G54D10*
G01X20154Y8644D02*
G01X20048Y8644D01*
G01X21151Y8644D02*
G01X21045Y8644D01*
G54D63*
G01X20600Y9709D02*
G01X20600Y9280D01*
G54D10*
G01X20048Y10455D02*
G01X20048Y8644D01*
G54D63*
G01X20710Y9390D02*
G01X20592Y9615D01*
G54D10*
G01X21150Y9800D02*
G01X20048Y9800D01*
G01X21150Y10450D02*
G01X21150Y8644D01*
G01X21150Y10450D02*
G01X21045Y10450D01*
G01X20154Y10450D02*
G01X20048Y10450D01*
G54D69*
G01X35205Y3253D02*
G01X35205Y2926D01*
G01X35184Y2865D01*
G01X35164Y2844D01*
G01X35122Y2825D01*
G01X35081Y2825D01*
G01X35040Y2844D01*
G01X35019Y2865D01*
G01X35000Y2926D01*
G01X35000Y2967D01*
G01X35339Y3253D02*
G01X35339Y2825D01*
G01X35339Y3253D02*
G01X35523Y3253D01*
G01X35585Y3234D01*
G01X35605Y3213D01*
G01X35626Y3171D01*
G01X35626Y3111D01*
G01X35605Y3069D01*
G01X35585Y3050D01*
G01X35523Y3028D01*
G01X35339Y3028D01*
G01X35964Y3253D02*
G01X35760Y2967D01*
G01X36068Y2967D01*
G01X35964Y3253D02*
G01X35964Y2825D01*
G01X13645Y10276D02*
G01X13952Y10276D01*
G01X14013Y10296D01*
G01X14054Y10336D01*
G01X14074Y10398D01*
G01X14074Y10440D01*
G01X14054Y10501D01*
G01X14013Y10542D01*
G01X13952Y10561D01*
G01X13645Y10561D01*
G01X13645Y10738D02*
G01X13645Y10963D01*
G01X13809Y10840D01*
G01X13809Y10901D01*
G01X13829Y10942D01*
G01X13849Y10963D01*
G01X13911Y10984D01*
G01X13952Y10984D01*
G01X14013Y10963D01*
G01X14054Y10921D01*
G01X14074Y10861D01*
G01X14074Y10800D01*
G01X14054Y10738D01*
G01X14034Y10717D01*
G01X13993Y10696D01*
G01X33147Y4848D02*
G01X33106Y4827D01*
G01X33065Y4786D01*
G01X33046Y4746D01*
G01X33046Y4664D01*
G01X33065Y4623D01*
G01X33106Y4582D01*
G01X33147Y4561D01*
G01X33210Y4541D01*
G01X33311Y4541D01*
G01X33372Y4561D01*
G01X33414Y4582D01*
G01X33455Y4623D01*
G01X33475Y4664D01*
G01X33475Y4746D01*
G01X33455Y4786D01*
G01X33414Y4827D01*
G01X33372Y4848D01*
G01X33127Y4983D02*
G01X33106Y5024D01*
G01X33046Y5085D01*
G01X33475Y5085D01*
G01X35047Y4848D02*
G01X35006Y4827D01*
G01X34965Y4786D01*
G01X34946Y4746D01*
G01X34946Y4664D01*
G01X34965Y4623D01*
G01X35006Y4582D01*
G01X35047Y4561D01*
G01X35110Y4541D01*
G01X35211Y4541D01*
G01X35272Y4561D01*
G01X35314Y4582D01*
G01X35355Y4623D01*
G01X35375Y4664D01*
G01X35375Y4746D01*
G01X35355Y4786D01*
G01X35314Y4827D01*
G01X35272Y4848D01*
G01X35047Y5003D02*
G01X35027Y5003D01*
G01X34986Y5024D01*
G01X34965Y5044D01*
G01X34946Y5085D01*
G01X34946Y5167D01*
G01X34965Y5208D01*
G01X34986Y5228D01*
G01X35027Y5249D01*
G01X35068Y5249D01*
G01X35110Y5228D01*
G01X35171Y5187D01*
G01X35375Y4983D01*
G01X35375Y5269D01*
G01X19403Y8707D02*
G01X18975Y8707D01*
G01X19403Y8850D02*
G01X19403Y8563D01*
G01X19403Y8428D02*
G01X18975Y8265D01*
G01X19403Y8101D02*
G01X18975Y8265D01*
G01X19343Y7680D02*
G01X19384Y7721D01*
G01X19403Y7782D01*
G01X19403Y7863D01*
G01X19384Y7925D01*
G01X19343Y7965D01*
G01X19302Y7965D01*
G01X19260Y7946D01*
G01X19239Y7925D01*
G01X19219Y7884D01*
G01X19178Y7761D01*
G01X19159Y7721D01*
G01X19138Y7700D01*
G01X19097Y7680D01*
G01X19035Y7680D01*
G01X18994Y7721D01*
G01X18975Y7782D01*
G01X18975Y7863D01*
G01X18994Y7925D01*
G01X19035Y7965D01*
G01X19322Y7544D02*
G01X19343Y7503D01*
G01X19403Y7442D01*
G01X18975Y7442D01*
G01X34550Y20203D02*
G01X34550Y19896D01*
G01X34569Y19836D01*
G01X34610Y19794D01*
G01X34672Y19775D01*
G01X34714Y19775D01*
G01X34775Y19794D01*
G01X34815Y19836D01*
G01X34835Y19896D01*
G01X34835Y20203D01*
G01X35073Y20203D02*
G01X35011Y20184D01*
G01X34992Y20142D01*
G01X34992Y20102D01*
G01X35011Y20061D01*
G01X35052Y20040D01*
G01X35135Y20019D01*
G01X35196Y20000D01*
G01X35236Y19959D01*
G01X35257Y19917D01*
G01X35257Y19855D01*
G01X35236Y19815D01*
G01X35217Y19794D01*
G01X35155Y19775D01*
G01X35073Y19775D01*
G01X35011Y19794D01*
G01X34992Y19815D01*
G01X34971Y19855D01*
G01X34971Y19917D01*
G01X34992Y19959D01*
G01X35032Y20000D01*
G01X35093Y20019D01*
G01X35176Y20040D01*
G01X35217Y20061D01*
G01X35236Y20102D01*
G01X35236Y20142D01*
G01X35217Y20184D01*
G01X35155Y20203D01*
G01X35073Y20203D01*
G01X8300Y13403D02*
G01X8300Y12974D01*
G01X8300Y13403D02*
G01X8565Y13403D01*
G01X8300Y13199D02*
G01X8464Y13199D01*
G01X8701Y13321D02*
G01X8742Y13342D01*
G01X8802Y13403D01*
G01X8802Y12974D01*
G01X49050Y37953D02*
G01X49050Y37524D01*
G01X49050Y37953D02*
G01X49315Y37953D01*
G01X49050Y37749D02*
G01X49214Y37749D01*
G01X49471Y37851D02*
G01X49471Y37871D01*
G01X49492Y37912D01*
G01X49511Y37933D01*
G01X49552Y37953D01*
G01X49635Y37953D01*
G01X49676Y37933D01*
G01X49696Y37912D01*
G01X49717Y37871D01*
G01X49717Y37830D01*
G01X49696Y37789D01*
G01X49655Y37728D01*
G01X49451Y37524D01*
G01X49736Y37524D01*
G01X10297Y8407D02*
G01X10256Y8386D01*
G01X10215Y8344D01*
G01X10196Y8305D01*
G01X10196Y8223D01*
G01X10215Y8182D01*
G01X10256Y8140D01*
G01X10297Y8119D01*
G01X10360Y8100D01*
G01X10461Y8100D01*
G01X10522Y8119D01*
G01X10564Y8140D01*
G01X10605Y8182D01*
G01X10625Y8223D01*
G01X10625Y8305D01*
G01X10605Y8344D01*
G01X10564Y8386D01*
G01X10522Y8407D01*
G01X10196Y8582D02*
G01X10196Y8807D01*
G01X10360Y8684D01*
G01X10360Y8746D01*
G01X10380Y8786D01*
G01X10400Y8807D01*
G01X10461Y8828D01*
G01X10502Y8828D01*
G01X10564Y8807D01*
G01X10605Y8767D01*
G01X10625Y8705D01*
G01X10625Y8644D01*
G01X10605Y8582D01*
G01X10585Y8561D01*
G01X10543Y8542D01*
G01X17147Y12407D02*
G01X17106Y12386D01*
G01X17065Y12344D01*
G01X17046Y12305D01*
G01X17046Y12223D01*
G01X17065Y12182D01*
G01X17106Y12140D01*
G01X17147Y12119D01*
G01X17210Y12100D01*
G01X17311Y12100D01*
G01X17372Y12119D01*
G01X17414Y12140D01*
G01X17455Y12182D01*
G01X17475Y12223D01*
G01X17475Y12305D01*
G01X17455Y12344D01*
G01X17414Y12386D01*
G01X17372Y12407D01*
G01X17046Y12746D02*
G01X17331Y12542D01*
G01X17331Y12848D01*
G01X17046Y12746D02*
G01X17475Y12746D01*
G01X9152Y33142D02*
G01X9193Y33163D01*
G01X9234Y33205D01*
G01X9253Y33244D01*
G01X9253Y33327D01*
G01X9234Y33367D01*
G01X9193Y33409D01*
G01X9152Y33430D01*
G01X9089Y33450D01*
G01X8988Y33450D01*
G01X8927Y33430D01*
G01X8885Y33409D01*
G01X8844Y33367D01*
G01X8825Y33327D01*
G01X8825Y33244D01*
G01X8844Y33205D01*
G01X8885Y33163D01*
G01X8927Y33142D01*
G01X9172Y33007D02*
G01X9193Y32967D01*
G01X9253Y32905D01*
G01X8825Y32905D01*
G01X9110Y32505D02*
G01X9050Y32525D01*
G01X9009Y32565D01*
G01X8988Y32628D01*
G01X8988Y32648D01*
G01X9009Y32709D01*
G01X9050Y32750D01*
G01X9110Y32771D01*
G01X9131Y32771D01*
G01X9193Y32750D01*
G01X9234Y32709D01*
G01X9253Y32648D01*
G01X9253Y32628D01*
G01X9234Y32565D01*
G01X9193Y32525D01*
G01X9110Y32505D01*
G01X9009Y32505D01*
G01X8906Y32525D01*
G01X8844Y32565D01*
G01X8825Y32628D01*
G01X8825Y32669D01*
G01X8844Y32730D01*
G01X8885Y32750D01*
G01X12502Y33142D02*
G01X12543Y33163D01*
G01X12584Y33205D01*
G01X12603Y33244D01*
G01X12603Y33327D01*
G01X12584Y33367D01*
G01X12543Y33409D01*
G01X12502Y33430D01*
G01X12439Y33450D01*
G01X12338Y33450D01*
G01X12277Y33430D01*
G01X12235Y33409D01*
G01X12194Y33367D01*
G01X12175Y33327D01*
G01X12175Y33244D01*
G01X12194Y33205D01*
G01X12235Y33163D01*
G01X12277Y33142D01*
G01X12502Y32988D02*
G01X12522Y32988D01*
G01X12563Y32967D01*
G01X12584Y32946D01*
G01X12603Y32905D01*
G01X12603Y32823D01*
G01X12584Y32782D01*
G01X12563Y32763D01*
G01X12522Y32742D01*
G01X12481Y32742D01*
G01X12439Y32763D01*
G01X12378Y32804D01*
G01X12175Y33007D01*
G01X12175Y32721D01*
G01X12603Y32463D02*
G01X12584Y32525D01*
G01X12522Y32565D01*
G01X12419Y32586D01*
G01X12359Y32586D01*
G01X12256Y32565D01*
G01X12194Y32525D01*
G01X12175Y32463D01*
G01X12175Y32423D01*
G01X12194Y32361D01*
G01X12256Y32321D01*
G01X12359Y32300D01*
G01X12419Y32300D01*
G01X12522Y32321D01*
G01X12584Y32361D01*
G01X12603Y32423D01*
G01X12603Y32463D01*
G01X10200Y26146D02*
G01X10200Y26575D01*
G01X9914Y26146D02*
G01X10200Y26432D01*
G01X10097Y26330D02*
G01X9914Y26575D01*
G01X9778Y26228D02*
G01X9738Y26207D01*
G01X9676Y26146D01*
G01X9676Y26575D01*
G01X44205Y3653D02*
G01X44205Y3326D01*
G01X44184Y3265D01*
G01X44164Y3244D01*
G01X44122Y3225D01*
G01X44081Y3225D01*
G01X44040Y3244D01*
G01X44019Y3265D01*
G01X44000Y3326D01*
G01X44000Y3367D01*
G01X44339Y3653D02*
G01X44339Y3225D01*
G01X44339Y3653D02*
G01X44523Y3653D01*
G01X44585Y3634D01*
G01X44605Y3613D01*
G01X44626Y3571D01*
G01X44626Y3511D01*
G01X44605Y3469D01*
G01X44585Y3450D01*
G01X44523Y3428D01*
G01X44339Y3428D01*
G01X45006Y3653D02*
G01X44802Y3653D01*
G01X44781Y3469D01*
G01X44802Y3490D01*
G01X44863Y3511D01*
G01X44925Y3511D01*
G01X44985Y3490D01*
G01X45027Y3450D01*
G01X45047Y3388D01*
G01X45047Y3346D01*
G01X45027Y3286D01*
G01X44985Y3244D01*
G01X44925Y3225D01*
G01X44863Y3225D01*
G01X44802Y3244D01*
G01X44781Y3265D01*
G01X44760Y3305D01*
G01X29561Y16903D02*
G01X29561Y16577D01*
G01X29540Y16515D01*
G01X29520Y16494D01*
G01X29479Y16475D01*
G01X29438Y16475D01*
G01X29397Y16494D01*
G01X29376Y16515D01*
G01X29356Y16577D01*
G01X29356Y16617D01*
G01X29696Y16903D02*
G01X29696Y16475D01*
G01X29696Y16903D02*
G01X29880Y16903D01*
G01X29941Y16884D01*
G01X29961Y16863D01*
G01X29982Y16821D01*
G01X29982Y16761D01*
G01X29961Y16719D01*
G01X29941Y16700D01*
G01X29880Y16678D01*
G01X29696Y16678D01*
G01X30117Y16821D02*
G01X30158Y16842D01*
G01X30219Y16903D01*
G01X30219Y16475D01*
G01X27005Y4953D02*
G01X27005Y4626D01*
G01X26984Y4565D01*
G01X26964Y4544D01*
G01X26922Y4525D01*
G01X26881Y4525D01*
G01X26840Y4544D01*
G01X26819Y4565D01*
G01X26800Y4626D01*
G01X26800Y4667D01*
G01X27139Y4953D02*
G01X27139Y4525D01*
G01X27139Y4953D02*
G01X27323Y4953D01*
G01X27385Y4934D01*
G01X27405Y4913D01*
G01X27426Y4871D01*
G01X27426Y4811D01*
G01X27405Y4769D01*
G01X27385Y4750D01*
G01X27323Y4728D01*
G01X27139Y4728D01*
G01X27602Y4953D02*
G01X27827Y4953D01*
G01X27703Y4790D01*
G01X27764Y4790D01*
G01X27806Y4769D01*
G01X27827Y4750D01*
G01X27847Y4688D01*
G01X27847Y4646D01*
G01X27827Y4586D01*
G01X27785Y4544D01*
G01X27725Y4525D01*
G01X27663Y4525D01*
G01X27602Y4544D01*
G01X27581Y4565D01*
G01X27560Y4605D01*
G01X36205Y16703D02*
G01X36205Y16376D01*
G01X36184Y16315D01*
G01X36164Y16294D01*
G01X36122Y16275D01*
G01X36081Y16275D01*
G01X36040Y16294D01*
G01X36019Y16315D01*
G01X36000Y16376D01*
G01X36000Y16417D01*
G01X36339Y16703D02*
G01X36339Y16275D01*
G01X36339Y16703D02*
G01X36523Y16703D01*
G01X36585Y16684D01*
G01X36605Y16663D01*
G01X36626Y16621D01*
G01X36626Y16561D01*
G01X36605Y16519D01*
G01X36585Y16500D01*
G01X36523Y16478D01*
G01X36339Y16478D01*
G01X36781Y16602D02*
G01X36781Y16621D01*
G01X36802Y16663D01*
G01X36822Y16684D01*
G01X36863Y16703D01*
G01X36944Y16703D01*
G01X36985Y16684D01*
G01X37006Y16663D01*
G01X37027Y16621D01*
G01X37027Y16580D01*
G01X37006Y16540D01*
G01X36964Y16478D01*
G01X36760Y16275D01*
G01X37047Y16275D01*
G01X64204Y46550D02*
G01X63775Y46550D01*
G01X64204Y46550D02*
G01X64204Y46365D01*
G01X64184Y46305D01*
G01X64163Y46284D01*
G01X64122Y46263D01*
G01X64081Y46263D01*
G01X64039Y46284D01*
G01X64019Y46305D01*
G01X64000Y46365D01*
G01X64000Y46550D01*
G01X64000Y46407D02*
G01X63775Y46263D01*
G01X64204Y45923D02*
G01X63918Y46129D01*
G01X63918Y45821D01*
G01X64204Y45923D02*
G01X63775Y45923D01*
G01X13100Y20896D02*
G01X13100Y21203D01*
G01X13080Y21263D01*
G01X13039Y21305D01*
G01X12977Y21325D01*
G01X12935Y21325D01*
G01X12875Y21305D01*
G01X12834Y21263D01*
G01X12814Y21203D01*
G01X12814Y20896D01*
G01X12413Y21038D02*
G01X12432Y21100D01*
G01X12473Y21140D01*
G01X12535Y21161D01*
G01X12556Y21161D01*
G01X12617Y21140D01*
G01X12657Y21100D01*
G01X12678Y21038D01*
G01X12678Y21019D01*
G01X12657Y20957D01*
G01X12617Y20915D01*
G01X12556Y20896D01*
G01X12535Y20896D01*
G01X12473Y20915D01*
G01X12432Y20957D01*
G01X12413Y21038D01*
G01X12413Y21140D01*
G01X12432Y21244D01*
G01X12473Y21305D01*
G01X12535Y21325D01*
G01X12576Y21325D01*
G01X12638Y21305D01*
G01X12657Y21263D01*
G01X32854Y26650D02*
G01X32547Y26650D01*
G01X32485Y26630D01*
G01X32444Y26588D01*
G01X32425Y26527D01*
G01X32425Y26486D01*
G01X32444Y26425D01*
G01X32485Y26384D01*
G01X32547Y26363D01*
G01X32854Y26363D01*
G01X32772Y26228D02*
G01X32793Y26188D01*
G01X32854Y26126D01*
G01X32425Y26126D01*
G01X32854Y25869D02*
G01X32834Y25930D01*
G01X32772Y25971D01*
G01X32669Y25990D01*
G01X32609Y25990D01*
G01X32506Y25971D01*
G01X32444Y25930D01*
G01X32425Y25869D01*
G01X32425Y25828D01*
G01X32444Y25765D01*
G01X32506Y25725D01*
G01X32609Y25705D01*
G01X32669Y25705D01*
G01X32772Y25725D01*
G01X32834Y25765D01*
G01X32854Y25828D01*
G01X32854Y25869D01*
G01X24030Y8653D02*
G01X24030Y8225D01*
G01X24030Y8653D02*
G01X24214Y8653D01*
G01X24275Y8634D01*
G01X24296Y8613D01*
G01X24316Y8571D01*
G01X24316Y8530D01*
G01X24296Y8490D01*
G01X24275Y8469D01*
G01X24214Y8450D01*
G01X24030Y8450D01*
G01X24173Y8450D02*
G01X24316Y8225D01*
G01X24492Y8653D02*
G01X24717Y8653D01*
G01X24595Y8490D01*
G01X24656Y8490D01*
G01X24697Y8469D01*
G01X24717Y8450D01*
G01X24738Y8388D01*
G01X24738Y8346D01*
G01X24717Y8286D01*
G01X24676Y8244D01*
G01X24615Y8225D01*
G01X24554Y8225D01*
G01X24492Y8244D01*
G01X24472Y8265D01*
G01X24451Y8305D01*
G01X52330Y43104D02*
G01X52330Y42675D01*
G01X52330Y43104D02*
G01X52514Y43104D01*
G01X52575Y43084D01*
G01X52596Y43063D01*
G01X52616Y43021D01*
G01X52616Y42961D01*
G01X52596Y42919D01*
G01X52575Y42900D01*
G01X52514Y42879D01*
G01X52330Y42879D01*
G01X52895Y43104D02*
G01X52895Y42675D01*
G01X52751Y43104D02*
G01X53038Y43104D01*
G01X53480Y43002D02*
G01X53459Y43042D01*
G01X53418Y43084D01*
G01X53377Y43104D01*
G01X53295Y43104D01*
G01X53255Y43084D01*
G01X53214Y43042D01*
G01X53193Y43002D01*
G01X53173Y42940D01*
G01X53173Y42838D01*
G01X53193Y42777D01*
G01X53214Y42736D01*
G01X53255Y42694D01*
G01X53295Y42675D01*
G01X53377Y42675D01*
G01X53418Y42694D01*
G01X53459Y42736D01*
G01X53480Y42777D01*
G01X53635Y43002D02*
G01X53635Y43021D01*
G01X53655Y43063D01*
G01X53676Y43084D01*
G01X53717Y43104D01*
G01X53799Y43104D01*
G01X53840Y43084D01*
G01X53860Y43063D01*
G01X53880Y43021D01*
G01X53880Y42980D01*
G01X53860Y42940D01*
G01X53819Y42879D01*
G01X53615Y42675D01*
G01X53901Y42675D01*
G01X23750Y9753D02*
G01X23750Y9325D01*
G01X23750Y9753D02*
G01X23934Y9753D01*
G01X23994Y9734D01*
G01X24015Y9713D01*
G01X24035Y9671D01*
G01X24035Y9630D01*
G01X24015Y9590D01*
G01X23994Y9569D01*
G01X23934Y9550D01*
G01X23750Y9550D01*
G01X23893Y9550D02*
G01X24035Y9325D01*
G01X24273Y9753D02*
G01X24211Y9734D01*
G01X24192Y9692D01*
G01X24192Y9651D01*
G01X24211Y9611D01*
G01X24252Y9590D01*
G01X24335Y9569D01*
G01X24396Y9550D01*
G01X24436Y9509D01*
G01X24457Y9467D01*
G01X24457Y9405D01*
G01X24436Y9365D01*
G01X24417Y9344D01*
G01X24355Y9325D01*
G01X24273Y9325D01*
G01X24211Y9344D01*
G01X24192Y9365D01*
G01X24171Y9405D01*
G01X24171Y9467D01*
G01X24192Y9509D01*
G01X24232Y9550D01*
G01X24293Y9569D01*
G01X24376Y9590D01*
G01X24417Y9611D01*
G01X24436Y9651D01*
G01X24436Y9692D01*
G01X24417Y9734D01*
G01X24355Y9753D01*
G01X24273Y9753D01*
G01X23800Y12303D02*
G01X23800Y11875D01*
G01X23800Y12303D02*
G01X23984Y12303D01*
G01X24044Y12284D01*
G01X24065Y12263D01*
G01X24085Y12221D01*
G01X24085Y12180D01*
G01X24065Y12140D01*
G01X24044Y12119D01*
G01X23984Y12100D01*
G01X23800Y12100D01*
G01X23943Y12100D02*
G01X24085Y11875D01*
G01X24486Y12161D02*
G01X24467Y12100D01*
G01X24426Y12059D01*
G01X24364Y12038D01*
G01X24343Y12038D01*
G01X24282Y12059D01*
G01X24242Y12100D01*
G01X24221Y12161D01*
G01X24221Y12180D01*
G01X24242Y12242D01*
G01X24282Y12284D01*
G01X24343Y12303D01*
G01X24364Y12303D01*
G01X24426Y12284D01*
G01X24467Y12242D01*
G01X24486Y12161D01*
G01X24486Y12059D01*
G01X24467Y11955D01*
G01X24426Y11894D01*
G01X24364Y11875D01*
G01X24323Y11875D01*
G01X24261Y11894D01*
G01X24242Y11936D01*
G01X40380Y31803D02*
G01X40380Y31375D01*
G01X40380Y31803D02*
G01X40564Y31803D01*
G01X40625Y31784D01*
G01X40646Y31763D01*
G01X40666Y31721D01*
G01X40666Y31680D01*
G01X40646Y31640D01*
G01X40625Y31619D01*
G01X40564Y31600D01*
G01X40380Y31600D01*
G01X40523Y31600D02*
G01X40666Y31375D01*
G01X40801Y31721D02*
G01X40842Y31742D01*
G01X40904Y31803D01*
G01X40904Y31375D01*
G01X41161Y31803D02*
G01X41100Y31784D01*
G01X41059Y31721D01*
G01X41039Y31619D01*
G01X41039Y31559D01*
G01X41059Y31455D01*
G01X41100Y31394D01*
G01X41161Y31375D01*
G01X41202Y31375D01*
G01X41264Y31394D01*
G01X41305Y31455D01*
G01X41325Y31559D01*
G01X41325Y31619D01*
G01X41305Y31721D01*
G01X41264Y31784D01*
G01X41202Y31803D01*
G01X41161Y31803D01*
G01X32250Y23003D02*
G01X32250Y22575D01*
G01X32250Y23003D02*
G01X32434Y23003D01*
G01X32494Y22984D01*
G01X32515Y22963D01*
G01X32535Y22921D01*
G01X32535Y22880D01*
G01X32515Y22840D01*
G01X32494Y22819D01*
G01X32434Y22800D01*
G01X32250Y22800D01*
G01X32393Y22800D02*
G01X32535Y22575D01*
G01X32671Y22921D02*
G01X32711Y22942D01*
G01X32773Y23003D01*
G01X32773Y22575D01*
G01X32929Y22902D02*
G01X32929Y22921D01*
G01X32950Y22963D01*
G01X32969Y22984D01*
G01X33010Y23003D01*
G01X33093Y23003D01*
G01X33134Y22984D01*
G01X33154Y22963D01*
G01X33175Y22921D01*
G01X33175Y22880D01*
G01X33154Y22840D01*
G01X33113Y22778D01*
G01X32909Y22575D01*
G01X33194Y22575D01*
G01X31103Y19600D02*
G01X30675Y19600D01*
G01X31103Y19600D02*
G01X31103Y19415D01*
G01X31084Y19355D01*
G01X31063Y19334D01*
G01X31022Y19313D01*
G01X30981Y19313D01*
G01X30939Y19334D01*
G01X30919Y19355D01*
G01X30900Y19415D01*
G01X30900Y19600D01*
G01X30900Y19457D02*
G01X30675Y19313D01*
G01X31022Y19178D02*
G01X31043Y19138D01*
G01X31103Y19076D01*
G01X30675Y19076D01*
G01X31103Y18900D02*
G01X31103Y18675D01*
G01X30939Y18798D01*
G01X30939Y18736D01*
G01X30919Y18696D01*
G01X30900Y18675D01*
G01X30838Y18655D01*
G01X30797Y18655D01*
G01X30735Y18675D01*
G01X30694Y18715D01*
G01X30675Y18778D01*
G01X30675Y18838D01*
G01X30694Y18900D01*
G01X30714Y18921D01*
G01X30756Y18940D01*
G01X19453Y27569D02*
G01X19025Y27569D01*
G01X19453Y27569D02*
G01X19453Y27385D01*
G01X19434Y27324D01*
G01X19413Y27303D01*
G01X19372Y27283D01*
G01X19331Y27283D01*
G01X19289Y27303D01*
G01X19269Y27324D01*
G01X19250Y27385D01*
G01X19250Y27569D01*
G01X19250Y27426D02*
G01X19025Y27283D01*
G01X19372Y27148D02*
G01X19393Y27107D01*
G01X19453Y27045D01*
G01X19025Y27045D01*
G01X19453Y26624D02*
G01X19025Y26829D01*
G01X19453Y26910D02*
G01X19453Y26624D01*
G01X11846Y27150D02*
G01X12275Y27150D01*
G01X11846Y27150D02*
G01X11846Y27334D01*
G01X11865Y27394D01*
G01X11886Y27415D01*
G01X11927Y27436D01*
G01X11968Y27436D01*
G01X12010Y27415D01*
G01X12030Y27394D01*
G01X12050Y27334D01*
G01X12050Y27150D01*
G01X12050Y27292D02*
G01X12275Y27436D01*
G01X11927Y27571D02*
G01X11906Y27611D01*
G01X11846Y27673D01*
G01X12275Y27673D01*
G01X11846Y27911D02*
G01X11865Y27850D01*
G01X11906Y27828D01*
G01X11947Y27828D01*
G01X11989Y27850D01*
G01X12010Y27890D01*
G01X12030Y27971D01*
G01X12050Y28034D01*
G01X12090Y28075D01*
G01X12131Y28094D01*
G01X12193Y28094D01*
G01X12235Y28075D01*
G01X12255Y28053D01*
G01X12275Y27992D01*
G01X12275Y27911D01*
G01X12255Y27850D01*
G01X12235Y27828D01*
G01X12193Y27809D01*
G01X12131Y27809D01*
G01X12090Y27828D01*
G01X12050Y27869D01*
G01X12030Y27930D01*
G01X12010Y28013D01*
G01X11989Y28053D01*
G01X11947Y28075D01*
G01X11906Y28075D01*
G01X11865Y28053D01*
G01X11846Y27992D01*
G01X11846Y27911D01*
G01X14400Y26946D02*
G01X14400Y27375D01*
G01X14400Y26946D02*
G01X14215Y26946D01*
G01X14155Y26965D01*
G01X14134Y26986D01*
G01X14114Y27028D01*
G01X14114Y27069D01*
G01X14134Y27109D01*
G01X14155Y27130D01*
G01X14215Y27150D01*
G01X14400Y27150D01*
G01X14256Y27150D02*
G01X14114Y27375D01*
G01X13957Y27048D02*
G01X13957Y27028D01*
G01X13938Y26986D01*
G01X13917Y26965D01*
G01X13876Y26946D01*
G01X13794Y26946D01*
G01X13753Y26965D01*
G01X13732Y26986D01*
G01X13713Y27028D01*
G01X13713Y27069D01*
G01X13732Y27109D01*
G01X13773Y27171D01*
G01X13978Y27375D01*
G01X13692Y27375D01*
G01X13556Y27028D02*
G01X13515Y27007D01*
G01X13455Y26946D01*
G01X13455Y27375D01*
G01X17180Y28003D02*
G01X17180Y27575D01*
G01X17180Y28003D02*
G01X17364Y28003D01*
G01X17425Y27984D01*
G01X17446Y27963D01*
G01X17466Y27921D01*
G01X17466Y27880D01*
G01X17446Y27840D01*
G01X17425Y27819D01*
G01X17364Y27800D01*
G01X17180Y27800D01*
G01X17323Y27800D02*
G01X17466Y27575D01*
G01X17601Y27921D02*
G01X17642Y27942D01*
G01X17704Y28003D01*
G01X17704Y27575D01*
G01X18105Y27861D02*
G01X18084Y27800D01*
G01X18043Y27759D01*
G01X17982Y27738D01*
G01X17961Y27738D01*
G01X17900Y27759D01*
G01X17859Y27800D01*
G01X17839Y27861D01*
G01X17839Y27880D01*
G01X17859Y27942D01*
G01X17900Y27984D01*
G01X17961Y28003D01*
G01X17982Y28003D01*
G01X18043Y27984D01*
G01X18084Y27942D01*
G01X18105Y27861D01*
G01X18105Y27759D01*
G01X18084Y27655D01*
G01X18043Y27594D01*
G01X17982Y27575D01*
G01X17941Y27575D01*
G01X17880Y27594D01*
G01X17859Y27636D01*
G01X41580Y8803D02*
G01X41580Y8375D01*
G01X41580Y8803D02*
G01X41764Y8803D01*
G01X41825Y8784D01*
G01X41846Y8763D01*
G01X41866Y8721D01*
G01X41866Y8680D01*
G01X41846Y8640D01*
G01X41825Y8619D01*
G01X41764Y8600D01*
G01X41580Y8600D01*
G01X41723Y8600D02*
G01X41866Y8375D01*
G01X42001Y8721D02*
G01X42042Y8742D01*
G01X42104Y8803D01*
G01X42104Y8375D01*
G01X42484Y8803D02*
G01X42280Y8803D01*
G01X42259Y8619D01*
G01X42280Y8640D01*
G01X42341Y8661D01*
G01X42402Y8661D01*
G01X42464Y8640D01*
G01X42505Y8600D01*
G01X42525Y8538D01*
G01X42525Y8496D01*
G01X42505Y8436D01*
G01X42464Y8394D01*
G01X42402Y8375D01*
G01X42341Y8375D01*
G01X42280Y8394D01*
G01X42259Y8415D01*
G01X42239Y8455D01*
G01X25600Y26696D02*
G01X25600Y27125D01*
G01X25600Y26696D02*
G01X25415Y26696D01*
G01X25355Y26715D01*
G01X25334Y26736D01*
G01X25314Y26778D01*
G01X25314Y26819D01*
G01X25334Y26859D01*
G01X25355Y26880D01*
G01X25415Y26900D01*
G01X25600Y26900D01*
G01X25456Y26900D02*
G01X25314Y27125D01*
G01X25157Y26798D02*
G01X25157Y26778D01*
G01X25138Y26736D01*
G01X25117Y26715D01*
G01X25076Y26696D01*
G01X24994Y26696D01*
G01X24953Y26715D01*
G01X24932Y26736D01*
G01X24913Y26778D01*
G01X24913Y26819D01*
G01X24932Y26859D01*
G01X24973Y26921D01*
G01X25178Y27125D01*
G01X24892Y27125D01*
G01X24511Y26757D02*
G01X24531Y26715D01*
G01X24593Y26696D01*
G01X24635Y26696D01*
G01X24696Y26715D01*
G01X24736Y26778D01*
G01X24756Y26880D01*
G01X24756Y26982D01*
G01X24736Y27063D01*
G01X24696Y27105D01*
G01X24635Y27125D01*
G01X24614Y27125D01*
G01X24552Y27105D01*
G01X24511Y27063D01*
G01X24490Y27003D01*
G01X24490Y26982D01*
G01X24511Y26921D01*
G01X24552Y26880D01*
G01X24614Y26859D01*
G01X24635Y26859D01*
G01X24696Y26880D01*
G01X24736Y26921D01*
G01X24756Y26982D01*
G01X36900Y22603D02*
G01X36900Y22175D01*
G01X36900Y22603D02*
G01X37084Y22603D01*
G01X37144Y22584D01*
G01X37165Y22563D01*
G01X37185Y22521D01*
G01X37185Y22480D01*
G01X37165Y22440D01*
G01X37144Y22419D01*
G01X37084Y22400D01*
G01X36900Y22400D01*
G01X37043Y22400D02*
G01X37185Y22175D01*
G01X37342Y22502D02*
G01X37342Y22521D01*
G01X37361Y22563D01*
G01X37382Y22584D01*
G01X37423Y22603D01*
G01X37505Y22603D01*
G01X37546Y22584D01*
G01X37567Y22563D01*
G01X37586Y22521D01*
G01X37586Y22480D01*
G01X37567Y22440D01*
G01X37526Y22378D01*
G01X37321Y22175D01*
G01X37607Y22175D01*
G01X38009Y22461D02*
G01X37988Y22400D01*
G01X37947Y22359D01*
G01X37885Y22338D01*
G01X37864Y22338D01*
G01X37804Y22359D01*
G01X37763Y22400D01*
G01X37743Y22461D01*
G01X37743Y22480D01*
G01X37763Y22542D01*
G01X37804Y22584D01*
G01X37864Y22603D01*
G01X37885Y22603D01*
G01X37947Y22584D01*
G01X37988Y22542D01*
G01X38009Y22461D01*
G01X38009Y22359D01*
G01X37988Y22255D01*
G01X37947Y22194D01*
G01X37885Y22175D01*
G01X37844Y22175D01*
G01X37784Y22194D01*
G01X37763Y22236D01*
G01X21380Y26603D02*
G01X21380Y26175D01*
G01X21380Y26603D02*
G01X21564Y26603D01*
G01X21625Y26584D01*
G01X21646Y26563D01*
G01X21666Y26521D01*
G01X21666Y26480D01*
G01X21646Y26440D01*
G01X21625Y26419D01*
G01X21564Y26400D01*
G01X21380Y26400D01*
G01X21523Y26400D02*
G01X21666Y26175D01*
G01X21842Y26603D02*
G01X22067Y26603D01*
G01X21945Y26440D01*
G01X22006Y26440D01*
G01X22047Y26419D01*
G01X22067Y26400D01*
G01X22088Y26338D01*
G01X22088Y26296D01*
G01X22067Y26236D01*
G01X22026Y26194D01*
G01X21965Y26175D01*
G01X21904Y26175D01*
G01X21842Y26194D01*
G01X21822Y26215D01*
G01X21801Y26255D01*
G01X22243Y26502D02*
G01X22243Y26521D01*
G01X22264Y26563D01*
G01X22284Y26584D01*
G01X22325Y26603D01*
G01X22407Y26603D01*
G01X22448Y26584D01*
G01X22468Y26563D01*
G01X22489Y26521D01*
G01X22489Y26480D01*
G01X22468Y26440D01*
G01X22427Y26378D01*
G01X22223Y26175D01*
G01X22509Y26175D01*
G01X60930Y47304D02*
G01X60930Y46875D01*
G01X60930Y47304D02*
G01X61114Y47304D01*
G01X61175Y47284D01*
G01X61196Y47263D01*
G01X61216Y47221D01*
G01X61216Y47180D01*
G01X61196Y47140D01*
G01X61175Y47119D01*
G01X61114Y47100D01*
G01X60930Y47100D01*
G01X61073Y47100D02*
G01X61216Y46875D01*
G01X61597Y47304D02*
G01X61392Y47304D01*
G01X61372Y47119D01*
G01X61392Y47140D01*
G01X61454Y47161D01*
G01X61515Y47161D01*
G01X61576Y47140D01*
G01X61617Y47100D01*
G01X61638Y47038D01*
G01X61638Y46996D01*
G01X61617Y46936D01*
G01X61576Y46894D01*
G01X61515Y46875D01*
G01X61454Y46875D01*
G01X61392Y46894D01*
G01X61372Y46915D01*
G01X61351Y46955D01*
G01X73101Y39566D02*
G01X73101Y39995D01*
G01X73101Y39566D02*
G01X72917Y39566D01*
G01X72856Y39586D01*
G01X72835Y39607D01*
G01X72815Y39648D01*
G01X72815Y39709D01*
G01X72835Y39750D01*
G01X72856Y39770D01*
G01X72917Y39791D01*
G01X73101Y39791D01*
G01X72536Y39566D02*
G01X72536Y39995D01*
G01X72680Y39566D02*
G01X72393Y39566D01*
G01X71951Y39668D02*
G01X71972Y39627D01*
G01X72013Y39586D01*
G01X72054Y39566D01*
G01X72136Y39566D01*
G01X72176Y39586D01*
G01X72217Y39627D01*
G01X72238Y39668D01*
G01X72258Y39730D01*
G01X72258Y39832D01*
G01X72238Y39893D01*
G01X72217Y39934D01*
G01X72176Y39975D01*
G01X72136Y39995D01*
G01X72054Y39995D01*
G01X72013Y39975D01*
G01X71972Y39934D01*
G01X71951Y39893D01*
G01X71816Y39648D02*
G01X71776Y39627D01*
G01X71714Y39566D01*
G01X71714Y39995D01*
G01X32550Y16953D02*
G01X32550Y16525D01*
G01X32550Y16953D02*
G01X32734Y16953D01*
G01X32794Y16934D01*
G01X32815Y16913D01*
G01X32835Y16871D01*
G01X32835Y16830D01*
G01X32815Y16790D01*
G01X32794Y16769D01*
G01X32734Y16750D01*
G01X32550Y16750D01*
G01X32693Y16750D02*
G01X32835Y16525D01*
G01X33011Y16953D02*
G01X33236Y16953D01*
G01X33114Y16790D01*
G01X33176Y16790D01*
G01X33217Y16769D01*
G01X33236Y16750D01*
G01X33257Y16688D01*
G01X33257Y16646D01*
G01X33236Y16586D01*
G01X33196Y16544D01*
G01X33135Y16525D01*
G01X33073Y16525D01*
G01X33011Y16544D01*
G01X32992Y16565D01*
G01X32971Y16605D01*
G01X33679Y16953D02*
G01X33475Y16525D01*
G01X33393Y16953D02*
G01X33679Y16953D01*
G01X28030Y23553D02*
G01X28030Y23125D01*
G01X28030Y23553D02*
G01X28214Y23553D01*
G01X28275Y23534D01*
G01X28296Y23513D01*
G01X28316Y23471D01*
G01X28316Y23430D01*
G01X28296Y23390D01*
G01X28275Y23369D01*
G01X28214Y23350D01*
G01X28030Y23350D01*
G01X28173Y23350D02*
G01X28316Y23125D01*
G01X28451Y23471D02*
G01X28492Y23492D01*
G01X28554Y23553D01*
G01X28554Y23125D01*
G01X28893Y23553D02*
G01X28689Y23267D01*
G01X28995Y23267D01*
G01X28893Y23553D02*
G01X28893Y23125D01*
G01X30130Y23553D02*
G01X30130Y23125D01*
G01X30130Y23553D02*
G01X30314Y23553D01*
G01X30375Y23534D01*
G01X30396Y23513D01*
G01X30416Y23471D01*
G01X30416Y23430D01*
G01X30396Y23390D01*
G01X30375Y23369D01*
G01X30314Y23350D01*
G01X30130Y23350D01*
G01X30273Y23350D02*
G01X30416Y23125D01*
G01X30551Y23471D02*
G01X30592Y23492D01*
G01X30654Y23553D01*
G01X30654Y23125D01*
G01X31034Y23492D02*
G01X31014Y23534D01*
G01X30952Y23553D01*
G01X30911Y23553D01*
G01X30850Y23534D01*
G01X30809Y23471D01*
G01X30789Y23369D01*
G01X30789Y23267D01*
G01X30809Y23186D01*
G01X30850Y23144D01*
G01X30911Y23125D01*
G01X30932Y23125D01*
G01X30993Y23144D01*
G01X31034Y23186D01*
G01X31055Y23246D01*
G01X31055Y23267D01*
G01X31034Y23328D01*
G01X30993Y23369D01*
G01X30932Y23390D01*
G01X30911Y23390D01*
G01X30850Y23369D01*
G01X30809Y23328D01*
G01X30789Y23267D01*
G01X31646Y20350D02*
G01X32075Y20350D01*
G01X31646Y20350D02*
G01X31646Y20534D01*
G01X31665Y20594D01*
G01X31686Y20615D01*
G01X31727Y20636D01*
G01X31768Y20636D01*
G01X31810Y20615D01*
G01X31830Y20594D01*
G01X31850Y20534D01*
G01X31850Y20350D01*
G01X31850Y20492D02*
G01X32075Y20636D01*
G01X31747Y20792D02*
G01X31727Y20792D01*
G01X31686Y20811D01*
G01X31665Y20832D01*
G01X31646Y20873D01*
G01X31646Y20955D01*
G01X31665Y20996D01*
G01X31686Y21017D01*
G01X31727Y21036D01*
G01X31768Y21036D01*
G01X31810Y21017D01*
G01X31871Y20976D01*
G01X32075Y20771D01*
G01X32075Y21057D01*
G01X31646Y21438D02*
G01X31646Y21234D01*
G01X31830Y21213D01*
G01X31810Y21234D01*
G01X31789Y21294D01*
G01X31789Y21355D01*
G01X31810Y21417D01*
G01X31850Y21459D01*
G01X31911Y21478D01*
G01X31952Y21478D01*
G01X32014Y21459D01*
G01X32055Y21417D01*
G01X32075Y21355D01*
G01X32075Y21294D01*
G01X32055Y21234D01*
G01X32035Y21213D01*
G01X31993Y21192D01*
G01X73380Y41904D02*
G01X73380Y41475D01*
G01X73380Y41904D02*
G01X73564Y41904D01*
G01X73625Y41884D01*
G01X73646Y41863D01*
G01X73666Y41821D01*
G01X73666Y41780D01*
G01X73646Y41740D01*
G01X73625Y41719D01*
G01X73564Y41700D01*
G01X73380Y41700D01*
G01X73523Y41700D02*
G01X73666Y41475D01*
G01X74047Y41842D02*
G01X74026Y41884D01*
G01X73965Y41904D01*
G01X73924Y41904D01*
G01X73863Y41884D01*
G01X73822Y41821D01*
G01X73801Y41719D01*
G01X73801Y41617D01*
G01X73822Y41536D01*
G01X73863Y41494D01*
G01X73924Y41475D01*
G01X73945Y41475D01*
G01X74006Y41494D01*
G01X74047Y41536D01*
G01X74067Y41596D01*
G01X74067Y41617D01*
G01X74047Y41679D01*
G01X74006Y41719D01*
G01X73945Y41740D01*
G01X73924Y41740D01*
G01X73863Y41719D01*
G01X73822Y41679D01*
G01X73801Y41617D01*
G01X52369Y40746D02*
G01X52369Y41175D01*
G01X52369Y40746D02*
G01X52185Y40746D01*
G01X52124Y40765D01*
G01X52103Y40786D01*
G01X52083Y40828D01*
G01X52083Y40869D01*
G01X52103Y40909D01*
G01X52124Y40930D01*
G01X52185Y40950D01*
G01X52369Y40950D01*
G01X52226Y40950D02*
G01X52083Y41175D01*
G01X51907Y40746D02*
G01X51682Y40746D01*
G01X51804Y40909D01*
G01X51743Y40909D01*
G01X51702Y40930D01*
G01X51682Y40950D01*
G01X51661Y41011D01*
G01X51661Y41053D01*
G01X51682Y41113D01*
G01X51723Y41155D01*
G01X51784Y41175D01*
G01X51845Y41175D01*
G01X51907Y41155D01*
G01X51927Y41134D01*
G01X51948Y41094D01*
G01X51485Y40746D02*
G01X51260Y40746D01*
G01X51383Y40909D01*
G01X51322Y40909D01*
G01X51281Y40930D01*
G01X51260Y40950D01*
G01X51240Y41011D01*
G01X51240Y41053D01*
G01X51260Y41113D01*
G01X51301Y41155D01*
G01X51363Y41175D01*
G01X51424Y41175D01*
G01X51485Y41155D01*
G01X51506Y41134D01*
G01X51526Y41094D01*
G01X35050Y22946D02*
G01X35050Y23375D01*
G01X35050Y22946D02*
G01X34865Y22946D01*
G01X34805Y22965D01*
G01X34784Y22986D01*
G01X34764Y23028D01*
G01X34764Y23069D01*
G01X34784Y23109D01*
G01X34805Y23130D01*
G01X34865Y23150D01*
G01X35050Y23150D01*
G01X34906Y23150D02*
G01X34764Y23375D01*
G01X34588Y22946D02*
G01X34363Y22946D01*
G01X34485Y23109D01*
G01X34423Y23109D01*
G01X34382Y23130D01*
G01X34363Y23150D01*
G01X34342Y23211D01*
G01X34342Y23253D01*
G01X34363Y23313D01*
G01X34404Y23355D01*
G01X34464Y23375D01*
G01X34526Y23375D01*
G01X34588Y23355D01*
G01X34607Y23334D01*
G01X34629Y23294D01*
G01X34105Y22946D02*
G01X34165Y22965D01*
G01X34186Y23007D01*
G01X34186Y23048D01*
G01X34165Y23088D01*
G01X34125Y23109D01*
G01X34043Y23130D01*
G01X33981Y23150D01*
G01X33940Y23190D01*
G01X33921Y23232D01*
G01X33921Y23294D01*
G01X33940Y23334D01*
G01X33961Y23355D01*
G01X34022Y23375D01*
G01X34105Y23375D01*
G01X34165Y23355D01*
G01X34186Y23334D01*
G01X34206Y23294D01*
G01X34206Y23232D01*
G01X34186Y23190D01*
G01X34146Y23150D01*
G01X34085Y23130D01*
G01X34002Y23109D01*
G01X33961Y23088D01*
G01X33940Y23048D01*
G01X33940Y23007D01*
G01X33961Y22965D01*
G01X34022Y22946D01*
G01X34105Y22946D01*
G01X5646Y27250D02*
G01X6075Y27250D01*
G01X5646Y27250D02*
G01X5646Y27434D01*
G01X5665Y27494D01*
G01X5686Y27515D01*
G01X5727Y27536D01*
G01X5768Y27536D01*
G01X5810Y27515D01*
G01X5830Y27494D01*
G01X5850Y27434D01*
G01X5850Y27250D01*
G01X5850Y27392D02*
G01X6075Y27536D01*
G01X5727Y27671D02*
G01X5706Y27711D01*
G01X5646Y27773D01*
G01X6075Y27773D01*
G01X5727Y27909D02*
G01X5706Y27950D01*
G01X5646Y28011D01*
G01X6075Y28011D01*
G01X22200Y29103D02*
G01X22200Y28675D01*
G01X22200Y29103D02*
G01X22384Y29103D01*
G01X22444Y29084D01*
G01X22465Y29063D01*
G01X22485Y29021D01*
G01X22485Y28980D01*
G01X22465Y28940D01*
G01X22444Y28919D01*
G01X22384Y28900D01*
G01X22200Y28900D01*
G01X22343Y28900D02*
G01X22485Y28675D01*
G01X22642Y29002D02*
G01X22642Y29021D01*
G01X22661Y29063D01*
G01X22682Y29084D01*
G01X22723Y29103D01*
G01X22805Y29103D01*
G01X22846Y29084D01*
G01X22867Y29063D01*
G01X22886Y29021D01*
G01X22886Y28980D01*
G01X22867Y28940D01*
G01X22826Y28878D01*
G01X22621Y28675D01*
G01X22907Y28675D01*
G01X23063Y29002D02*
G01X23063Y29021D01*
G01X23084Y29063D01*
G01X23103Y29084D01*
G01X23144Y29103D01*
G01X23227Y29103D01*
G01X23268Y29084D01*
G01X23288Y29063D01*
G01X23309Y29021D01*
G01X23309Y28980D01*
G01X23288Y28940D01*
G01X23247Y28878D01*
G01X23043Y28675D01*
G01X23328Y28675D01*
G01X16846Y21450D02*
G01X17275Y21450D01*
G01X16846Y21450D02*
G01X16846Y21634D01*
G01X16865Y21694D01*
G01X16886Y21715D01*
G01X16927Y21736D01*
G01X16968Y21736D01*
G01X17010Y21715D01*
G01X17030Y21694D01*
G01X17050Y21634D01*
G01X17050Y21450D01*
G01X17050Y21592D02*
G01X17275Y21736D01*
G01X16846Y22157D02*
G01X17275Y21953D01*
G01X16846Y21871D02*
G01X16846Y22157D01*
G01X36854Y27869D02*
G01X36425Y27869D01*
G01X36854Y27869D02*
G01X36854Y27685D01*
G01X36834Y27624D01*
G01X36813Y27603D01*
G01X36772Y27583D01*
G01X36731Y27583D01*
G01X36689Y27603D01*
G01X36669Y27624D01*
G01X36650Y27685D01*
G01X36650Y27869D01*
G01X36650Y27726D02*
G01X36425Y27583D01*
G01X36752Y27427D02*
G01X36772Y27427D01*
G01X36813Y27407D01*
G01X36834Y27386D01*
G01X36854Y27345D01*
G01X36854Y27264D01*
G01X36834Y27223D01*
G01X36813Y27202D01*
G01X36772Y27182D01*
G01X36731Y27182D01*
G01X36689Y27202D01*
G01X36629Y27243D01*
G01X36425Y27448D01*
G01X36425Y27161D01*
G01X36854Y26985D02*
G01X36854Y26760D01*
G01X36689Y26883D01*
G01X36689Y26822D01*
G01X36669Y26781D01*
G01X36650Y26760D01*
G01X36588Y26740D01*
G01X36547Y26740D01*
G01X36485Y26760D01*
G01X36444Y26801D01*
G01X36425Y26863D01*
G01X36425Y26924D01*
G01X36444Y26985D01*
G01X36464Y27006D01*
G01X36506Y27026D01*
G01X21369Y26746D02*
G01X21369Y27175D01*
G01X21369Y26746D02*
G01X21185Y26746D01*
G01X21124Y26765D01*
G01X21103Y26786D01*
G01X21083Y26828D01*
G01X21083Y26869D01*
G01X21103Y26909D01*
G01X21124Y26930D01*
G01X21185Y26950D01*
G01X21369Y26950D01*
G01X21226Y26950D02*
G01X21083Y27175D01*
G01X20927Y26848D02*
G01X20927Y26828D01*
G01X20907Y26786D01*
G01X20886Y26765D01*
G01X20845Y26746D01*
G01X20764Y26746D01*
G01X20723Y26765D01*
G01X20702Y26786D01*
G01X20682Y26828D01*
G01X20682Y26869D01*
G01X20702Y26909D01*
G01X20743Y26971D01*
G01X20948Y27175D01*
G01X20661Y27175D01*
G01X20322Y26746D02*
G01X20526Y27032D01*
G01X20219Y27032D01*
G01X20322Y26746D02*
G01X20322Y27175D01*
G01X5003Y26919D02*
G01X4575Y26919D01*
G01X5003Y26919D02*
G01X5003Y26735D01*
G01X4984Y26674D01*
G01X4963Y26653D01*
G01X4922Y26633D01*
G01X4881Y26633D01*
G01X4839Y26653D01*
G01X4819Y26674D01*
G01X4800Y26735D01*
G01X4800Y26919D01*
G01X4800Y26776D02*
G01X4575Y26633D01*
G01X4902Y26477D02*
G01X4922Y26477D01*
G01X4963Y26457D01*
G01X4984Y26436D01*
G01X5003Y26395D01*
G01X5003Y26314D01*
G01X4984Y26273D01*
G01X4963Y26252D01*
G01X4922Y26232D01*
G01X4881Y26232D01*
G01X4839Y26252D01*
G01X4778Y26293D01*
G01X4575Y26498D01*
G01X4575Y26211D01*
G01X5003Y25790D02*
G01X4575Y25994D01*
G01X5003Y26076D02*
G01X5003Y25790D01*
G01X28550Y29253D02*
G01X28550Y28825D01*
G01X28550Y29253D02*
G01X28734Y29253D01*
G01X28794Y29234D01*
G01X28815Y29213D01*
G01X28835Y29171D01*
G01X28835Y29130D01*
G01X28815Y29090D01*
G01X28794Y29069D01*
G01X28734Y29050D01*
G01X28550Y29050D01*
G01X28693Y29050D02*
G01X28835Y28825D01*
G01X28992Y29152D02*
G01X28992Y29171D01*
G01X29011Y29213D01*
G01X29032Y29234D01*
G01X29073Y29253D01*
G01X29155Y29253D01*
G01X29196Y29234D01*
G01X29217Y29213D01*
G01X29236Y29171D01*
G01X29236Y29130D01*
G01X29217Y29090D01*
G01X29176Y29028D01*
G01X28971Y28825D01*
G01X29257Y28825D01*
G01X29494Y29253D02*
G01X29434Y29234D01*
G01X29413Y29192D01*
G01X29413Y29152D01*
G01X29434Y29111D01*
G01X29475Y29090D01*
G01X29556Y29069D01*
G01X29618Y29050D01*
G01X29659Y29009D01*
G01X29678Y28967D01*
G01X29678Y28905D01*
G01X29659Y28865D01*
G01X29638Y28844D01*
G01X29577Y28825D01*
G01X29494Y28825D01*
G01X29434Y28844D01*
G01X29413Y28865D01*
G01X29393Y28905D01*
G01X29393Y28967D01*
G01X29413Y29009D01*
G01X29453Y29050D01*
G01X29514Y29069D01*
G01X29597Y29090D01*
G01X29638Y29111D01*
G01X29659Y29152D01*
G01X29659Y29192D01*
G01X29638Y29234D01*
G01X29577Y29253D01*
G01X29494Y29253D01*
G01X30200Y29253D02*
G01X30200Y28825D01*
G01X30200Y29253D02*
G01X30384Y29253D01*
G01X30444Y29234D01*
G01X30465Y29213D01*
G01X30485Y29171D01*
G01X30485Y29130D01*
G01X30465Y29090D01*
G01X30444Y29069D01*
G01X30384Y29050D01*
G01X30200Y29050D01*
G01X30343Y29050D02*
G01X30485Y28825D01*
G01X30661Y29253D02*
G01X30886Y29253D01*
G01X30764Y29090D01*
G01X30826Y29090D01*
G01X30867Y29069D01*
G01X30886Y29050D01*
G01X30907Y28988D01*
G01X30907Y28946D01*
G01X30886Y28886D01*
G01X30846Y28844D01*
G01X30785Y28825D01*
G01X30723Y28825D01*
G01X30661Y28844D01*
G01X30642Y28865D01*
G01X30621Y28905D01*
G01X31043Y29171D02*
G01X31084Y29192D01*
G01X31144Y29253D01*
G01X31144Y28825D01*
G01X19419Y24998D02*
G01X19419Y25427D01*
G01X19419Y24998D02*
G01X19235Y24998D01*
G01X19174Y25018D01*
G01X19153Y25039D01*
G01X19133Y25080D01*
G01X19133Y25121D01*
G01X19153Y25162D01*
G01X19174Y25182D01*
G01X19235Y25202D01*
G01X19419Y25202D01*
G01X19276Y25202D02*
G01X19133Y25427D01*
G01X18957Y24998D02*
G01X18732Y24998D01*
G01X18854Y25162D01*
G01X18793Y25162D01*
G01X18752Y25182D01*
G01X18732Y25202D01*
G01X18711Y25264D01*
G01X18711Y25305D01*
G01X18732Y25366D01*
G01X18773Y25407D01*
G01X18834Y25427D01*
G01X18895Y25427D01*
G01X18957Y25407D01*
G01X18977Y25387D01*
G01X18998Y25346D01*
G01X18372Y24998D02*
G01X18576Y25284D01*
G01X18269Y25284D01*
G01X18372Y24998D02*
G01X18372Y25427D01*
G01X26646Y27550D02*
G01X27075Y27550D01*
G01X26646Y27550D02*
G01X26646Y27734D01*
G01X26665Y27794D01*
G01X26686Y27815D01*
G01X26727Y27836D01*
G01X26768Y27836D01*
G01X26810Y27815D01*
G01X26830Y27794D01*
G01X26850Y27734D01*
G01X26850Y27550D01*
G01X26850Y27692D02*
G01X27075Y27836D01*
G01X26646Y28011D02*
G01X26646Y28236D01*
G01X26810Y28115D01*
G01X26810Y28176D01*
G01X26830Y28217D01*
G01X26850Y28236D01*
G01X26911Y28257D01*
G01X26952Y28257D01*
G01X27014Y28236D01*
G01X27055Y28196D01*
G01X27075Y28134D01*
G01X27075Y28073D01*
G01X27055Y28011D01*
G01X27035Y27992D01*
G01X26993Y27971D01*
G01X26646Y28638D02*
G01X26646Y28434D01*
G01X26830Y28413D01*
G01X26810Y28434D01*
G01X26789Y28494D01*
G01X26789Y28555D01*
G01X26810Y28617D01*
G01X26850Y28659D01*
G01X26911Y28678D01*
G01X26952Y28678D01*
G01X27014Y28659D01*
G01X27055Y28617D01*
G01X27075Y28555D01*
G01X27075Y28494D01*
G01X27055Y28434D01*
G01X27035Y28413D01*
G01X26993Y28392D01*
G01X39554Y20800D02*
G01X39125Y20800D01*
G01X39554Y20800D02*
G01X39554Y20615D01*
G01X39534Y20555D01*
G01X39513Y20534D01*
G01X39472Y20513D01*
G01X39431Y20513D01*
G01X39389Y20534D01*
G01X39369Y20555D01*
G01X39350Y20615D01*
G01X39350Y20800D01*
G01X39350Y20657D02*
G01X39125Y20513D01*
G01X39554Y20338D02*
G01X39554Y20113D01*
G01X39389Y20234D01*
G01X39389Y20173D01*
G01X39369Y20132D01*
G01X39350Y20113D01*
G01X39288Y20092D01*
G01X39247Y20092D01*
G01X39185Y20113D01*
G01X39144Y20153D01*
G01X39125Y20215D01*
G01X39125Y20276D01*
G01X39144Y20338D01*
G01X39164Y20357D01*
G01X39206Y20378D01*
G01X39493Y19711D02*
G01X39534Y19732D01*
G01X39554Y19794D01*
G01X39554Y19834D01*
G01X39534Y19896D01*
G01X39472Y19936D01*
G01X39369Y19957D01*
G01X39268Y19957D01*
G01X39185Y19936D01*
G01X39144Y19896D01*
G01X39125Y19834D01*
G01X39125Y19813D01*
G01X39144Y19753D01*
G01X39185Y19711D01*
G01X39247Y19690D01*
G01X39268Y19690D01*
G01X39329Y19711D01*
G01X39369Y19753D01*
G01X39389Y19813D01*
G01X39389Y19834D01*
G01X39369Y19896D01*
G01X39329Y19936D01*
G01X39268Y19957D01*
G01X22346Y12300D02*
G01X22775Y12300D01*
G01X22346Y12300D02*
G01X22346Y12484D01*
G01X22365Y12544D01*
G01X22386Y12565D01*
G01X22427Y12586D01*
G01X22468Y12586D01*
G01X22510Y12565D01*
G01X22530Y12544D01*
G01X22550Y12484D01*
G01X22550Y12300D01*
G01X22550Y12442D02*
G01X22775Y12586D01*
G01X22346Y12761D02*
G01X22346Y12986D01*
G01X22510Y12865D01*
G01X22510Y12926D01*
G01X22530Y12967D01*
G01X22550Y12986D01*
G01X22611Y13007D01*
G01X22652Y13007D01*
G01X22714Y12986D01*
G01X22755Y12946D01*
G01X22775Y12884D01*
G01X22775Y12823D01*
G01X22755Y12761D01*
G01X22735Y12742D01*
G01X22693Y12721D01*
G01X22489Y13409D02*
G01X22550Y13388D01*
G01X22590Y13346D01*
G01X22611Y13286D01*
G01X22611Y13265D01*
G01X22590Y13203D01*
G01X22550Y13163D01*
G01X22489Y13142D01*
G01X22468Y13142D01*
G01X22406Y13163D01*
G01X22365Y13203D01*
G01X22346Y13265D01*
G01X22346Y13286D01*
G01X22365Y13346D01*
G01X22406Y13388D01*
G01X22489Y13409D01*
G01X22590Y13409D01*
G01X22693Y13388D01*
G01X22755Y13346D01*
G01X22775Y13286D01*
G01X22775Y13244D01*
G01X22755Y13184D01*
G01X22714Y13163D01*
G01X23450Y14896D02*
G01X23450Y15325D01*
G01X23450Y14896D02*
G01X23265Y14896D01*
G01X23205Y14915D01*
G01X23184Y14936D01*
G01X23164Y14978D01*
G01X23164Y15019D01*
G01X23184Y15059D01*
G01X23205Y15080D01*
G01X23265Y15100D01*
G01X23450Y15100D01*
G01X23306Y15100D02*
G01X23164Y15325D01*
G01X22823Y14896D02*
G01X23028Y15182D01*
G01X22722Y15182D01*
G01X22823Y14896D02*
G01X22823Y15325D01*
G01X22464Y14896D02*
G01X22525Y14915D01*
G01X22565Y14978D01*
G01X22586Y15080D01*
G01X22586Y15140D01*
G01X22565Y15244D01*
G01X22525Y15305D01*
G01X22464Y15325D01*
G01X22422Y15325D01*
G01X22361Y15305D01*
G01X22321Y15244D01*
G01X22300Y15140D01*
G01X22300Y15080D01*
G01X22321Y14978D01*
G01X22361Y14915D01*
G01X22422Y14896D01*
G01X22464Y14896D01*
G01X11103Y19219D02*
G01X10675Y19219D01*
G01X11103Y19219D02*
G01X11103Y19035D01*
G01X11084Y18974D01*
G01X11063Y18953D01*
G01X11022Y18933D01*
G01X10981Y18933D01*
G01X10939Y18953D01*
G01X10919Y18974D01*
G01X10900Y19035D01*
G01X10900Y19219D01*
G01X10900Y19076D02*
G01X10675Y18933D01*
G01X11103Y18757D02*
G01X11103Y18532D01*
G01X10939Y18654D01*
G01X10939Y18593D01*
G01X10919Y18552D01*
G01X10900Y18532D01*
G01X10838Y18511D01*
G01X10797Y18511D01*
G01X10735Y18532D01*
G01X10694Y18573D01*
G01X10675Y18634D01*
G01X10675Y18695D01*
G01X10694Y18757D01*
G01X10714Y18777D01*
G01X10756Y18798D01*
G01X11103Y18254D02*
G01X11084Y18315D01*
G01X11022Y18356D01*
G01X10919Y18376D01*
G01X10859Y18376D01*
G01X10756Y18356D01*
G01X10694Y18315D01*
G01X10675Y18254D01*
G01X10675Y18213D01*
G01X10694Y18151D01*
G01X10756Y18110D01*
G01X10859Y18090D01*
G01X10919Y18090D01*
G01X11022Y18110D01*
G01X11084Y18151D01*
G01X11103Y18213D01*
G01X11103Y18254D01*
G01X42369Y3946D02*
G01X42369Y4375D01*
G01X42369Y3946D02*
G01X42185Y3946D01*
G01X42124Y3965D01*
G01X42103Y3986D01*
G01X42083Y4028D01*
G01X42083Y4069D01*
G01X42103Y4109D01*
G01X42124Y4130D01*
G01X42185Y4150D01*
G01X42369Y4150D01*
G01X42226Y4150D02*
G01X42083Y4375D01*
G01X41743Y3946D02*
G01X41948Y4232D01*
G01X41641Y4232D01*
G01X41743Y3946D02*
G01X41743Y4375D01*
G01X41506Y4028D02*
G01X41465Y4007D01*
G01X41404Y3946D01*
G01X41404Y4375D01*
G01X48050Y17253D02*
G01X48050Y16825D01*
G01X48050Y17253D02*
G01X48234Y17253D01*
G01X48294Y17234D01*
G01X48315Y17213D01*
G01X48335Y17171D01*
G01X48335Y17130D01*
G01X48315Y17090D01*
G01X48294Y17069D01*
G01X48234Y17050D01*
G01X48050Y17050D01*
G01X48193Y17050D02*
G01X48335Y16825D01*
G01X48676Y17253D02*
G01X48471Y16967D01*
G01X48777Y16967D01*
G01X48676Y17253D02*
G01X48676Y16825D01*
G01X48934Y17152D02*
G01X48934Y17171D01*
G01X48954Y17213D01*
G01X48975Y17234D01*
G01X49014Y17253D01*
G01X49097Y17253D01*
G01X49138Y17234D01*
G01X49159Y17213D01*
G01X49179Y17171D01*
G01X49179Y17130D01*
G01X49159Y17090D01*
G01X49118Y17028D01*
G01X48913Y16825D01*
G01X49200Y16825D01*
G01X41630Y24803D02*
G01X41630Y24375D01*
G01X41630Y24803D02*
G01X41814Y24803D01*
G01X41875Y24784D01*
G01X41896Y24763D01*
G01X41916Y24721D01*
G01X41916Y24680D01*
G01X41896Y24640D01*
G01X41875Y24619D01*
G01X41814Y24600D01*
G01X41630Y24600D01*
G01X41773Y24600D02*
G01X41916Y24375D01*
G01X42256Y24803D02*
G01X42051Y24517D01*
G01X42358Y24517D01*
G01X42256Y24803D02*
G01X42256Y24375D01*
G01X42534Y24803D02*
G01X42759Y24803D01*
G01X42636Y24640D01*
G01X42698Y24640D01*
G01X42739Y24619D01*
G01X42759Y24600D01*
G01X42780Y24538D01*
G01X42780Y24496D01*
G01X42759Y24436D01*
G01X42718Y24394D01*
G01X42657Y24375D01*
G01X42595Y24375D01*
G01X42534Y24394D01*
G01X42514Y24415D01*
G01X42493Y24455D01*
G01X32500Y18203D02*
G01X32500Y17896D01*
G01X32519Y17836D01*
G01X32560Y17794D01*
G01X32622Y17775D01*
G01X32664Y17775D01*
G01X32725Y17794D01*
G01X32765Y17836D01*
G01X32785Y17896D01*
G01X32785Y18203D01*
G01X33167Y18203D02*
G01X32961Y18203D01*
G01X32942Y18019D01*
G01X32961Y18040D01*
G01X33023Y18061D01*
G01X33085Y18061D01*
G01X33146Y18040D01*
G01X33186Y18000D01*
G01X33207Y17938D01*
G01X33207Y17896D01*
G01X33186Y17836D01*
G01X33146Y17794D01*
G01X33085Y17775D01*
G01X33023Y17775D01*
G01X32961Y17794D01*
G01X32942Y17815D01*
G01X32921Y17855D01*
G01X37704Y18050D02*
G01X37397Y18050D01*
G01X37335Y18030D01*
G01X37294Y17988D01*
G01X37275Y17927D01*
G01X37275Y17886D01*
G01X37294Y17825D01*
G01X37335Y17784D01*
G01X37397Y17763D01*
G01X37704Y17763D01*
G01X37643Y17382D02*
G01X37684Y17403D01*
G01X37704Y17465D01*
G01X37704Y17505D01*
G01X37684Y17567D01*
G01X37622Y17607D01*
G01X37519Y17628D01*
G01X37418Y17628D01*
G01X37335Y17607D01*
G01X37294Y17567D01*
G01X37275Y17505D01*
G01X37275Y17484D01*
G01X37294Y17423D01*
G01X37335Y17382D01*
G01X37397Y17363D01*
G01X37418Y17363D01*
G01X37479Y17382D01*
G01X37519Y17423D01*
G01X37539Y17484D01*
G01X37539Y17505D01*
G01X37519Y17567D01*
G01X37479Y17607D01*
G01X37418Y17628D01*
G01X34754Y19209D02*
G01X34447Y19209D01*
G01X34385Y19190D01*
G01X34344Y19148D01*
G01X34325Y19086D01*
G01X34325Y19046D01*
G01X34344Y18984D01*
G01X34385Y18944D01*
G01X34447Y18923D01*
G01X34754Y18923D01*
G01X34754Y18502D02*
G01X34325Y18707D01*
G01X34754Y18788D02*
G01X34754Y18502D01*
G01X36604Y18950D02*
G01X36297Y18950D01*
G01X36235Y18930D01*
G01X36194Y18888D01*
G01X36175Y18827D01*
G01X36175Y18786D01*
G01X36194Y18725D01*
G01X36235Y18684D01*
G01X36297Y18663D01*
G01X36604Y18663D01*
G01X36522Y18528D02*
G01X36543Y18488D01*
G01X36604Y18426D01*
G01X36175Y18426D01*
G01X36604Y18250D02*
G01X36604Y18025D01*
G01X36439Y18148D01*
G01X36439Y18086D01*
G01X36419Y18046D01*
G01X36400Y18025D01*
G01X36338Y18005D01*
G01X36297Y18005D01*
G01X36235Y18025D01*
G01X36194Y18065D01*
G01X36175Y18128D01*
G01X36175Y18188D01*
G01X36194Y18250D01*
G01X36214Y18271D01*
G01X36256Y18290D01*
G01X25503Y13459D02*
G01X25197Y13459D01*
G01X25135Y13440D01*
G01X25094Y13398D01*
G01X25075Y13336D01*
G01X25075Y13296D01*
G01X25094Y13234D01*
G01X25135Y13194D01*
G01X25197Y13173D01*
G01X25503Y13173D01*
G01X25422Y13038D02*
G01X25443Y12998D01*
G01X25503Y12936D01*
G01X25075Y12936D01*
G01X25503Y12596D02*
G01X25218Y12801D01*
G01X25218Y12494D01*
G01X25503Y12596D02*
G01X25075Y12596D01*
G01X42218Y29496D02*
G01X42260Y29515D01*
G01X42301Y29557D01*
G01X42322Y29598D01*
G01X42342Y29659D01*
G01X42342Y29761D01*
G01X42322Y29823D01*
G01X42301Y29863D01*
G01X42260Y29905D01*
G01X42218Y29925D01*
G01X42136Y29925D01*
G01X42097Y29905D01*
G01X42056Y29863D01*
G01X42035Y29823D01*
G01X42014Y29761D01*
G01X42014Y29659D01*
G01X42035Y29598D01*
G01X42056Y29557D01*
G01X42097Y29515D01*
G01X42136Y29496D01*
G01X42218Y29496D01*
G01X42157Y29844D02*
G01X42035Y29965D01*
G01X41880Y29578D02*
G01X41839Y29557D01*
G01X41777Y29496D01*
G01X41777Y29925D01*
G01X44954Y8369D02*
G01X44934Y8409D01*
G01X44893Y8451D01*
G01X44852Y8471D01*
G01X44789Y8492D01*
G01X44688Y8492D01*
G01X44627Y8471D01*
G01X44585Y8451D01*
G01X44544Y8409D01*
G01X44525Y8369D01*
G01X44525Y8286D01*
G01X44544Y8246D01*
G01X44585Y8205D01*
G01X44627Y8184D01*
G01X44688Y8165D01*
G01X44789Y8165D01*
G01X44852Y8184D01*
G01X44893Y8205D01*
G01X44934Y8246D01*
G01X44954Y8286D01*
G01X44954Y8369D01*
G01X44606Y8307D02*
G01X44484Y8184D01*
G01X44954Y7784D02*
G01X44954Y7988D01*
G01X44769Y8009D01*
G01X44789Y7988D01*
G01X44810Y7926D01*
G01X44810Y7865D01*
G01X44789Y7805D01*
G01X44750Y7763D01*
G01X44688Y7742D01*
G01X44647Y7742D01*
G01X44585Y7763D01*
G01X44544Y7805D01*
G01X44525Y7865D01*
G01X44525Y7926D01*
G01X44544Y7988D01*
G01X44564Y8009D01*
G01X44606Y8030D01*
G01X24522Y26203D02*
G01X24481Y26184D01*
G01X24440Y26142D01*
G01X24419Y26102D01*
G01X24400Y26040D01*
G01X24400Y25938D01*
G01X24419Y25877D01*
G01X24440Y25836D01*
G01X24481Y25794D01*
G01X24522Y25775D01*
G01X24605Y25775D01*
G01X24644Y25794D01*
G01X24685Y25836D01*
G01X24706Y25877D01*
G01X24727Y25938D01*
G01X24727Y26040D01*
G01X24706Y26102D01*
G01X24685Y26142D01*
G01X24644Y26184D01*
G01X24605Y26203D01*
G01X24522Y26203D01*
G01X24584Y25855D02*
G01X24706Y25734D01*
G01X24964Y26203D02*
G01X24902Y26184D01*
G01X24882Y26142D01*
G01X24882Y26102D01*
G01X24902Y26061D01*
G01X24943Y26040D01*
G01X25026Y26019D01*
G01X25086Y26000D01*
G01X25127Y25959D01*
G01X25148Y25917D01*
G01X25148Y25855D01*
G01X25127Y25815D01*
G01X25107Y25794D01*
G01X25046Y25775D01*
G01X24964Y25775D01*
G01X24902Y25794D01*
G01X24882Y25815D01*
G01X24861Y25855D01*
G01X24861Y25917D01*
G01X24882Y25959D01*
G01X24923Y26000D01*
G01X24985Y26019D01*
G01X25067Y26040D01*
G01X25107Y26061D01*
G01X25127Y26102D01*
G01X25127Y26142D01*
G01X25107Y26184D01*
G01X25046Y26203D01*
G01X24964Y26203D01*
G01X14931Y22803D02*
G01X14889Y22784D01*
G01X14848Y22742D01*
G01X14827Y22702D01*
G01X14807Y22640D01*
G01X14807Y22538D01*
G01X14827Y22477D01*
G01X14848Y22436D01*
G01X14889Y22394D01*
G01X14931Y22375D01*
G01X15013Y22375D01*
G01X15052Y22394D01*
G01X15093Y22436D01*
G01X15114Y22477D01*
G01X15135Y22538D01*
G01X15135Y22640D01*
G01X15114Y22702D01*
G01X15093Y22742D01*
G01X15052Y22784D01*
G01X15013Y22803D01*
G01X14931Y22803D01*
G01X14992Y22455D02*
G01X15114Y22334D01*
G01X15310Y22803D02*
G01X15535Y22803D01*
G01X15413Y22640D01*
G01X15475Y22640D01*
G01X15515Y22619D01*
G01X15535Y22600D01*
G01X15556Y22538D01*
G01X15556Y22496D01*
G01X15535Y22436D01*
G01X15494Y22394D01*
G01X15434Y22375D01*
G01X15372Y22375D01*
G01X15310Y22394D01*
G01X15290Y22415D01*
G01X15269Y22455D01*
G01X10772Y21003D02*
G01X10731Y20984D01*
G01X10690Y20942D01*
G01X10669Y20902D01*
G01X10650Y20840D01*
G01X10650Y20738D01*
G01X10669Y20677D01*
G01X10690Y20636D01*
G01X10731Y20594D01*
G01X10772Y20575D01*
G01X10855Y20575D01*
G01X10894Y20594D01*
G01X10935Y20636D01*
G01X10956Y20677D01*
G01X10977Y20738D01*
G01X10977Y20840D01*
G01X10956Y20902D01*
G01X10935Y20942D01*
G01X10894Y20984D01*
G01X10855Y21003D01*
G01X10772Y21003D01*
G01X10834Y20655D02*
G01X10956Y20534D01*
G01X11317Y21003D02*
G01X11111Y20717D01*
G01X11418Y20717D01*
G01X11317Y21003D02*
G01X11317Y20575D01*
G01X44268Y3296D02*
G01X44310Y3315D01*
G01X44351Y3357D01*
G01X44372Y3398D01*
G01X44392Y3459D01*
G01X44392Y3561D01*
G01X44372Y3623D01*
G01X44351Y3663D01*
G01X44310Y3705D01*
G01X44268Y3725D01*
G01X44186Y3725D01*
G01X44147Y3705D01*
G01X44106Y3663D01*
G01X44085Y3623D01*
G01X44064Y3561D01*
G01X44064Y3459D01*
G01X44085Y3398D01*
G01X44106Y3357D01*
G01X44147Y3315D01*
G01X44186Y3296D01*
G01X44268Y3296D01*
G01X44207Y3644D02*
G01X44085Y3765D01*
G01X43684Y3357D02*
G01X43705Y3315D01*
G01X43765Y3296D01*
G01X43806Y3296D01*
G01X43868Y3315D01*
G01X43909Y3378D01*
G01X43930Y3480D01*
G01X43930Y3582D01*
G01X43909Y3663D01*
G01X43868Y3705D01*
G01X43806Y3725D01*
G01X43786Y3725D01*
G01X43725Y3705D01*
G01X43684Y3663D01*
G01X43664Y3603D01*
G01X43664Y3582D01*
G01X43684Y3521D01*
G01X43725Y3480D01*
G01X43786Y3459D01*
G01X43806Y3459D01*
G01X43868Y3480D01*
G01X43909Y3521D01*
G01X43930Y3582D01*
G01X42468Y21696D02*
G01X42510Y21715D01*
G01X42551Y21757D01*
G01X42572Y21798D01*
G01X42592Y21859D01*
G01X42592Y21961D01*
G01X42572Y22023D01*
G01X42551Y22063D01*
G01X42510Y22105D01*
G01X42468Y22125D01*
G01X42386Y22125D01*
G01X42347Y22105D01*
G01X42306Y22063D01*
G01X42285Y22023D01*
G01X42264Y21961D01*
G01X42264Y21859D01*
G01X42285Y21798D01*
G01X42306Y21757D01*
G01X42347Y21715D01*
G01X42386Y21696D01*
G01X42468Y21696D01*
G01X42407Y22044D02*
G01X42285Y22165D01*
G01X41843Y21696D02*
G01X42047Y22125D01*
G01X42130Y21696D02*
G01X41843Y21696D01*
G01X41200Y33296D02*
G01X40914Y33725D01*
G01X40914Y33296D02*
G01X41200Y33725D01*
G01X40779Y33378D02*
G01X40738Y33357D01*
G01X40676Y33296D01*
G01X40676Y33725D01*
G01X42640Y38117D02*
G01X42595Y38094D01*
G01X42526Y38027D01*
G01X42526Y38505D01*
G01X40177Y38140D02*
G01X40177Y38117D01*
G01X40155Y38073D01*
G01X40132Y38050D01*
G01X40086Y38027D01*
G01X39995Y38027D01*
G01X39950Y38050D01*
G01X39927Y38073D01*
G01X39905Y38117D01*
G01X39905Y38163D01*
G01X39927Y38209D01*
G01X39973Y38277D01*
G01X40200Y38505D01*
G01X39882Y38505D01*
G01X9453Y7050D02*
G01X9025Y6764D01*
G01X9453Y6764D02*
G01X9025Y7050D01*
G01X9352Y6608D02*
G01X9372Y6608D01*
G01X9413Y6588D01*
G01X9434Y6567D01*
G01X9453Y6526D01*
G01X9453Y6445D01*
G01X9434Y6404D01*
G01X9413Y6383D01*
G01X9372Y6363D01*
G01X9331Y6363D01*
G01X9289Y6383D01*
G01X9228Y6424D01*
G01X9025Y6629D01*
G01X9025Y6342D01*
G01X4631Y8490D02*
G01X4655Y8445D01*
G01X4722Y8376D01*
G01X4244Y8376D01*
G01X4609Y6027D02*
G01X4631Y6027D01*
G01X4677Y6005D01*
G01X4700Y5982D01*
G01X4722Y5936D01*
G01X4722Y5845D01*
G01X4700Y5800D01*
G01X4677Y5777D01*
G01X4631Y5755D01*
G01X4585Y5755D01*
G01X4540Y5777D01*
G01X4472Y5823D01*
G01X4244Y6050D01*
G01X4244Y5732D01*
G01X26284Y32367D02*
G01X25977Y32367D01*
G01X25916Y32347D01*
G01X25875Y32306D01*
G01X25855Y32244D01*
G01X25855Y32203D01*
G01X25875Y32142D01*
G01X25916Y32101D01*
G01X25977Y32081D01*
G01X26284Y32081D01*
G01X26202Y31946D02*
G01X26223Y31905D01*
G01X26284Y31843D01*
G01X25855Y31843D01*
G01X26202Y31708D02*
G01X26223Y31667D01*
G01X26284Y31606D01*
G01X25855Y31606D01*
G01X14902Y13351D02*
G01X14943Y13372D01*
G01X14984Y13413D01*
G01X15003Y13453D01*
G01X15003Y13535D01*
G01X14984Y13576D01*
G01X14943Y13617D01*
G01X14902Y13638D01*
G01X14839Y13658D01*
G01X14738Y13658D01*
G01X14677Y13638D01*
G01X14635Y13617D01*
G01X14594Y13576D01*
G01X14575Y13535D01*
G01X14575Y13453D01*
G01X14594Y13413D01*
G01X14635Y13372D01*
G01X14677Y13351D01*
G01X15003Y12971D02*
G01X15003Y13175D01*
G01X14819Y13196D01*
G01X14839Y13175D01*
G01X14860Y13114D01*
G01X14860Y13053D01*
G01X14839Y12991D01*
G01X14800Y12950D01*
G01X14738Y12930D01*
G01X14697Y12930D01*
G01X14635Y12950D01*
G01X14594Y12991D01*
G01X14575Y13053D01*
G01X14575Y13114D01*
G01X14594Y13175D01*
G01X14614Y13196D01*
G01X14656Y13216D01*
G01X17497Y8998D02*
G01X17456Y8977D01*
G01X17415Y8936D01*
G01X17396Y8896D01*
G01X17396Y8814D01*
G01X17415Y8773D01*
G01X17456Y8732D01*
G01X17497Y8711D01*
G01X17560Y8691D01*
G01X17661Y8691D01*
G01X17722Y8711D01*
G01X17764Y8732D01*
G01X17805Y8773D01*
G01X17825Y8814D01*
G01X17825Y8896D01*
G01X17805Y8936D01*
G01X17764Y8977D01*
G01X17722Y8998D01*
G01X17456Y9378D02*
G01X17415Y9358D01*
G01X17396Y9296D01*
G01X17396Y9256D01*
G01X17415Y9194D01*
G01X17477Y9153D01*
G01X17580Y9133D01*
G01X17681Y9133D01*
G01X17764Y9153D01*
G01X17805Y9194D01*
G01X17825Y9256D01*
G01X17825Y9276D01*
G01X17805Y9337D01*
G01X17764Y9378D01*
G01X17702Y9399D01*
G01X17681Y9399D01*
G01X17621Y9378D01*
G01X17580Y9337D01*
G01X17560Y9276D01*
G01X17560Y9256D01*
G01X17580Y9194D01*
G01X17621Y9153D01*
G01X17681Y9133D01*
G01X35556Y21902D02*
G01X35535Y21942D01*
G01X35494Y21984D01*
G01X35455Y22003D01*
G01X35372Y22003D01*
G01X35331Y21984D01*
G01X35290Y21942D01*
G01X35269Y21902D01*
G01X35250Y21840D01*
G01X35250Y21738D01*
G01X35269Y21677D01*
G01X35290Y21636D01*
G01X35331Y21594D01*
G01X35372Y21575D01*
G01X35455Y21575D01*
G01X35494Y21594D01*
G01X35535Y21636D01*
G01X35556Y21677D01*
G01X35977Y22003D02*
G01X35773Y21575D01*
G01X35692Y22003D02*
G01X35977Y22003D01*
G01X31898Y27952D02*
G01X31877Y27992D01*
G01X31836Y28034D01*
G01X31796Y28053D01*
G01X31714Y28053D01*
G01X31673Y28034D01*
G01X31632Y27992D01*
G01X31611Y27952D01*
G01X31591Y27890D01*
G01X31591Y27788D01*
G01X31611Y27727D01*
G01X31632Y27686D01*
G01X31673Y27644D01*
G01X31714Y27625D01*
G01X31796Y27625D01*
G01X31836Y27644D01*
G01X31877Y27686D01*
G01X31898Y27727D01*
G01X32033Y27971D02*
G01X32074Y27992D01*
G01X32135Y28053D01*
G01X32135Y27625D01*
G01X32393Y28053D02*
G01X32331Y28034D01*
G01X32291Y27971D01*
G01X32270Y27869D01*
G01X32270Y27809D01*
G01X32291Y27705D01*
G01X32331Y27644D01*
G01X32393Y27625D01*
G01X32434Y27625D01*
G01X32495Y27644D01*
G01X32536Y27705D01*
G01X32556Y27809D01*
G01X32556Y27869D01*
G01X32536Y27971D01*
G01X32495Y28034D01*
G01X32434Y28053D01*
G01X32393Y28053D01*
G01X43152Y10201D02*
G01X43193Y10222D01*
G01X43234Y10263D01*
G01X43254Y10303D01*
G01X43254Y10385D01*
G01X43234Y10426D01*
G01X43193Y10467D01*
G01X43152Y10488D01*
G01X43089Y10508D01*
G01X42988Y10508D01*
G01X42927Y10488D01*
G01X42885Y10467D01*
G01X42844Y10426D01*
G01X42825Y10385D01*
G01X42825Y10303D01*
G01X42844Y10263D01*
G01X42885Y10222D01*
G01X42927Y10201D01*
G01X43172Y10066D02*
G01X43193Y10025D01*
G01X43254Y9964D01*
G01X42825Y9964D01*
G01X43172Y9829D02*
G01X43193Y9788D01*
G01X43254Y9727D01*
G01X42825Y9727D01*
G01X31048Y17402D02*
G01X31027Y17442D01*
G01X30986Y17484D01*
G01X30946Y17503D01*
G01X30864Y17503D01*
G01X30823Y17484D01*
G01X30782Y17442D01*
G01X30761Y17402D01*
G01X30741Y17340D01*
G01X30741Y17238D01*
G01X30761Y17177D01*
G01X30782Y17136D01*
G01X30823Y17094D01*
G01X30864Y17075D01*
G01X30946Y17075D01*
G01X30986Y17094D01*
G01X31027Y17136D01*
G01X31048Y17177D01*
G01X31183Y17421D02*
G01X31224Y17442D01*
G01X31285Y17503D01*
G01X31285Y17075D01*
G01X31441Y17402D02*
G01X31441Y17421D01*
G01X31461Y17463D01*
G01X31481Y17484D01*
G01X31522Y17503D01*
G01X31604Y17503D01*
G01X31645Y17484D01*
G01X31666Y17463D01*
G01X31686Y17421D01*
G01X31686Y17380D01*
G01X31666Y17340D01*
G01X31625Y17278D01*
G01X31420Y17075D01*
G01X31706Y17075D01*
G01X1643Y26248D02*
G01X1664Y26207D01*
G01X1705Y26165D01*
G01X1744Y26146D01*
G01X1827Y26146D01*
G01X1868Y26165D01*
G01X1909Y26207D01*
G01X1930Y26248D01*
G01X1950Y26309D01*
G01X1950Y26411D01*
G01X1930Y26473D01*
G01X1909Y26513D01*
G01X1868Y26555D01*
G01X1827Y26575D01*
G01X1744Y26575D01*
G01X1705Y26555D01*
G01X1664Y26513D01*
G01X1643Y26473D01*
G01X1507Y26228D02*
G01X1467Y26207D01*
G01X1406Y26146D01*
G01X1406Y26575D01*
G01X1230Y26146D02*
G01X1005Y26146D01*
G01X1127Y26309D01*
G01X1065Y26309D01*
G01X1025Y26330D01*
G01X1005Y26350D01*
G01X985Y26411D01*
G01X985Y26453D01*
G01X1005Y26513D01*
G01X1046Y26555D01*
G01X1106Y26575D01*
G01X1168Y26575D01*
G01X1230Y26555D01*
G01X1250Y26534D01*
G01X1271Y26494D01*
G01X2656Y31102D02*
G01X2635Y31142D01*
G01X2594Y31184D01*
G01X2555Y31203D01*
G01X2472Y31203D01*
G01X2431Y31184D01*
G01X2390Y31142D01*
G01X2369Y31102D01*
G01X2350Y31040D01*
G01X2350Y30938D01*
G01X2369Y30877D01*
G01X2390Y30836D01*
G01X2431Y30794D01*
G01X2472Y30775D01*
G01X2555Y30775D01*
G01X2594Y30794D01*
G01X2635Y30836D01*
G01X2656Y30877D01*
G01X2792Y31121D02*
G01X2832Y31142D01*
G01X2893Y31203D01*
G01X2893Y30775D01*
G01X3275Y31203D02*
G01X3069Y31203D01*
G01X3050Y31019D01*
G01X3069Y31040D01*
G01X3131Y31061D01*
G01X3193Y31061D01*
G01X3253Y31040D01*
G01X3294Y31000D01*
G01X3314Y30938D01*
G01X3314Y30896D01*
G01X3294Y30836D01*
G01X3253Y30794D01*
G01X3193Y30775D01*
G01X3131Y30775D01*
G01X3069Y30794D01*
G01X3050Y30815D01*
G01X3028Y30855D01*
G01X1097Y27307D02*
G01X1056Y27286D01*
G01X1015Y27244D01*
G01X996Y27205D01*
G01X996Y27123D01*
G01X1015Y27082D01*
G01X1056Y27040D01*
G01X1097Y27019D01*
G01X1160Y27000D01*
G01X1261Y27000D01*
G01X1322Y27019D01*
G01X1364Y27040D01*
G01X1405Y27082D01*
G01X1425Y27123D01*
G01X1425Y27205D01*
G01X1405Y27244D01*
G01X1364Y27286D01*
G01X1322Y27307D01*
G01X1077Y27442D02*
G01X1056Y27482D01*
G01X996Y27544D01*
G01X1425Y27544D01*
G01X1056Y27925D02*
G01X1015Y27903D01*
G01X996Y27842D01*
G01X996Y27802D01*
G01X1015Y27740D01*
G01X1077Y27700D01*
G01X1180Y27678D01*
G01X1281Y27678D01*
G01X1364Y27700D01*
G01X1405Y27740D01*
G01X1425Y27802D01*
G01X1425Y27821D01*
G01X1405Y27884D01*
G01X1364Y27925D01*
G01X1302Y27944D01*
G01X1281Y27944D01*
G01X1221Y27925D01*
G01X1180Y27884D01*
G01X1160Y27821D01*
G01X1160Y27802D01*
G01X1180Y27740D01*
G01X1221Y27700D01*
G01X1281Y27678D01*
G01X4747Y29407D02*
G01X4706Y29386D01*
G01X4665Y29344D01*
G01X4646Y29305D01*
G01X4646Y29223D01*
G01X4665Y29182D01*
G01X4706Y29140D01*
G01X4747Y29119D01*
G01X4810Y29100D01*
G01X4911Y29100D01*
G01X4972Y29119D01*
G01X5014Y29140D01*
G01X5055Y29182D01*
G01X5075Y29223D01*
G01X5075Y29305D01*
G01X5055Y29344D01*
G01X5014Y29386D01*
G01X4972Y29407D01*
G01X4727Y29542D02*
G01X4706Y29582D01*
G01X4646Y29644D01*
G01X5075Y29644D01*
G01X4646Y30065D02*
G01X5075Y29861D01*
G01X4646Y29778D02*
G01X4646Y30065D01*
G01X5247Y29407D02*
G01X5206Y29386D01*
G01X5165Y29344D01*
G01X5146Y29305D01*
G01X5146Y29223D01*
G01X5165Y29182D01*
G01X5206Y29140D01*
G01X5247Y29119D01*
G01X5310Y29100D01*
G01X5411Y29100D01*
G01X5472Y29119D01*
G01X5514Y29140D01*
G01X5555Y29182D01*
G01X5575Y29223D01*
G01X5575Y29305D01*
G01X5555Y29344D01*
G01X5514Y29386D01*
G01X5472Y29407D01*
G01X5227Y29542D02*
G01X5206Y29582D01*
G01X5146Y29644D01*
G01X5575Y29644D01*
G01X5146Y29880D02*
G01X5165Y29819D01*
G01X5206Y29800D01*
G01X5247Y29800D01*
G01X5289Y29819D01*
G01X5310Y29861D01*
G01X5330Y29942D01*
G01X5350Y30003D01*
G01X5390Y30044D01*
G01X5431Y30065D01*
G01X5493Y30065D01*
G01X5535Y30044D01*
G01X5555Y30025D01*
G01X5575Y29963D01*
G01X5575Y29880D01*
G01X5555Y29819D01*
G01X5535Y29800D01*
G01X5493Y29778D01*
G01X5431Y29778D01*
G01X5390Y29800D01*
G01X5350Y29840D01*
G01X5330Y29902D01*
G01X5310Y29984D01*
G01X5289Y30025D01*
G01X5247Y30044D01*
G01X5206Y30044D01*
G01X5165Y30025D01*
G01X5146Y29963D01*
G01X5146Y29880D01*
G01X11552Y26992D02*
G01X11593Y27013D01*
G01X11634Y27055D01*
G01X11653Y27094D01*
G01X11653Y27177D01*
G01X11634Y27217D01*
G01X11593Y27259D01*
G01X11552Y27280D01*
G01X11489Y27300D01*
G01X11388Y27300D01*
G01X11327Y27280D01*
G01X11285Y27259D01*
G01X11244Y27217D01*
G01X11225Y27177D01*
G01X11225Y27094D01*
G01X11244Y27055D01*
G01X11285Y27013D01*
G01X11327Y26992D01*
G01X11552Y26838D02*
G01X11572Y26838D01*
G01X11613Y26817D01*
G01X11634Y26796D01*
G01X11653Y26755D01*
G01X11653Y26673D01*
G01X11634Y26632D01*
G01X11613Y26613D01*
G01X11572Y26592D01*
G01X11531Y26592D01*
G01X11489Y26613D01*
G01X11428Y26653D01*
G01X11225Y26857D01*
G01X11225Y26571D01*
G01X11572Y26436D02*
G01X11593Y26396D01*
G01X11653Y26334D01*
G01X11225Y26334D01*
G01X24502Y28742D02*
G01X24543Y28763D01*
G01X24584Y28805D01*
G01X24603Y28844D01*
G01X24603Y28927D01*
G01X24584Y28967D01*
G01X24543Y29009D01*
G01X24502Y29030D01*
G01X24439Y29050D01*
G01X24338Y29050D01*
G01X24277Y29030D01*
G01X24235Y29009D01*
G01X24194Y28967D01*
G01X24175Y28927D01*
G01X24175Y28844D01*
G01X24194Y28805D01*
G01X24235Y28763D01*
G01X24277Y28742D01*
G01X24502Y28588D02*
G01X24522Y28588D01*
G01X24563Y28567D01*
G01X24584Y28546D01*
G01X24603Y28505D01*
G01X24603Y28423D01*
G01X24584Y28382D01*
G01X24563Y28363D01*
G01X24522Y28342D01*
G01X24481Y28342D01*
G01X24439Y28363D01*
G01X24378Y28403D01*
G01X24175Y28607D01*
G01X24175Y28321D01*
G01X24502Y28165D02*
G01X24522Y28165D01*
G01X24563Y28146D01*
G01X24584Y28125D01*
G01X24603Y28084D01*
G01X24603Y28003D01*
G01X24584Y27961D01*
G01X24563Y27940D01*
G01X24522Y27921D01*
G01X24481Y27921D01*
G01X24439Y27940D01*
G01X24378Y27982D01*
G01X24175Y28186D01*
G01X24175Y27900D01*
G01X18093Y22398D02*
G01X18114Y22357D01*
G01X18155Y22315D01*
G01X18194Y22296D01*
G01X18277Y22296D01*
G01X18318Y22315D01*
G01X18359Y22357D01*
G01X18380Y22398D01*
G01X18400Y22459D01*
G01X18400Y22561D01*
G01X18380Y22623D01*
G01X18359Y22663D01*
G01X18318Y22705D01*
G01X18277Y22725D01*
G01X18194Y22725D01*
G01X18155Y22705D01*
G01X18114Y22663D01*
G01X18093Y22623D01*
G01X17938Y22398D02*
G01X17938Y22378D01*
G01X17917Y22336D01*
G01X17897Y22315D01*
G01X17856Y22296D01*
G01X17773Y22296D01*
G01X17732Y22315D01*
G01X17713Y22336D01*
G01X17692Y22378D01*
G01X17692Y22419D01*
G01X17713Y22459D01*
G01X17753Y22521D01*
G01X17957Y22725D01*
G01X17672Y22725D01*
G01X17496Y22296D02*
G01X17271Y22296D01*
G01X17393Y22459D01*
G01X17331Y22459D01*
G01X17290Y22480D01*
G01X17271Y22500D01*
G01X17250Y22561D01*
G01X17250Y22603D01*
G01X17271Y22663D01*
G01X17311Y22705D01*
G01X17372Y22725D01*
G01X17435Y22725D01*
G01X17496Y22705D01*
G01X17515Y22684D01*
G01X17536Y22644D01*
G01X15700Y28646D02*
G01X15700Y29075D01*
G01X15700Y28646D02*
G01X15515Y28646D01*
G01X15455Y28665D01*
G01X15434Y28686D01*
G01X15414Y28728D01*
G01X15414Y28769D01*
G01X15434Y28809D01*
G01X15455Y28830D01*
G01X15515Y28850D01*
G01X15700Y28850D01*
G01X15556Y28850D02*
G01X15414Y29075D01*
G01X15257Y28748D02*
G01X15257Y28728D01*
G01X15238Y28686D01*
G01X15217Y28665D01*
G01X15176Y28646D01*
G01X15094Y28646D01*
G01X15053Y28665D01*
G01X15032Y28686D01*
G01X15013Y28728D01*
G01X15013Y28769D01*
G01X15032Y28809D01*
G01X15073Y28871D01*
G01X15278Y29075D01*
G01X14992Y29075D01*
G01X48850Y40254D02*
G01X48850Y39825D01*
G01X48850Y40254D02*
G01X49034Y40254D01*
G01X49094Y40234D01*
G01X49115Y40213D01*
G01X49135Y40171D01*
G01X49135Y40130D01*
G01X49115Y40090D01*
G01X49094Y40069D01*
G01X49034Y40050D01*
G01X48850Y40050D01*
G01X48993Y40050D02*
G01X49135Y39825D01*
G01X49271Y40171D02*
G01X49311Y40192D01*
G01X49373Y40254D01*
G01X49373Y39825D01*
G01X32500Y12353D02*
G01X32500Y12046D01*
G01X32519Y11986D01*
G01X32560Y11944D01*
G01X32622Y11925D01*
G01X32664Y11925D01*
G01X32725Y11944D01*
G01X32765Y11986D01*
G01X32785Y12046D01*
G01X32785Y12353D01*
G01X32921Y12271D02*
G01X32961Y12292D01*
G01X33023Y12353D01*
G01X33023Y11925D01*
G01X2953Y27900D02*
G01X2647Y27900D01*
G01X2585Y27880D01*
G01X2544Y27838D01*
G01X2525Y27777D01*
G01X2525Y27736D01*
G01X2544Y27675D01*
G01X2585Y27634D01*
G01X2647Y27613D01*
G01X2953Y27613D01*
G01X2872Y27478D02*
G01X2893Y27438D01*
G01X2953Y27376D01*
G01X2525Y27376D01*
G01X2852Y27221D02*
G01X2872Y27221D01*
G01X2913Y27200D01*
G01X2934Y27180D01*
G01X2953Y27138D01*
G01X2953Y27057D01*
G01X2934Y27015D01*
G01X2913Y26996D01*
G01X2872Y26975D01*
G01X2831Y26975D01*
G01X2789Y26996D01*
G01X2728Y27036D01*
G01X2525Y27240D01*
G01X2525Y26955D01*
G01X6553Y31000D02*
G01X6125Y31000D01*
G01X6553Y31000D02*
G01X6553Y30857D01*
G01X6534Y30794D01*
G01X6493Y30755D01*
G01X6452Y30734D01*
G01X6389Y30713D01*
G01X6288Y30713D01*
G01X6227Y30734D01*
G01X6185Y30755D01*
G01X6144Y30794D01*
G01X6125Y30857D01*
G01X6125Y31000D01*
G01X6472Y30578D02*
G01X6493Y30538D01*
G01X6553Y30476D01*
G01X6125Y30476D01*
G01X34500Y7803D02*
G01X34664Y7600D01*
G01X34664Y7375D01*
G01X34827Y7803D02*
G01X34664Y7600D01*
G01X34961Y7721D02*
G01X35002Y7742D01*
G01X35064Y7803D01*
G01X35064Y7375D01*
G01X12722Y3646D02*
G01X12722Y4075D01*
G01X12722Y3646D02*
G01X12579Y3646D01*
G01X12517Y3665D01*
G01X12477Y3707D01*
G01X12456Y3748D01*
G01X12436Y3809D01*
G01X12436Y3911D01*
G01X12456Y3973D01*
G01X12477Y4013D01*
G01X12517Y4055D01*
G01X12579Y4075D01*
G01X12722Y4075D01*
G01X12014Y3646D02*
G01X12219Y4075D01*
G01X12301Y3646D02*
G01X12014Y3646D01*
G01X55354Y41177D02*
G01X55334Y41217D01*
G01X55293Y41259D01*
G01X55252Y41280D01*
G01X55189Y41300D01*
G01X55088Y41300D01*
G01X55027Y41280D01*
G01X54985Y41259D01*
G01X54944Y41217D01*
G01X54925Y41177D01*
G01X54925Y41094D01*
G01X54944Y41055D01*
G01X54985Y41013D01*
G01X55027Y40992D01*
G01X55088Y40973D01*
G01X55189Y40973D01*
G01X55252Y40992D01*
G01X55293Y41013D01*
G01X55334Y41055D01*
G01X55354Y41094D01*
G01X55354Y41177D01*
G01X55006Y41115D02*
G01X54884Y40992D01*
G01X55252Y40817D02*
G01X55272Y40817D01*
G01X55313Y40796D01*
G01X55334Y40776D01*
G01X55354Y40734D01*
G01X55354Y40654D01*
G01X55334Y40613D01*
G01X55313Y40592D01*
G01X55272Y40571D01*
G01X55231Y40571D01*
G01X55189Y40592D01*
G01X55129Y40632D01*
G01X54925Y40838D01*
G01X54925Y40551D01*
G01X70346Y41473D02*
G01X70365Y41432D01*
G01X70406Y41390D01*
G01X70447Y41369D01*
G01X70510Y41350D01*
G01X70611Y41350D01*
G01X70672Y41369D01*
G01X70714Y41390D01*
G01X70755Y41432D01*
G01X70775Y41473D01*
G01X70775Y41555D01*
G01X70755Y41594D01*
G01X70714Y41636D01*
G01X70672Y41657D01*
G01X70611Y41677D01*
G01X70510Y41677D01*
G01X70447Y41657D01*
G01X70406Y41636D01*
G01X70365Y41594D01*
G01X70346Y41555D01*
G01X70346Y41473D01*
G01X70693Y41534D02*
G01X70815Y41657D01*
G01X70489Y42078D02*
G01X70550Y42057D01*
G01X70590Y42017D01*
G01X70611Y41955D01*
G01X70611Y41934D01*
G01X70590Y41873D01*
G01X70550Y41832D01*
G01X70489Y41811D01*
G01X70468Y41811D01*
G01X70406Y41832D01*
G01X70365Y41873D01*
G01X70346Y41934D01*
G01X70346Y41955D01*
G01X70365Y42017D01*
G01X70406Y42057D01*
G01X70489Y42078D01*
G01X70590Y42078D01*
G01X70693Y42057D01*
G01X70755Y42017D01*
G01X70775Y41955D01*
G01X70775Y41915D01*
G01X70755Y41853D01*
G01X70714Y41832D01*
G01X40806Y2886D02*
G01X40765Y2844D01*
G01X40746Y2784D01*
G01X40746Y2701D01*
G01X40765Y2640D01*
G01X40806Y2600D01*
G01X40847Y2600D01*
G01X40889Y2619D01*
G01X40910Y2640D01*
G01X40930Y2682D01*
G01X40971Y2805D01*
G01X40990Y2844D01*
G01X41011Y2865D01*
G01X41052Y2886D01*
G01X41114Y2886D01*
G01X41155Y2844D01*
G01X41175Y2784D01*
G01X41175Y2701D01*
G01X41155Y2640D01*
G01X41114Y2600D01*
G01X40746Y3226D02*
G01X41072Y3226D01*
G01X41135Y3205D01*
G01X41155Y3184D01*
G01X41175Y3144D01*
G01X41175Y3103D01*
G01X41155Y3061D01*
G01X41135Y3042D01*
G01X41072Y3021D01*
G01X41031Y3021D01*
G01X40827Y3361D02*
G01X40806Y3401D01*
G01X40746Y3463D01*
G01X41175Y3463D01*
G01X45406Y4436D02*
G01X45365Y4394D01*
G01X45346Y4334D01*
G01X45346Y4251D01*
G01X45365Y4190D01*
G01X45406Y4150D01*
G01X45447Y4150D01*
G01X45489Y4169D01*
G01X45510Y4190D01*
G01X45530Y4232D01*
G01X45571Y4355D01*
G01X45590Y4394D01*
G01X45611Y4415D01*
G01X45652Y4436D01*
G01X45714Y4436D01*
G01X45755Y4394D01*
G01X45775Y4334D01*
G01X45775Y4251D01*
G01X45755Y4190D01*
G01X45714Y4150D01*
G01X45346Y4776D02*
G01X45672Y4776D01*
G01X45735Y4755D01*
G01X45755Y4734D01*
G01X45775Y4694D01*
G01X45775Y4653D01*
G01X45755Y4611D01*
G01X45735Y4592D01*
G01X45672Y4571D01*
G01X45631Y4571D01*
G01X45447Y4930D02*
G01X45427Y4930D01*
G01X45386Y4951D01*
G01X45365Y4971D01*
G01X45346Y5013D01*
G01X45346Y5094D01*
G01X45365Y5136D01*
G01X45386Y5155D01*
G01X45427Y5176D01*
G01X45468Y5176D01*
G01X45510Y5155D01*
G01X45571Y5115D01*
G01X45775Y4911D01*
G01X45775Y5196D01*
G01X47635Y13842D02*
G01X47594Y13884D01*
G01X47534Y13903D01*
G01X47452Y13903D01*
G01X47390Y13884D01*
G01X47350Y13842D01*
G01X47350Y13801D01*
G01X47369Y13761D01*
G01X47390Y13740D01*
G01X47431Y13719D01*
G01X47555Y13678D01*
G01X47594Y13659D01*
G01X47615Y13638D01*
G01X47635Y13596D01*
G01X47635Y13536D01*
G01X47594Y13494D01*
G01X47534Y13475D01*
G01X47452Y13475D01*
G01X47390Y13494D01*
G01X47350Y13536D01*
G01X48077Y13801D02*
G01X48057Y13842D01*
G01X48017Y13884D01*
G01X47976Y13903D01*
G01X47893Y13903D01*
G01X47852Y13884D01*
G01X47811Y13842D01*
G01X47792Y13801D01*
G01X47771Y13740D01*
G01X47771Y13638D01*
G01X47792Y13576D01*
G01X47811Y13536D01*
G01X47852Y13494D01*
G01X47893Y13475D01*
G01X47976Y13475D01*
G01X48017Y13494D01*
G01X48057Y13536D01*
G01X48077Y13576D01*
G01X48077Y13638D01*
G01X47976Y13638D02*
G01X48077Y13638D01*
G01X48213Y13821D02*
G01X48254Y13842D01*
G01X48314Y13903D01*
G01X48314Y13475D01*
G01X63004Y33525D02*
G01X62575Y33525D01*
G01X63004Y33238D02*
G01X62575Y33238D01*
G01X62800Y33525D02*
G01X62800Y33238D01*
G01X62943Y32817D02*
G01X62984Y32857D01*
G01X63004Y32919D01*
G01X63004Y33001D01*
G01X62984Y33063D01*
G01X62943Y33104D01*
G01X62902Y33104D01*
G01X62860Y33082D01*
G01X62839Y33063D01*
G01X62819Y33021D01*
G01X62779Y32898D01*
G01X62759Y32857D01*
G01X62738Y32838D01*
G01X62697Y32817D01*
G01X62635Y32817D01*
G01X62594Y32857D01*
G01X62575Y32919D01*
G01X62575Y33001D01*
G01X62594Y33063D01*
G01X62635Y33104D01*
G01X62922Y32682D02*
G01X62943Y32640D01*
G01X63004Y32580D01*
G01X62575Y32580D01*
G54D70*
G01X56906Y32277D02*
G01X56906Y31877D01*
G01X56615Y32094D01*
G01X56615Y31986D01*
G01X56580Y31913D01*
G01X56543Y31877D01*
G01X56435Y31840D01*
G01X56361Y31840D01*
G01X56252Y31877D01*
G01X56180Y31950D01*
G01X56143Y32059D01*
G01X56143Y32167D01*
G01X56180Y32277D01*
G01X56215Y32313D01*
G01X56289Y32350D01*
G01X56652Y31601D02*
G01X56143Y31201D01*
G01X56652Y31201D02*
G01X56143Y31601D01*
G01X56906Y30961D02*
G01X56143Y30961D01*
G01X56906Y30961D02*
G01X56143Y30669D01*
G01X56906Y30378D02*
G01X56143Y30669D01*
G01X56906Y30378D02*
G01X56143Y30378D01*
G01X56906Y30065D02*
G01X56906Y29665D01*
G01X56615Y29884D01*
G01X56615Y29775D01*
G01X56580Y29703D01*
G01X56543Y29665D01*
G01X56435Y29630D01*
G01X56361Y29630D01*
G01X56252Y29665D01*
G01X56180Y29738D01*
G01X56143Y29848D01*
G01X56143Y29957D01*
G01X56180Y30065D01*
G01X56215Y30103D01*
G01X56289Y30138D01*
G01X60556Y36100D02*
G01X59793Y36100D01*
G01X60556Y36100D02*
G01X60556Y35627D01*
G01X60193Y36100D02*
G01X60193Y35809D01*
G01X60556Y35386D02*
G01X59793Y35386D01*
G01X60556Y35146D02*
G01X59793Y35146D01*
G01X60556Y35146D02*
G01X59793Y34638D01*
G01X60556Y34638D02*
G01X59793Y34638D01*
G01X60447Y33888D02*
G01X60521Y33961D01*
G01X60556Y34071D01*
G01X60556Y34215D01*
G01X60521Y34325D01*
G01X60447Y34398D01*
G01X60375Y34398D01*
G01X60302Y34361D01*
G01X60265Y34325D01*
G01X60230Y34253D01*
G01X60156Y34034D01*
G01X60121Y33961D01*
G01X60085Y33925D01*
G01X60011Y33888D01*
G01X59902Y33888D01*
G01X59830Y33961D01*
G01X59793Y34071D01*
G01X59793Y34215D01*
G01X59830Y34325D01*
G01X59902Y34398D01*
G01X60630Y32798D02*
G01X60121Y33088D01*
G01X60630Y32798D02*
G01X60121Y32507D01*
G01X60630Y31976D02*
G01X60121Y32267D01*
G01X60630Y31976D02*
G01X60121Y31684D01*
G01X60630Y31155D02*
G01X60121Y31444D01*
G01X60630Y31155D02*
G01X60121Y30863D01*
G54D69*
G01X62696Y33375D02*
G01X63125Y33375D01*
G01X62696Y33661D02*
G01X63125Y33661D01*
G01X62900Y33375D02*
G01X62900Y33661D01*
G01X62756Y34082D02*
G01X62715Y34042D01*
G01X62696Y33980D01*
G01X62696Y33898D01*
G01X62715Y33836D01*
G01X62756Y33796D01*
G01X62797Y33796D01*
G01X62839Y33817D01*
G01X62860Y33836D01*
G01X62880Y33878D01*
G01X62921Y34001D01*
G01X62940Y34042D01*
G01X62961Y34061D01*
G01X63002Y34082D01*
G01X63064Y34082D01*
G01X63105Y34042D01*
G01X63125Y33980D01*
G01X63125Y33898D01*
G01X63105Y33836D01*
G01X63064Y33796D01*
G01X62797Y34238D02*
G01X62777Y34238D01*
G01X62736Y34259D01*
G01X62715Y34279D01*
G01X62696Y34319D01*
G01X62696Y34402D01*
G01X62715Y34442D01*
G01X62736Y34463D01*
G01X62777Y34484D01*
G01X62818Y34484D01*
G01X62860Y34463D01*
G01X62921Y34421D01*
G01X63125Y34217D01*
G01X63125Y34504D01*
G54D70*
G01X68793Y34623D02*
G01X68793Y35023D01*
G01X69084Y34805D01*
G01X69084Y34913D01*
G01X69119Y34986D01*
G01X69156Y35023D01*
G01X69264Y35059D01*
G01X69338Y35059D01*
G01X69447Y35023D01*
G01X69519Y34950D01*
G01X69556Y34840D01*
G01X69556Y34732D01*
G01X69519Y34623D01*
G01X69484Y34586D01*
G01X69410Y34550D01*
G01X69047Y35298D02*
G01X69556Y35698D01*
G01X69047Y35698D02*
G01X69556Y35298D01*
G01X68793Y35938D02*
G01X69556Y35938D01*
G01X68793Y35938D02*
G01X69556Y36230D01*
G01X68793Y36521D02*
G01X69556Y36230D01*
G01X68793Y36521D02*
G01X69556Y36521D01*
G01X68793Y36834D02*
G01X68793Y37234D01*
G01X69084Y37015D01*
G01X69084Y37125D01*
G01X69119Y37196D01*
G01X69156Y37234D01*
G01X69264Y37269D01*
G01X69338Y37269D01*
G01X69447Y37234D01*
G01X69519Y37161D01*
G01X69556Y37052D01*
G01X69556Y36942D01*
G01X69519Y36834D01*
G01X69484Y36796D01*
G01X69410Y36761D01*
G01X65143Y30800D02*
G01X65906Y30800D01*
G01X65143Y30800D02*
G01X65143Y31273D01*
G01X65506Y30800D02*
G01X65506Y31090D01*
G01X65143Y31513D02*
G01X65906Y31513D01*
G01X65143Y31753D02*
G01X65906Y31753D01*
G01X65143Y31753D02*
G01X65906Y32261D01*
G01X65143Y32261D02*
G01X65906Y32261D01*
G01X65252Y33011D02*
G01X65179Y32938D01*
G01X65143Y32829D01*
G01X65143Y32684D01*
G01X65179Y32575D01*
G01X65252Y32502D01*
G01X65325Y32502D01*
G01X65397Y32538D01*
G01X65434Y32575D01*
G01X65469Y32646D01*
G01X65543Y32865D01*
G01X65579Y32938D01*
G01X65614Y32975D01*
G01X65688Y33011D01*
G01X65797Y33011D01*
G01X65869Y32938D01*
G01X65906Y32829D01*
G01X65906Y32684D01*
G01X65869Y32575D01*
G01X65797Y32502D01*
G01X65069Y34102D02*
G01X65579Y33811D01*
G01X65069Y34102D02*
G01X65579Y34392D01*
G01X65069Y34923D02*
G01X65579Y34632D01*
G01X65069Y34923D02*
G01X65579Y35215D01*
G01X65069Y35744D02*
G01X65579Y35455D01*
G01X65069Y35744D02*
G01X65579Y36036D01*
G54D69*
G01X49575Y33304D02*
G01X49575Y32875D01*
G01X49575Y33304D02*
G01X49759Y33304D01*
G01X49819Y33284D01*
G01X49840Y33263D01*
G01X49860Y33221D01*
G01X49860Y33180D01*
G01X49840Y33140D01*
G01X49819Y33119D01*
G01X49759Y33100D01*
G01X49575Y33100D01*
G01X49718Y33100D02*
G01X49860Y32875D01*
G01X49996Y33304D02*
G01X49996Y32875D01*
G01X49996Y32875D02*
G01X50242Y32875D01*
G01X50377Y33221D02*
G01X50418Y33242D01*
G01X50479Y33304D01*
G01X50479Y32875D01*
G01X49575Y25903D02*
G01X49575Y25475D01*
G01X49575Y25903D02*
G01X49759Y25903D01*
G01X49819Y25884D01*
G01X49840Y25863D01*
G01X49860Y25821D01*
G01X49860Y25780D01*
G01X49840Y25740D01*
G01X49819Y25719D01*
G01X49759Y25700D01*
G01X49575Y25700D01*
G01X49718Y25700D02*
G01X49860Y25475D01*
G01X49996Y25903D02*
G01X49996Y25475D01*
G01X49996Y25475D02*
G01X50242Y25475D01*
G01X50397Y25802D02*
G01X50397Y25821D01*
G01X50418Y25863D01*
G01X50438Y25884D01*
G01X50479Y25903D01*
G01X50560Y25903D01*
G01X50602Y25884D01*
G01X50622Y25863D01*
G01X50643Y25821D01*
G01X50643Y25780D01*
G01X50622Y25740D01*
G01X50581Y25678D01*
G01X50377Y25475D01*
G01X50663Y25475D01*
G01X9009Y31853D02*
G01X9009Y31425D01*
G01X9009Y31425D02*
G01X9254Y31425D01*
G01X9389Y31771D02*
G01X9430Y31792D01*
G01X9492Y31853D01*
G01X9492Y31425D01*
G01X1256Y22852D02*
G01X1235Y22892D01*
G01X1194Y22934D01*
G01X1155Y22953D01*
G01X1072Y22953D01*
G01X1031Y22934D01*
G01X990Y22892D01*
G01X969Y22852D01*
G01X950Y22790D01*
G01X950Y22688D01*
G01X969Y22627D01*
G01X990Y22586D01*
G01X1031Y22544D01*
G01X1072Y22525D01*
G01X1155Y22525D01*
G01X1194Y22544D01*
G01X1235Y22586D01*
G01X1256Y22627D01*
G01X1493Y22953D02*
G01X1432Y22934D01*
G01X1411Y22892D01*
G01X1411Y22852D01*
G01X1432Y22811D01*
G01X1473Y22790D01*
G01X1555Y22769D01*
G01X1617Y22750D01*
G01X1657Y22709D01*
G01X1677Y22667D01*
G01X1677Y22605D01*
G01X1657Y22565D01*
G01X1636Y22544D01*
G01X1576Y22525D01*
G01X1493Y22525D01*
G01X1432Y22544D01*
G01X1411Y22565D01*
G01X1392Y22605D01*
G01X1392Y22667D01*
G01X1411Y22709D01*
G01X1452Y22750D01*
G01X1514Y22769D01*
G01X1596Y22790D01*
G01X1636Y22811D01*
G01X1657Y22852D01*
G01X1657Y22892D01*
G01X1636Y22934D01*
G01X1576Y22953D01*
G01X1493Y22953D01*
G01X1106Y25102D02*
G01X1085Y25142D01*
G01X1044Y25184D01*
G01X1005Y25203D01*
G01X922Y25203D01*
G01X881Y25184D01*
G01X840Y25142D01*
G01X819Y25102D01*
G01X800Y25040D01*
G01X800Y24938D01*
G01X819Y24877D01*
G01X840Y24836D01*
G01X881Y24794D01*
G01X922Y24775D01*
G01X1005Y24775D01*
G01X1044Y24794D01*
G01X1085Y24836D01*
G01X1106Y24877D01*
G01X1242Y25121D02*
G01X1282Y25142D01*
G01X1343Y25203D01*
G01X1343Y24775D01*
G01X1684Y25203D02*
G01X1478Y24917D01*
G01X1785Y24917D01*
G01X1684Y25203D02*
G01X1684Y24775D01*
G01X19821Y23228D02*
G01X19821Y23657D01*
G01X19821Y23228D02*
G01X19637Y23228D01*
G01X19576Y23248D01*
G01X19555Y23269D01*
G01X19535Y23311D01*
G01X19535Y23352D01*
G01X19555Y23392D01*
G01X19576Y23413D01*
G01X19637Y23432D01*
G01X19821Y23432D01*
G01X19678Y23432D02*
G01X19535Y23657D01*
G01X19379Y23330D02*
G01X19379Y23311D01*
G01X19359Y23269D01*
G01X19338Y23248D01*
G01X19297Y23228D01*
G01X19216Y23228D01*
G01X19175Y23248D01*
G01X19154Y23269D01*
G01X19134Y23311D01*
G01X19134Y23352D01*
G01X19154Y23392D01*
G01X19195Y23453D01*
G01X19400Y23657D01*
G01X19113Y23657D01*
G01X18856Y23228D02*
G01X18917Y23248D01*
G01X18958Y23311D01*
G01X18978Y23413D01*
G01X18978Y23473D01*
G01X18958Y23577D01*
G01X18917Y23638D01*
G01X18856Y23657D01*
G01X18815Y23657D01*
G01X18753Y23638D01*
G01X18712Y23577D01*
G01X18692Y23473D01*
G01X18692Y23413D01*
G01X18712Y23311D01*
G01X18753Y23248D01*
G01X18815Y23228D01*
G01X18856Y23228D01*
G01X29925Y27573D02*
G01X29925Y27267D01*
G01X29944Y27205D01*
G01X29985Y27165D01*
G01X30047Y27144D01*
G01X30089Y27144D01*
G01X30150Y27165D01*
G01X30190Y27205D01*
G01X30210Y27267D01*
G01X30210Y27573D01*
G01X30367Y27471D02*
G01X30367Y27492D01*
G01X30386Y27532D01*
G01X30407Y27553D01*
G01X30448Y27573D01*
G01X30530Y27573D01*
G01X30571Y27553D01*
G01X30592Y27532D01*
G01X30611Y27492D01*
G01X30611Y27451D01*
G01X30592Y27409D01*
G01X30551Y27348D01*
G01X30346Y27144D01*
G01X30632Y27144D01*
G01X17925Y26523D02*
G01X17925Y26217D01*
G01X17944Y26155D01*
G01X17985Y26115D01*
G01X18047Y26094D01*
G01X18089Y26094D01*
G01X18150Y26115D01*
G01X18190Y26155D01*
G01X18210Y26217D01*
G01X18210Y26523D01*
G01X18551Y26523D02*
G01X18346Y26238D01*
G01X18652Y26238D01*
G01X18551Y26523D02*
G01X18551Y26094D01*
G01X15146Y25050D02*
G01X15575Y25050D01*
G01X15146Y25050D02*
G01X15146Y25192D01*
G01X15165Y25255D01*
G01X15206Y25294D01*
G01X15247Y25315D01*
G01X15310Y25336D01*
G01X15411Y25336D01*
G01X15472Y25315D01*
G01X15514Y25294D01*
G01X15555Y25255D01*
G01X15575Y25192D01*
G01X15575Y25050D01*
G01X15146Y25717D02*
G01X15146Y25511D01*
G01X15330Y25492D01*
G01X15310Y25511D01*
G01X15289Y25573D01*
G01X15289Y25634D01*
G01X15310Y25696D01*
G01X15350Y25736D01*
G01X15411Y25757D01*
G01X15452Y25757D01*
G01X15514Y25736D01*
G01X15555Y25696D01*
G01X15575Y25634D01*
G01X15575Y25573D01*
G01X15555Y25511D01*
G01X15535Y25492D01*
G01X15493Y25471D01*
G01X42946Y31314D02*
G01X43375Y31314D01*
G01X42946Y31314D02*
G01X42946Y31457D01*
G01X42965Y31519D01*
G01X43006Y31559D01*
G01X43047Y31580D01*
G01X43110Y31600D01*
G01X43211Y31600D01*
G01X43272Y31580D01*
G01X43314Y31559D01*
G01X43355Y31519D01*
G01X43375Y31457D01*
G01X43375Y31314D01*
G01X43047Y31756D02*
G01X43027Y31756D01*
G01X42986Y31776D01*
G01X42965Y31797D01*
G01X42946Y31838D01*
G01X42946Y31919D01*
G01X42965Y31960D01*
G01X42986Y31981D01*
G01X43027Y32001D01*
G01X43068Y32001D01*
G01X43110Y31981D01*
G01X43171Y31940D01*
G01X43375Y31735D01*
G01X43375Y32022D01*
G01X43196Y23414D02*
G01X43625Y23414D01*
G01X43196Y23414D02*
G01X43196Y23557D01*
G01X43215Y23619D01*
G01X43256Y23659D01*
G01X43297Y23680D01*
G01X43360Y23700D01*
G01X43461Y23700D01*
G01X43522Y23680D01*
G01X43564Y23659D01*
G01X43605Y23619D01*
G01X43625Y23557D01*
G01X43625Y23414D01*
G01X43277Y23835D02*
G01X43256Y23876D01*
G01X43196Y23938D01*
G01X43625Y23938D01*
G01X43277Y24073D02*
G01X43256Y24114D01*
G01X43196Y24175D01*
G01X43625Y24175D01*
G01X45943Y5598D02*
G01X45964Y5557D01*
G01X46005Y5515D01*
G01X46044Y5496D01*
G01X46127Y5496D01*
G01X46168Y5515D01*
G01X46209Y5557D01*
G01X46230Y5598D01*
G01X46250Y5659D01*
G01X46250Y5761D01*
G01X46230Y5823D01*
G01X46209Y5863D01*
G01X46168Y5905D01*
G01X46127Y5925D01*
G01X46044Y5925D01*
G01X46005Y5905D01*
G01X45964Y5863D01*
G01X45943Y5823D01*
G01X45788Y5598D02*
G01X45788Y5578D01*
G01X45767Y5536D01*
G01X45747Y5515D01*
G01X45706Y5496D01*
G01X45623Y5496D01*
G01X45582Y5515D01*
G01X45563Y5536D01*
G01X45542Y5578D01*
G01X45542Y5619D01*
G01X45563Y5659D01*
G01X45604Y5721D01*
G01X45807Y5925D01*
G01X45522Y5925D01*
G01X45181Y5496D02*
G01X45386Y5782D01*
G01X45080Y5782D01*
G01X45181Y5496D02*
G01X45181Y5925D01*
G01X44104Y12800D02*
G01X43675Y12800D01*
G01X44104Y12800D02*
G01X44104Y12657D01*
G01X44084Y12594D01*
G01X44043Y12555D01*
G01X44002Y12534D01*
G01X43939Y12513D01*
G01X43838Y12513D01*
G01X43777Y12534D01*
G01X43735Y12555D01*
G01X43694Y12594D01*
G01X43675Y12657D01*
G01X43675Y12800D01*
G01X44104Y12338D02*
G01X44104Y12113D01*
G01X43939Y12234D01*
G01X43939Y12173D01*
G01X43919Y12132D01*
G01X43900Y12113D01*
G01X43838Y12092D01*
G01X43797Y12092D01*
G01X43735Y12113D01*
G01X43694Y12153D01*
G01X43675Y12215D01*
G01X43675Y12276D01*
G01X43694Y12338D01*
G01X43714Y12357D01*
G01X43756Y12378D01*
G01X11697Y21007D02*
G01X11656Y20986D01*
G01X11615Y20944D01*
G01X11596Y20905D01*
G01X11596Y20823D01*
G01X11615Y20782D01*
G01X11656Y20740D01*
G01X11697Y20719D01*
G01X11760Y20700D01*
G01X11861Y20700D01*
G01X11922Y20719D01*
G01X11964Y20740D01*
G01X12005Y20782D01*
G01X12025Y20823D01*
G01X12025Y20905D01*
G01X12005Y20944D01*
G01X11964Y20986D01*
G01X11922Y21007D01*
G01X11739Y21407D02*
G01X11800Y21386D01*
G01X11840Y21346D01*
G01X11861Y21284D01*
G01X11861Y21265D01*
G01X11840Y21203D01*
G01X11800Y21161D01*
G01X11739Y21142D01*
G01X11718Y21142D01*
G01X11656Y21161D01*
G01X11615Y21203D01*
G01X11596Y21265D01*
G01X11596Y21284D01*
G01X11615Y21346D01*
G01X11656Y21386D01*
G01X11739Y21407D01*
G01X11840Y21407D01*
G01X11943Y21386D01*
G01X12005Y21346D01*
G01X12025Y21284D01*
G01X12025Y21244D01*
G01X12005Y21182D01*
G01X11964Y21161D01*
G01X11050Y21646D02*
G01X11050Y22075D01*
G01X11050Y21646D02*
G01X10906Y21646D01*
G01X10844Y21665D01*
G01X10805Y21707D01*
G01X10784Y21748D01*
G01X10764Y21809D01*
G01X10764Y21911D01*
G01X10784Y21973D01*
G01X10805Y22013D01*
G01X10844Y22055D01*
G01X10906Y22075D01*
G01X11050Y22075D01*
G01X10423Y21646D02*
G01X10628Y21932D01*
G01X10322Y21932D01*
G01X10423Y21646D02*
G01X10423Y22075D01*
G01X46250Y17053D02*
G01X46250Y16625D01*
G01X46250Y17053D02*
G01X46393Y17053D01*
G01X46455Y17034D01*
G01X46494Y16992D01*
G01X46515Y16952D01*
G01X46535Y16890D01*
G01X46535Y16788D01*
G01X46515Y16727D01*
G01X46494Y16686D01*
G01X46455Y16644D01*
G01X46393Y16625D01*
G01X46250Y16625D01*
G01X46773Y17053D02*
G01X46711Y17034D01*
G01X46692Y16992D01*
G01X46692Y16952D01*
G01X46711Y16911D01*
G01X46752Y16890D01*
G01X46835Y16869D01*
G01X46896Y16850D01*
G01X46936Y16809D01*
G01X46957Y16767D01*
G01X46957Y16705D01*
G01X46936Y16665D01*
G01X46917Y16644D01*
G01X46855Y16625D01*
G01X46773Y16625D01*
G01X46711Y16644D01*
G01X46692Y16665D01*
G01X46671Y16705D01*
G01X46671Y16767D01*
G01X46692Y16809D01*
G01X46732Y16850D01*
G01X46793Y16869D01*
G01X46876Y16890D01*
G01X46917Y16911D01*
G01X46936Y16952D01*
G01X46936Y16992D01*
G01X46917Y17034D01*
G01X46855Y17053D01*
G01X46773Y17053D01*
G01X17064Y32854D02*
G01X17064Y32425D01*
G01X17064Y32854D02*
G01X17207Y32854D01*
G01X17269Y32834D01*
G01X17309Y32792D01*
G01X17330Y32752D01*
G01X17350Y32690D01*
G01X17350Y32588D01*
G01X17330Y32527D01*
G01X17309Y32486D01*
G01X17269Y32444D01*
G01X17207Y32425D01*
G01X17064Y32425D01*
G01X17751Y32711D02*
G01X17731Y32650D01*
G01X17690Y32609D01*
G01X17629Y32588D01*
G01X17608Y32588D01*
G01X17547Y32609D01*
G01X17506Y32650D01*
G01X17485Y32711D01*
G01X17485Y32730D01*
G01X17506Y32792D01*
G01X17547Y32834D01*
G01X17608Y32854D01*
G01X17629Y32854D01*
G01X17690Y32834D01*
G01X17731Y32792D01*
G01X17751Y32711D01*
G01X17751Y32609D01*
G01X17731Y32505D01*
G01X17690Y32444D01*
G01X17629Y32425D01*
G01X17588Y32425D01*
G01X17526Y32444D01*
G01X17506Y32486D01*
G01X34404Y26450D02*
G01X33975Y26450D01*
G01X34404Y26450D02*
G01X34404Y26307D01*
G01X34384Y26244D01*
G01X34343Y26205D01*
G01X34302Y26184D01*
G01X34239Y26163D01*
G01X34138Y26163D01*
G01X34077Y26184D01*
G01X34035Y26205D01*
G01X33994Y26244D01*
G01X33975Y26307D01*
G01X33975Y26450D01*
G01X34322Y26028D02*
G01X34343Y25988D01*
G01X34404Y25926D01*
G01X33975Y25926D01*
G01X34404Y25669D02*
G01X34384Y25730D01*
G01X34322Y25771D01*
G01X34219Y25790D01*
G01X34159Y25790D01*
G01X34056Y25771D01*
G01X33994Y25730D01*
G01X33975Y25669D01*
G01X33975Y25628D01*
G01X33994Y25565D01*
G01X34056Y25525D01*
G01X34159Y25505D01*
G01X34219Y25505D01*
G01X34322Y25525D01*
G01X34384Y25565D01*
G01X34404Y25628D01*
G01X34404Y25669D01*
G01X71228Y7837D02*
G01X70799Y7837D01*
G01X71228Y7837D02*
G01X71228Y7571D01*
G01X71024Y7837D02*
G01X71024Y7673D01*
G01X71228Y7395D02*
G01X71228Y7170D01*
G01X71064Y7293D01*
G01X71064Y7232D01*
G01X71044Y7191D01*
G01X71024Y7170D01*
G01X70962Y7150D01*
G01X70921Y7150D01*
G01X70860Y7170D01*
G01X70819Y7211D01*
G01X70799Y7272D01*
G01X70799Y7334D01*
G01X70819Y7395D01*
G01X70839Y7416D01*
G01X70880Y7436D01*
G54D70*
G01X64906Y12109D02*
G01X64143Y12400D01*
G01X64906Y12109D02*
G01X64143Y11817D01*
G01X64397Y12290D02*
G01X64397Y11926D01*
G01X64906Y11578D02*
G01X64143Y11578D01*
G01X64906Y11338D02*
G01X64143Y11338D01*
G01X64906Y11338D02*
G01X64906Y11011D01*
G01X64871Y10901D01*
G01X64835Y10865D01*
G01X64761Y10828D01*
G01X64689Y10828D01*
G01X64615Y10865D01*
G01X64580Y10901D01*
G01X64543Y11011D01*
G01X64543Y11338D01*
G01X64543Y11084D02*
G01X64143Y10828D01*
G01X64906Y10028D02*
G01X64143Y10028D01*
G01X64906Y10028D02*
G01X64906Y9555D01*
G01X64543Y10028D02*
G01X64543Y9738D01*
G01X64906Y9315D02*
G01X64143Y9315D01*
G01X64143Y9315D02*
G01X64143Y8880D01*
G01X64906Y8421D02*
G01X64871Y8494D01*
G01X64797Y8567D01*
G01X64725Y8603D01*
G01X64615Y8640D01*
G01X64435Y8640D01*
G01X64325Y8603D01*
G01X64252Y8567D01*
G01X64180Y8494D01*
G01X64143Y8421D01*
G01X64143Y8276D01*
G01X64180Y8203D01*
G01X64252Y8130D01*
G01X64325Y8094D01*
G01X64435Y8057D01*
G01X64615Y8057D01*
G01X64725Y8094D01*
G01X64797Y8130D01*
G01X64871Y8203D01*
G01X64906Y8276D01*
G01X64906Y8421D01*
G01X64906Y7817D02*
G01X64143Y7636D01*
G01X64906Y7455D02*
G01X64143Y7636D01*
G01X64906Y7455D02*
G01X64143Y7273D01*
G01X64906Y7090D02*
G01X64143Y7273D01*
G54D69*
G01X21653Y8035D02*
G01X21225Y8035D01*
G01X21653Y8035D02*
G01X21653Y7892D01*
G01X21634Y7830D01*
G01X21593Y7790D01*
G01X21552Y7769D01*
G01X21489Y7749D01*
G01X21388Y7749D01*
G01X21327Y7769D01*
G01X21285Y7790D01*
G01X21244Y7830D01*
G01X21225Y7892D01*
G01X21225Y8035D01*
G01X21593Y7368D02*
G01X21634Y7389D01*
G01X21653Y7450D01*
G01X21653Y7491D01*
G01X21634Y7552D01*
G01X21572Y7593D01*
G01X21469Y7614D01*
G01X21368Y7614D01*
G01X21285Y7593D01*
G01X21244Y7552D01*
G01X21225Y7491D01*
G01X21225Y7470D01*
G01X21244Y7409D01*
G01X21285Y7368D01*
G01X21347Y7348D01*
G01X21368Y7348D01*
G01X21428Y7368D01*
G01X21469Y7409D01*
G01X21489Y7470D01*
G01X21489Y7491D01*
G01X21469Y7552D01*
G01X21428Y7593D01*
G01X21368Y7614D01*
G54D68*
G75*
G01X16770Y11384D02*
G03X16770Y11384I78J0D01*
G01*
G54D62*
G75*
G01X33532Y4836D02*
G03X33500Y4805I0J-31D01*
G01*
G75*
G01X33768Y4836D02*
G02X33800Y4805I0J-31D01*
G01*
G75*
G01X33532Y4364D02*
G02X33500Y4395I0J31D01*
G01*
G75*
G01X33768Y4364D02*
G03X33800Y4395I0J31D01*
G01*
G75*
G01X35432Y4836D02*
G03X35400Y4805I0J-31D01*
G01*
G75*
G01X35668Y4836D02*
G02X35700Y4805I0J-31D01*
G01*
G75*
G01X35432Y4364D02*
G02X35400Y4395I0J31D01*
G01*
G75*
G01X35668Y4364D02*
G03X35700Y4395I0J31D01*
G01*
G54D10*
G75*
G01X34317Y21265D02*
G02X34553Y21265I118J0D01*
G01*
G75*
G01X62200Y46697D02*
G02X62200Y46303I0J-197D01*
G01*
G75*
G01X63500Y46303D02*
G02X63500Y46697I0J197D01*
G01*
G75*
G01X62693Y46903D02*
G02X63007Y46900I157J-2D01*
G01*
G75*
G01X63007Y46098D02*
G02X62693Y46100I-157J1D01*
G01*
G54D62*
G75*
G01X14518Y13364D02*
G03X14550Y13395I0J31D01*
G01*
G75*
G01X14282Y13364D02*
G02X14250Y13395I0J31D01*
G01*
G75*
G01X14518Y13836D02*
G02X14550Y13805I0J-31D01*
G01*
G75*
G01X14282Y13836D02*
G03X14250Y13805I0J-31D01*
G01*
G75*
G01X17882Y8986D02*
G03X17850Y8955I0J-31D01*
G01*
G75*
G01X18118Y8986D02*
G02X18150Y8955I0J-31D01*
G01*
G75*
G01X17882Y8514D02*
G02X17850Y8545I0J31D01*
G01*
G75*
G01X18118Y8514D02*
G03X18150Y8545I0J31D01*
G01*
G75*
G01X35186Y21868D02*
G03X35155Y21900I-31J0D01*
G01*
G75*
G01X35186Y21632D02*
G02X35155Y21600I-31J0D01*
G01*
G75*
G01X34714Y21868D02*
G02X34745Y21900I31J0D01*
G01*
G75*
G01X34714Y21632D02*
G03X34745Y21600I31J0D01*
G01*
G75*
G01X31886Y27568D02*
G03X31855Y27600I-31J0D01*
G01*
G75*
G01X31886Y27332D02*
G02X31855Y27300I-31J0D01*
G01*
G75*
G01X31414Y27568D02*
G02X31445Y27600I31J0D01*
G01*
G75*
G01X31414Y27332D02*
G03X31445Y27300I31J0D01*
G01*
G75*
G01X42768Y10214D02*
G03X42800Y10245I0J31D01*
G01*
G75*
G01X42532Y10214D02*
G02X42500Y10245I0J31D01*
G01*
G75*
G01X42768Y10686D02*
G02X42800Y10655I0J-31D01*
G01*
G75*
G01X42532Y10686D02*
G03X42500Y10655I0J-31D01*
G01*
G75*
G01X31036Y17018D02*
G03X31005Y17050I-31J0D01*
G01*
G75*
G01X31036Y16782D02*
G02X31005Y16750I-31J0D01*
G01*
G75*
G01X30564Y17018D02*
G02X30595Y17050I31J0D01*
G01*
G75*
G01X30564Y16782D02*
G03X30595Y16750I31J0D01*
G01*
G75*
G01X2064Y26632D02*
G03X2095Y26600I31J0D01*
G01*
G75*
G01X2064Y26868D02*
G02X2095Y26900I31J0D01*
G01*
G75*
G01X2536Y26632D02*
G02X2505Y26600I-31J0D01*
G01*
G75*
G01X2536Y26868D02*
G03X2505Y26900I-31J0D01*
G01*
G75*
G01X3086Y30668D02*
G03X3055Y30700I-31J0D01*
G01*
G75*
G01X3086Y30432D02*
G02X3055Y30400I-31J0D01*
G01*
G75*
G01X2614Y30668D02*
G02X2645Y30700I31J0D01*
G01*
G75*
G01X2614Y30432D02*
G03X2645Y30400I31J0D01*
G01*
G75*
G01X1582Y27736D02*
G03X1550Y27705I0J-31D01*
G01*
G75*
G01X1818Y27736D02*
G02X1850Y27705I0J-31D01*
G01*
G75*
G01X1582Y27264D02*
G02X1550Y27295I0J31D01*
G01*
G75*
G01X1818Y27264D02*
G03X1850Y27295I0J31D01*
G01*
G75*
G01X4782Y28986D02*
G03X4750Y28955I0J-31D01*
G01*
G75*
G01X5018Y28986D02*
G02X5050Y28955I0J-31D01*
G01*
G75*
G01X4782Y28514D02*
G02X4750Y28545I0J31D01*
G01*
G75*
G01X5018Y28514D02*
G03X5050Y28545I0J31D01*
G01*
G75*
G01X5232Y28986D02*
G03X5200Y28955I0J-31D01*
G01*
G75*
G01X5468Y28986D02*
G02X5500Y28955I0J-31D01*
G01*
G75*
G01X5232Y28514D02*
G02X5200Y28545I0J31D01*
G01*
G75*
G01X5468Y28514D02*
G03X5500Y28545I0J31D01*
G01*
G75*
G01X11568Y27414D02*
G03X11600Y27445I0J31D01*
G01*
G75*
G01X11332Y27414D02*
G02X11300Y27445I0J31D01*
G01*
G75*
G01X11568Y27886D02*
G02X11600Y27855I0J-31D01*
G01*
G75*
G01X11332Y27886D02*
G03X11300Y27855I0J-31D01*
G01*
G75*
G01X23968Y28014D02*
G03X24000Y28045I0J31D01*
G01*
G75*
G01X23732Y28014D02*
G02X23700Y28045I0J31D01*
G01*
G75*
G01X23968Y28486D02*
G02X24000Y28455I0J-31D01*
G01*
G75*
G01X23732Y28486D02*
G03X23700Y28455I0J-31D01*
G01*
G75*
G01X17314Y22882D02*
G03X17345Y22850I31J0D01*
G01*
G75*
G01X17314Y23118D02*
G02X17345Y23150I31J0D01*
G01*
G75*
G01X17786Y22882D02*
G02X17755Y22850I-31J0D01*
G01*
G75*
G01X17786Y23118D02*
G03X17755Y23150I-31J0D01*
G01*
G54D10*
G75*
G01X17702Y29253D02*
G02X17602Y29153I-100J0D01*
G01*
G75*
G01X17702Y30347D02*
G03X17602Y30447I-100J0D01*
G01*
G75*
G01X13798Y30447D02*
G03X13698Y30347I0J-100D01*
G01*
G75*
G01X13798Y29148D02*
G02X13698Y29248I0J100D01*
G01*
G75*
G01X46848Y39647D02*
G02X46948Y39747I100J0D01*
G01*
G75*
G01X46848Y38553D02*
G03X46948Y38453I100J0D01*
G01*
G75*
G01X50752Y38453D02*
G03X50852Y38553I0J100D01*
G01*
G75*
G01X50752Y39752D02*
G02X50852Y39652I0J-100D01*
G01*
G75*
G01X25500Y9400D02*
G03X25500Y10400I0J500D01*
G01*
G54D67*
G75*
G01X2010Y30110D02*
G03X2010Y30109I-59J0D01*
G01*
G54D10*
G75*
G01X2736Y30010D02*
G03X3065Y30010I165J0D01*
G01*
G75*
G01X35880Y7334D02*
G02X35880Y5366I-3J-984D01*
G01*
G75*
G01X33320Y5366D02*
G02X33320Y7334I3J984D01*
G01*
G75*
G01X35860Y7059D02*
G02X35781Y5641I-42J-709D01*
G01*
G75*
G01X33340Y5641D02*
G02X33340Y7059I0J709D01*
G01*
G75*
G01X41200Y2900D02*
G02X41300Y3000I100J0D01*
G01*
G75*
G01X41300Y1800D02*
G02X41200Y1900I0J100D01*
G01*
G75*
G01X41900Y1800D02*
G03X42000Y1900I0J100D01*
G01*
G75*
G01X42000Y2900D02*
G03X41900Y3000I-100J0D01*
G01*
G75*
G01X45800Y4450D02*
G02X45900Y4550I100J0D01*
G01*
G75*
G01X45900Y3350D02*
G02X45800Y3450I0J100D01*
G01*
G75*
G01X46500Y3350D02*
G03X46600Y3450I0J100D01*
G01*
G75*
G01X46600Y4450D02*
G03X46500Y4550I-100J0D01*
G01*
G75*
G01X46250Y12150D02*
G03X48650Y12150I1200J-1500D01*
G01*
G75*
G01X46250Y12150D02*
G02X48650Y12150I1200J41D01*
G01*
G75*
G01X28070Y26036D02*
G02X28070Y25572I17J-232D01*
G01*
G75*
G01X16070Y24986D02*
G02X16070Y24522I17J-232D01*
G01*
G54D62*
G75*
G01X44414Y5432D02*
G03X44445Y5400I31J0D01*
G01*
G75*
G01X44414Y5668D02*
G02X44445Y5700I31J0D01*
G01*
G75*
G01X44886Y5432D02*
G02X44855Y5400I-31J0D01*
G01*
G75*
G01X44886Y5668D02*
G03X44855Y5700I-31J0D01*
G01*
G75*
G01X11732Y22036D02*
G03X11700Y22005I0J-31D01*
G01*
G75*
G01X11968Y22036D02*
G02X12000Y22005I0J-31D01*
G01*
G75*
G01X11732Y21564D02*
G02X11700Y21595I0J31D01*
G01*
G75*
G01X11968Y21564D02*
G03X12000Y21595I0J31D01*
G01*
G54D10*
G75*
G01X8400Y11450D02*
G03X8400Y11450I-100J0D01*
G01*
G75*
G01X49150Y36000D02*
G03X49150Y36000I-100J0D01*
G01*
G75*
G01X13230Y8100D02*
G03X13230Y8100I-1280J0D01*
G01*
G75*
G01X20080Y12100D02*
G03X20080Y12100I-1280J0D01*
G01*
G75*
G01X8780Y33450D02*
G03X8780Y33450I-1280J0D01*
G01*
G75*
G01X12130Y33450D02*
G03X12130Y33450I-1280J0D01*
G01*
G75*
G01X63736Y46500D02*
G03X63736Y46500I-886J0D01*
G01*
G75*
G01X13470Y22710D02*
G03X13470Y22710I-40J0D01*
G01*
G75*
G01X31130Y27180D02*
G03X31130Y27180I-40J0D01*
G01*
G75*
G01X41000Y35650D02*
G03X41000Y35650I-800J0D01*
G01*
G75*
G01X43000Y35650D02*
G03X43000Y35650I-800J0D01*
G01*
G75*
G01X7900Y6050D02*
G03X7900Y6050I-800J0D01*
G01*
G75*
G01X7900Y8050D02*
G03X7900Y8050I-800J0D01*
G01*
G75*
G01X21828Y29831D02*
G03X21828Y29831I-79J0D01*
G01*
G75*
G01X49812Y10650D02*
G03X49812Y10650I-2362J0D01*
G01*
G75*
G01X47950Y10650D02*
G03X47950Y10650I-500J0D01*
G01*
G54D67*
G75*
G01X3884Y22750D02*
G03X3884Y22750I-984J0D01*
G01*
G75*
G01X3884Y25050D02*
G03X3884Y25050I-984J0D01*
G01*
G54D10*
G75*
G01X28075Y24750D02*
G03X28075Y24750I-75J0D01*
G01*
G75*
G01X16075Y23700D02*
G03X16075Y23700I-75J0D01*
G01*

%LPD*%
G36*
G01X3625Y23381D02*
G01X3606Y23400D01*
G01X3606Y22100D01*
G01X3625Y22118D01*
G01X3644Y22138D01*
G01X3662Y22158D01*
G01X3679Y22178D01*
G01X3696Y22199D01*
G01X3712Y22221D01*
G01X3742Y22265D01*
G01X3756Y22288D01*
G01X3770Y22312D01*
G01X3783Y22335D01*
G01X3795Y22359D01*
G01X3806Y22384D01*
G01X3817Y22408D01*
G01X3826Y22433D01*
G01X3835Y22459D01*
G01X3844Y22484D01*
G01X3858Y22536D01*
G01X3864Y22563D01*
G01X3874Y22615D01*
G01X3880Y22669D01*
G01X3882Y22696D01*
G01X3884Y22750D01*
G01X3883Y22776D01*
G01X3882Y22803D01*
G01X3880Y22830D01*
G01X3874Y22884D01*
G01X3864Y22936D01*
G01X3858Y22963D01*
G01X3844Y23015D01*
G01X3835Y23040D01*
G01X3826Y23066D01*
G01X3817Y23091D01*
G01X3806Y23115D01*
G01X3795Y23140D01*
G01X3783Y23164D01*
G01X3770Y23187D01*
G01X3756Y23211D01*
G01X3742Y23234D01*
G01X3712Y23278D01*
G01X3696Y23300D01*
G01X3679Y23321D01*
G01X3662Y23341D01*
G01X3644Y23361D01*
G01X3625Y23381D01*
G37*

%LPD*%
G36*
G01X3625Y25681D02*
G01X3606Y25700D01*
G01X3606Y24400D01*
G01X3625Y24418D01*
G01X3644Y24438D01*
G01X3662Y24458D01*
G01X3679Y24478D01*
G01X3696Y24499D01*
G01X3712Y24521D01*
G01X3742Y24565D01*
G01X3756Y24588D01*
G01X3770Y24612D01*
G01X3783Y24635D01*
G01X3795Y24659D01*
G01X3806Y24684D01*
G01X3817Y24708D01*
G01X3826Y24733D01*
G01X3835Y24759D01*
G01X3844Y24784D01*
G01X3858Y24836D01*
G01X3864Y24863D01*
G01X3874Y24915D01*
G01X3880Y24969D01*
G01X3882Y24996D01*
G01X3884Y25050D01*
G01X3883Y25076D01*
G01X3882Y25103D01*
G01X3880Y25130D01*
G01X3874Y25184D01*
G01X3864Y25236D01*
G01X3858Y25263D01*
G01X3844Y25315D01*
G01X3835Y25340D01*
G01X3826Y25366D01*
G01X3817Y25391D01*
G01X3806Y25415D01*
G01X3795Y25440D01*
G01X3783Y25464D01*
G01X3770Y25487D01*
G01X3756Y25511D01*
G01X3742Y25534D01*
G01X3712Y25578D01*
G01X3696Y25600D01*
G01X3679Y25621D01*
G01X3662Y25641D01*
G01X3644Y25661D01*
G01X3625Y25681D01*
G37*
M00*
M02*
