G04 Layer: BottomSolderMaskLayer*
G04 EasyEDA v6.3.22, 2020-03-14T22:20:27--7:00*
G04 457ca038791a4c03a2b045dd88f7922b,93ea2736136a419895ea0886014cbf9b,10*
G04 Gerber Generator version 0.2*
G04 Scale: 100 percent, Rotated: No, Reflected: No *
G04 Dimensions in inches *
G04 leading zeros omitted , absolute positions ,2 integer and 4 decimal *
%FSLAX24Y24*%
%MOIN*%
G90*
G70D02*

%ADD71C,0.086740*%
%ADD73C,0.088000*%
%ADD74C,0.068000*%
%ADD81C,0.073000*%
%ADD82R,0.073000X0.073000*%
%ADD83R,0.082000X0.141200*%
%ADD84C,0.067055*%
%ADD99C,0.086700*%
%ADD103C,0.102488*%
%ADD105C,0.078866*%
%ADD106C,0.165480*%
%ADD107C,0.104700*%
%ADD108C,0.066700*%
%ADD110C,0.059181*%

%LPD*%
G54D71*
G01X13100Y24946D02*
G01X13100Y24553D01*
G01X11099Y24946D02*
G01X11099Y24553D01*
G01X9099Y24946D02*
G01X9099Y24553D01*
G01X7099Y24946D02*
G01X7099Y24553D01*
G54D73*
G01X53800Y41300D02*
G01X53600Y41300D01*
G01X53800Y40300D02*
G01X53600Y40300D01*
G01X53800Y42300D02*
G01X53600Y42300D01*
G01X71900Y41350D02*
G01X72100Y41350D01*
G01X71900Y42350D02*
G01X72100Y42350D01*
G01X71900Y40350D02*
G01X72100Y40350D01*
G54D74*
G01X34507Y1400D03*
G01X35492Y1400D03*
G01X36476Y1400D03*
G01X37460Y1400D03*
G01X38444Y1400D03*
G01X33523Y1400D03*
G01X32539Y1400D03*
G01X31555Y1400D03*
G36*
G01X3947Y10844D02*
G01X3947Y12055D01*
G01X4653Y12055D01*
G01X4653Y10844D01*
G01X3947Y10844D01*
G37*
G36*
G01X11947Y10844D02*
G01X11947Y12055D01*
G01X12653Y12055D01*
G01X12653Y10844D01*
G01X11947Y10844D01*
G37*
G36*
G01X5947Y10844D02*
G01X5947Y12055D01*
G01X6653Y12055D01*
G01X6653Y10844D01*
G01X5947Y10844D01*
G37*
G36*
G01X9947Y10844D02*
G01X9947Y12055D01*
G01X10653Y12055D01*
G01X10653Y10844D01*
G01X9947Y10844D01*
G37*
G36*
G01X44697Y35394D02*
G01X44697Y36605D01*
G01X45404Y36605D01*
G01X45404Y35394D01*
G01X44697Y35394D01*
G37*
G36*
G01X52697Y35394D02*
G01X52697Y36605D01*
G01X53404Y36605D01*
G01X53404Y35394D01*
G01X52697Y35394D01*
G37*
G36*
G01X46697Y35394D02*
G01X46697Y36605D01*
G01X47404Y36605D01*
G01X47404Y35394D01*
G01X46697Y35394D01*
G37*
G36*
G01X50697Y35394D02*
G01X50697Y36605D01*
G01X51404Y36605D01*
G01X51404Y35394D01*
G01X50697Y35394D01*
G37*
G54D81*
G01X11950Y7600D03*
G54D82*
G01X11950Y8600D03*
G54D81*
G01X18800Y11600D03*
G54D82*
G01X18800Y12600D03*
G54D81*
G01X7500Y33950D03*
G36*
G01X7135Y32584D02*
G01X7135Y33315D01*
G01X7864Y33315D01*
G01X7864Y32584D01*
G01X7135Y32584D01*
G37*
G01X10850Y33950D03*
G36*
G01X10485Y32584D02*
G01X10485Y33315D01*
G01X11214Y33315D01*
G01X11214Y32584D01*
G01X10485Y32584D01*
G37*
G54D83*
G01X43000Y2500D03*
G01X44000Y2500D03*
G01X45000Y2500D03*
G54D84*
G01X29916Y15531D03*
G36*
G01X30565Y15196D02*
G01X30565Y15867D01*
G01X31235Y15867D01*
G01X31235Y15196D01*
G01X30565Y15196D01*
G37*
G01X28932Y15531D03*
G01X27948Y15531D03*
G54D83*
G01X25300Y3800D03*
G01X26300Y3800D03*
G01X27300Y3800D03*
G01X28300Y3800D03*
G01X34000Y15550D03*
G01X35000Y15550D03*
G01X36000Y15550D03*
G01X37000Y15550D03*
G01X38000Y15550D03*
G54D74*
G01X63350Y46500D03*
G01X62350Y46500D03*
G36*
G01X39568Y34546D02*
G01X39568Y36753D01*
G01X40831Y36753D01*
G01X40831Y34546D01*
G01X39568Y34546D01*
G37*
G36*
G01X41568Y34546D02*
G01X41568Y36753D01*
G01X42831Y36753D01*
G01X42831Y34546D01*
G01X41568Y34546D01*
G37*
G36*
G01X5997Y5419D02*
G01X5997Y6680D01*
G01X8202Y6680D01*
G01X8202Y5419D01*
G01X5997Y5419D01*
G37*
G36*
G01X5997Y7419D02*
G01X5997Y8680D01*
G01X8202Y8680D01*
G01X8202Y7419D01*
G01X5997Y7419D01*
G37*
G54D99*
G01X18700Y29800D03*
G01X12700Y29800D03*
G01X45850Y39100D03*
G01X51850Y39100D03*
G36*
G01X25722Y7930D02*
G01X25722Y8869D01*
G01X26278Y8869D01*
G01X26278Y7930D01*
G01X25722Y7930D01*
G37*
G36*
G01X26722Y7930D02*
G01X26722Y8869D01*
G01X27278Y8869D01*
G01X27278Y7930D01*
G01X26722Y7930D01*
G37*
G36*
G01X27722Y7930D02*
G01X27722Y8869D01*
G01X28278Y8869D01*
G01X28278Y7930D01*
G01X27722Y7930D01*
G37*
G36*
G01X28722Y7930D02*
G01X28722Y8869D01*
G01X29278Y8869D01*
G01X29278Y7930D01*
G01X28722Y7930D01*
G37*
G36*
G01X29722Y7930D02*
G01X29722Y8869D01*
G01X30278Y8869D01*
G01X30278Y7930D01*
G01X29722Y7930D01*
G37*
G36*
G01X30722Y7930D02*
G01X30722Y8869D01*
G01X31278Y8869D01*
G01X31278Y7930D01*
G01X30722Y7930D01*
G37*
G36*
G01X31722Y7930D02*
G01X31722Y8869D01*
G01X32278Y8869D01*
G01X32278Y7930D01*
G01X31722Y7930D01*
G37*
G36*
G01X32722Y7930D02*
G01X32722Y8869D01*
G01X33279Y8869D01*
G01X33279Y7930D01*
G01X32722Y7930D01*
G37*
G36*
G01X33722Y7930D02*
G01X33722Y8869D01*
G01X34279Y8869D01*
G01X34279Y7930D01*
G01X33722Y7930D01*
G37*
G36*
G01X34722Y7930D02*
G01X34722Y8869D01*
G01X35279Y8869D01*
G01X35279Y7930D01*
G01X34722Y7930D01*
G37*
G36*
G01X35722Y7930D02*
G01X35722Y8869D01*
G01X36279Y8869D01*
G01X36279Y7930D01*
G01X35722Y7930D01*
G37*
G36*
G01X36722Y7930D02*
G01X36722Y8869D01*
G01X37279Y8869D01*
G01X37279Y7930D01*
G01X36722Y7930D01*
G37*
G36*
G01X37722Y7930D02*
G01X37722Y8869D01*
G01X38279Y8869D01*
G01X38279Y7930D01*
G01X37722Y7930D01*
G37*
G36*
G01X38722Y7930D02*
G01X38722Y8869D01*
G01X39279Y8869D01*
G01X39279Y7930D01*
G01X38722Y7930D01*
G37*
G36*
G01X38722Y10930D02*
G01X38722Y11869D01*
G01X39279Y11869D01*
G01X39279Y10930D01*
G01X38722Y10930D01*
G37*
G36*
G01X37722Y10930D02*
G01X37722Y11869D01*
G01X38279Y11869D01*
G01X38279Y10930D01*
G01X37722Y10930D01*
G37*
G36*
G01X36722Y10930D02*
G01X36722Y11869D01*
G01X37279Y11869D01*
G01X37279Y10930D01*
G01X36722Y10930D01*
G37*
G36*
G01X35722Y10930D02*
G01X35722Y11869D01*
G01X36279Y11869D01*
G01X36279Y10930D01*
G01X35722Y10930D01*
G37*
G36*
G01X34722Y10930D02*
G01X34722Y11869D01*
G01X35279Y11869D01*
G01X35279Y10930D01*
G01X34722Y10930D01*
G37*
G36*
G01X33722Y10930D02*
G01X33722Y11869D01*
G01X34279Y11869D01*
G01X34279Y10930D01*
G01X33722Y10930D01*
G37*
G36*
G01X32722Y10930D02*
G01X32722Y11869D01*
G01X33279Y11869D01*
G01X33279Y10930D01*
G01X32722Y10930D01*
G37*
G36*
G01X31722Y10930D02*
G01X31722Y11869D01*
G01X32278Y11869D01*
G01X32278Y10930D01*
G01X31722Y10930D01*
G37*
G36*
G01X30722Y10930D02*
G01X30722Y11869D01*
G01X31278Y11869D01*
G01X31278Y10930D01*
G01X30722Y10930D01*
G37*
G36*
G01X29722Y10930D02*
G01X29722Y11869D01*
G01X30278Y11869D01*
G01X30278Y10930D01*
G01X29722Y10930D01*
G37*
G36*
G01X28722Y10930D02*
G01X28722Y11869D01*
G01X29278Y11869D01*
G01X29278Y10930D01*
G01X28722Y10930D01*
G37*
G36*
G01X27722Y10930D02*
G01X27722Y11869D01*
G01X28278Y11869D01*
G01X28278Y10930D01*
G01X27722Y10930D01*
G37*
G36*
G01X26722Y10930D02*
G01X26722Y11869D01*
G01X27278Y11869D01*
G01X27278Y10930D01*
G01X26722Y10930D01*
G37*
G36*
G01X25722Y10930D02*
G01X25722Y11869D01*
G01X26278Y11869D01*
G01X26278Y10930D01*
G01X25722Y10930D01*
G37*
G36*
G01X33305Y6015D02*
G01X33305Y6684D01*
G01X33975Y6684D01*
G01X33975Y6015D01*
G01X33305Y6015D01*
G37*
G54D84*
G01X35560Y6350D03*
G54D103*
G01X10022Y5150D03*
G01X15377Y5150D03*
G54D105*
G01X47450Y12146D03*
G01X47450Y9153D03*
G54D106*
G01X58750Y41325D03*
G01X58750Y25575D03*
G01X66950Y25575D03*
G01X66950Y41325D03*
G54D107*
G01X51975Y27188D03*
G01X51975Y31911D03*
G01X46425Y29550D03*
G54D108*
G01X47175Y27188D03*
G01X47175Y31911D03*
G54D107*
G01X51975Y19788D03*
G01X51975Y24511D03*
G01X46425Y22150D03*
G54D108*
G01X47175Y19788D03*
G01X47175Y24511D03*
G54D110*
G01X2506Y22750D03*
G01X3293Y22750D03*
G01X2506Y25050D03*
G01X3293Y25050D03*
M00*
M02*
